<ttFont>
          <CharString index="0">
            rmoveto
            187 144 169 191 177 -134 183 -197 -188 -144 -171 -189 -182 135 -177 197 -1 hvcurveto
            -297 360 rmoveto
            162 119 165 178 169 127 -157 -170 -161 -118 -166 -178 -173 -124 157 170 vhcurveto
            return
          </CharString>
          <CharString index="1">
            297 -10 -107 callgsubr
            return
          </CharString>
          <CharString index="2">
            rmoveto
            58 -57 -68 26 -91 hhcurveto
            -150 -99 -69 -126 -117 85 -32 154 -31 hvcurveto
            158 -32 73 -34 -101 vvcurveto
            -99 -82 -49 -133 -108 -85 35 68 -66 vhcurveto
            -21 -25 rlineto
            -73 77 89 -35 113 hhcurveto
            153 98 63 119 126 -98 36 -156 32 hvcurveto
            -152 31 -64 26 97 vvcurveto
            96 64 62 151 84 60 -21 -57 52 vhcurveto
            return
          </CharString>
          <CharString index="3">
            34 vstem
            -106 callsubr
            return
          </CharString>
          <CharString index="4">
            -90 75 -70 95 vhcurveto
            4 50 callgsubr
            59 55 -10 -20 52 hvcurveto
            -98 vlineto
            -69 -112 -58 -98 vhcurveto
            return
          </CharString>
          <CharString index="5">
            rmoveto
            -180 137 -186 194 108 125 58 107 48 vhcurveto
            -31 12 rlineto
            -100 -52 -104 -44 -90 hhcurveto
            -168 -132 156 174 158 107 166 190 87 95 -35 -101 52 hvcurveto
            30 14 rlineto
            90 -43 -91 65 -126 hhcurveto
            -213 -123 -184 -170 hvcurveto
            return
          </CharString>
          <CharString index="6">
            rmoveto
            85 63 85 -63 23 15 -95 77 rlineto
            -26 hlineto
            -94 -77 rlineto
            return
          </CharString>
          <CharString index="7">
            -69 callsubr
            hintmask 01111100
            -96 callsubr
            hintmask 10111100
            -101 callgsubr
            return
          </CharString>
          <CharString index="8">
            -89 -77 -80 -40 -89 hhcurveto
            -168 -133 154 173 162 111 165 178 106 85 -40 -97 52 hvcurveto
            29 15 rlineto
            90 -45 -81 65 -145 hhcurveto
            -189 -136 -173 -187 -176 139 -184 195 93 83 40 81 72 hvcurveto
            return
          </CharString>
          <CharString index="9">
            274 248 vlineto
            176 -274 rlineto
            40 hlineto
            -178 278 rlineto
            103 11 71 96 108 vvcurveto
            107 -85 110 -118 vhcurveto
            -292 -710 hlineto
            35 678 rmoveto
            256 hlineto
            94 76 -89 -96 -94 -63 -93 -100 hvcurveto
            -263 hlineto
            return
          </CharString>
          <CharString index="10">
            121 -222 rmoveto
            15 13 0 3 13 hvcurveto
            27 6 18 13 10 24 297 696 rcurveline
            -34 hlineto
            -206 -484 -219 484 rlineto
            -36 hlineto
            237 -520 -64 -151 -11 -24 -13 -8 rlinecurve
            -5 -9 -16 -2 -22 hhcurveto
            return
          </CharString>
          <CharString index="11">
            -24 19 -19 21 3 3 0 1 4 vhcurveto
            -75 callsubr
            466 -34 -330 vlineto
            return
          </CharString>
          <CharString index="12">
            205 130 141 215 196 -111 158 -224 hvcurveto
            -232 -710 hlineto
            532 356 rmoveto
            -184 -103 -140 -197 vhcurveto
            -197 646 197 hlineto
            193 107 -135 -187 hvcurveto
            endchar
          </CharString>
          <CharString index="13">
            rmoveto
            -28 -27 31 31 hvcurveto
            -26 hlineto
            -46 37 -38 44 43 38 38 46 vhcurveto
            -25 hlineto
            -34 -4 -25 -28 -27 hhcurveto
            endchar
          </CharString>
          <CharString index="14">
            rmoveto
            67 72 59 82 hvcurveto
            552 -34 -553 vlineto
            -61 -55 -47 -53 -27 -30 5 20 -23 vhcurveto
            -21 -22 rlineto
            -26 27 37 -9 40 hhcurveto
            return
          </CharString>
          <CharString index="15">
            rmoveto
            94 -78 rlineto
            26 hlineto
            95 78 -23 14 -85 -63 -85 63 rlineto
            return
          </CharString>
          <CharString index="16">
            -135 105 -133 145 vhcurveto
            4 32 -10 callsubr
            119 82 119 128 81 93 -65 -80 29 hvcurveto
            -179 vlineto
            -81 -7 -109 -69 -78 hhcurveto
            endchar
          </CharString>
          <CharString index="17">
            rmoveto
            22 13 -62 79 rlineto
            -42 hlineto
            -25 -92 rmoveto
            22 13 -62 79 rlineto
            -43 hlineto
            return
          </CharString>
          <CharString index="18">
            rmoveto
            -118 273 88 205 rlineto
            -32 hlineto
            -74 -175 -75 175 rlineto
            -31 hlineto
            87 -205 -117 -273 -207 479 rlineto
            -35 hlineto
            226 -520 rlineto
            29 hlineto
            123 284 122 -284 rlineto
            29 hlineto
            226 520 rlineto
            -35 hlineto
            return
          </CharString>
          <CharString index="19">
            420 29 -379 hlineto
            382 463 rlineto
            28 -417 -29 378 vlineto
            -384 -463 rlineto
            return
          </CharString>
          <CharString index="20">
            -176 rmoveto
            17 62 rlineto
            64 -37 -64 12 vlineto
            -12 -62 rlineto
            return
          </CharString>
          <CharString index="21">
            -22 vhcurveto
            20 -19 rlineto
            35 18 44 24 56 hhcurveto
            66 52 -34 -50 -48 -50 -26 -86 hvcurveto
            -22 -24 22 hlineto
            return
          </CharString>
          <CharString index="22">
            378 -5 -107 callsubr
            return
          </CharString>
          <CharString index="23">
            rmoveto
            -53 34 -34 51 21 35 6 7 20 vhcurveto
            -8 28 rlineto
            -6 -17 -23 -4 -15 hhcurveto
            -39 -26 24 39 hvcurveto
            return
          </CharString>
          <CharString index="24">
            131 32 rmoveto
            315 372 32 -372 299 425 -39 callgsubr
            469 32 vlineto
            return
          </CharString>
          <CharString index="25">
            rmoveto
            -41 -37 -12 -24 -26 hvcurveto
            36 153 rlineto
            193 26 -214 hlineto
            -2 -15 -40 -163 -8 -37 rrcurveto
            27 hlineto
            29 23 41 19 44 hhcurveto
            61 62 -35 -64 -59 -54 -43 -70 -53 -46 25 38 -23 hvcurveto
            -21 -11 rlineto
            -46 25 54 -31 63 hhcurveto
            83 69 51 77 72 -65 50 -81 hvcurveto
            return
          </CharString>
          <CharString index="26">
            563 32 -520 hlineto
            523 648 rlineto
            30 -560 -32 519 vlineto
            -525 -648 rlineto
            return
          </CharString>
          <CharString index="27">
            rmoveto
            -3 -3 -36 -22 -43 hhcurveto
            -34 -31 20 39 -3 hvcurveto
            404 123 30 -123 179 -34 -179 -74 -30 74 -409 vlineto
            -54 44 -32 52 55 41 27 2 5 vhcurveto
            endchar
          </CharString>
          <CharString index="28">
            207 -10 rmoveto
            88 80 36 62 48 hvcurveto
            -46 vlineto
            return
          </CharString>
          <CharString index="29">
            34 710 -35 -655 hlineto
            -522 655 rlineto
            -26 -710 35 644 hlineto
            return
          </CharString>
          <CharString index="30">
            21 -35 callgsubr
            return
          </CharString>
          <CharString index="31">
            24 -10 32 422 31 208 32 hstem
            55 35 431 33 vstem
            554 233 rmoveto
            134 -108 108 -135 -101 -90 -63 -93 -30 vhcurveto
            231 88 133 132 83 72 -51 -76 26 vhcurveto
            26 16 rlineto
            88 -31 -80 55 -96 hhcurveto
            -151 -104 -138 -305 -175 108 -107 143 139 109 108 135 hvcurveto
            -246 -211 rmoveto
            -116 -98 96 115 115 97 96 116 116 98 -96 -116 -115 -96 -95 -117 hvcurveto
            endchar
          </CharString>
          <CharString index="32">
            -55 callgsubr
            8 14 hvcurveto
            return
          </CharString>
          <CharString index="33">
            -75 callsubr
            676 -34 -328 vlineto
            68 -41 -74 58 -93 hhcurveto
            -138 -102 -126 -144 hvcurveto
            return
          </CharString>
          <CharString index="34">
            195 0 33 648 34 hstem
            54 35 590 35 vstem
            48 hmoveto
            289 33 hlineto
            -160 35 -88 158 139 vvcurveto
            157 113 159 182 182 113 -159 -157 -139 -88 -158 -160 -35 vhcurveto
            -33 289 33 -211 vlineto
            128 60 77 130 142 vvcurveto
            184 -140 166 -190 -190 -140 -166 -184 -142 77 -130 128 -60 vhcurveto
            -211 hlineto
            endchar
          </CharString>
          <CharString index="35">
            131 hmoveto
            710 -35 -710 vlineto
            return
          </CharString>
          <CharString index="36">
            -101 callgsubr
            endchar
          </CharString>
          <CharString index="37">
            -10 callgsubr
            81 34 414 34 hintmask 11101100
            323 -10 rmoveto
            144 96 125 144 134 -104 135 -145 -79 -78 -48 -68 -44 hvcurveto
            hintmask 11011100
            108 -32 -733 34 329 vlineto
            -69 44 74 -57 90 hhcurveto
            -5 32 rmoveto
            -88 -79 64 81 -36 hvcurveto
            179 vlineto
            hintmask 11101100
            79 7 111 71 76 hhcurveto
            123 97 -113 -124 -118 -83 -119 -128 hvcurveto
            endchar
          </CharString>
          <CharString index="38">
            rmoveto
            93 86 53 85 45 hvcurveto
            -86 vlineto
            return
          </CharString>
          <CharString index="39">
            44 14 37 29 41 vvcurveto
            61 -69 35 -67 -66 -70 -35 -61 -41 37 -29 43 -14 vhcurveto
            return
          </CharString>
          <CharString index="40">
            0 -59 callgsubr
            return
          </CharString>
          <CharString index="41">
            146 0 32 310 30 306 32 hstem
            103 35 497 35 vstem
            335 15 callsubr
            -338 -68 -30 68 -342 hlineto
            532 356 rmoveto
            -184 -103 -140 -197 vhcurveto
            -197 310 185 30 -185 306 197 hlineto
            193 107 -135 -187 hvcurveto
            endchar
          </CharString>
          <CharString index="42">
            155 -46 79 -109 -93 -91 -56 -82 -42 vhcurveto
            return
          </CharString>
          <CharString index="43">
            441 rmoveto
            78 63 62 77 77 -63 63 -78 -78 -63 -63 -77 -77 63 -62 78 hvcurveto
            25 vmoveto
            -61 -51 51 63 60 49 54 63 59 53 -50 -64 -60 -49 -54 -63 hvcurveto
            310 -476 rmoveto
            78 63 62 78 77 -63 62 -78 -78 -64 -62 -77 -78 64 -62 78 hvcurveto
            26 vmoveto
            -62 -51 50 64 60 50 54 63 59 53 -52 -62 -61 -50 -53 -62 hvcurveto
            return
          </CharString>
          <CharString index="44">
            108 56 26 -56 254 -19 vlineto
            -240 -256 rlineto
            -24 232 -108 vlineto
            345 vmoveto
            -211 -198 vlineto
            return
          </CharString>
          <CharString index="45">
            42 -67 callsubr
            return
          </CharString>
          <CharString index="46">
            rmoveto
            83 68 42 62 50 -40 40 -61 10 hvcurveto
            hintmask 11110000
            59 12 30 30 45 vvcurveto
            61 -62 46 -84 -62 -54 -25 -40 -86 callsubr
            hintmask 11101000
            -51 callsubr
            endchar
          </CharString>
          <CharString index="47">
            rmoveto
            187 144 169 191 hvcurveto
            hintmask 11011000
            177 -134 183 -197 -188 -144 -171 -189 -182 135 -177 197 -1 vhcurveto
            -23 callgsubr
          </CharString>
          <CharString index="48">
            21 0 callsubr
            return
          </CharString>
          <CharString index="49">
            102 21 -45 callsubr
            return
          </CharString>
          <CharString index="50">
            rmoveto
            73 -67 58 -86 -60 -56 -31 -47 -19 vhcurveto
            118 1 53 67 81 hhcurveto
            51 44 -27 -38 17 hvcurveto
            19 15 rlineto
            47 -21 -51 28 -59 hhcurveto
            -96 -66 -76 -162 -98 67 -60 92 87 69 59 74 hvcurveto
            -155 -108 rmoveto
            -71 -59 49 59 58 58 50 71 71 59 -50 -59 -58 -58 -49 -71 hvcurveto
            endchar
          </CharString>
          <CharString index="51">
            rmoveto
            -43 hlineto
            -62 -79 22 -13 rlineto
            190 92 rmoveto
            -43 hlineto
            -62 -79 23 -13 rlineto
            return
          </CharString>
          <CharString index="52">
            rmoveto
            -73 68 -59 85 61 56 32 46 19 vhcurveto
            -117 -55 -67 -80 -52 -44 26 39 -17 vhcurveto
            -18 -15 rlineto
            -47 20 51 -28 59 hhcurveto
            97 65 75 163 98 -67 -56 callgsubr
            57 49 71 hvcurveto
            endchar
          </CharString>
          <CharString index="53">
            hmoveto
            -88 callsubr
            return
          </CharString>
          <CharString index="54">
            8 -10 -40 callgsubr
            return
          </CharString>
          <CharString index="55">
            -122 -97 111 125 return
          </CharString>
          <CharString index="56">
            89 60 -32 -51 -48 -54 -33 -70 -73 -55 39 41 -4 hvcurveto
            -19 -13 rlineto
            -55 6 62 -39 83 hhcurveto
            return
          </CharString>
          <CharString index="57">
            130 -33 -520 34 325 vlineto
            return
          </CharString>
          <CharString index="58">
            -85 4 callsubr
            19 520 rmoveto
            205 -262 -204 -258 rlineto
            40 hlineto
            176 224 8 12 8 -12 177 -224 rlineto
            39 hlineto
            -204 258 206 262 rlineto
            -40 hlineto
            -178 -226 -8 -13 -8 13 -178 226 rlineto
            endchar
          </CharString>
          <CharString index="59">
            -32 -108 vlineto
            hintmask 11101100
            65 -41 -78 51 -81 hhcurveto
            -139 -111 -127 -142 -137 95 -132 145 hvcurveto
            6 32 rmoveto
            -123 -88 111 125 118 90 120 128 85 100 -72 -80 10 hvcurveto
            -180 vlineto
            -75 -39 -69 -67 -94 hhcurveto
            endchar
          </CharString>
          <CharString index="60">
            -64 callgsubr
            22 25 return
          </CharString>
          <CharString index="61">
            rmoveto
            -331 -472 331 -35 -710 35 347 472 -347 34 710 vlineto
            return
          </CharString>
          <CharString index="62">
            -21 245 30 435 -20 return
          </CharString>
          <CharString index="63">
            182 -5 33 654 33 return
          </CharString>
          <CharString index="64">
            34 325 vlineto
            97 26 91 74 92 hhcurveto
            90 47 -70 -136 55 callgsubr
            return
          </CharString>
          <CharString index="65">
            51 -77 callsubr
            hstem
            9 9 callgsubr
            283 -360 -275 -350 rlineto
            42 hlineto
            254 324 254 -324 rlineto
            40 hlineto
            -275 350 283 360 rlineto
            -40 hlineto
            -262 -334 -262 334 rlineto
            endchar
          </CharString>
          <CharString index="66">
            -21 520 33 callgsubr
            81 34 vstem
            115 hmoveto
            -46 callgsubr
            34 646 -14 callgsubr
            return
          </CharString>
          <CharString index="67">
            -10 -30 callgsubr
            return
          </CharString>
          <CharString index="68">
            17 callsubr
            620 35 vstem
            786 hmoveto
            710 -32 vlineto
            -313 -529 -313 529 rlineto
            -32 -710 35 642 hlineto
            298 -504 rlineto
            24 hlineto
            298 504 rlineto
            -642 vlineto
            endchar
          </CharString>
          <CharString index="69">
            vvcurveto
            -32 21 -24 38 -9 vhcurveto
            return
          </CharString>
          <CharString index="70">
            25 -38 -45 15 -47 hhcurveto
            -138 -112 -124 -146 -87 39 -78 61 -50 hvcurveto
            -30 -43 rlineto
            -36 257 rmoveto
            130 99 109 117 41 38 -13 -22 33 vhcurveto
            -244 -390 rlineto
            -51 43 -33 67 76 vvcurveto
            return
          </CharString>
          <CharString index="71">
            -164 -53 callgsubr
            60 40 vhcurveto
            return
          </CharString>
          <CharString index="72">
            293 -9 -91 callgsubr
            return
          </CharString>
          <CharString index="73">
            rmoveto
            112 68 101 95 85 -61 112 -119 -112 -69 -104 -93 -87 61 -108 120 -1 hvcurveto
            -154 196 rmoveto
            72 51 98 103 96 57 -90 -80 -71 -51 -99 -102 -98 -56 91 79 vhcurveto
            endchar
          </CharString>
          <CharString index="74">
            rmoveto
            -34 -710 36 hlineto
            483 650 rlineto
            -650 35 710 -30 vlineto
            -490 -660 rlineto
            endchar
          </CharString>
          <CharString index="75">
            40 hlineto
            159 245 rlineto
            275 -245 467 32 -433 315 370 32 -370 299 424 32 -467 hlineto
            -248 -433 rmoveto
            255 386 rlineto
            -386 vlineto
            endchar
          </CharString>
          <CharString index="76">
            rmoveto
            -88 callsubr
            return
          </CharString>
          <CharString index="77">
            97 hmoveto
            230 hlineto
            144 78 94 118 126 -76 86 -148 hvcurveto
            -194 286 -34 hlineto
            34 -318 rmoveto
            194 hlineto
            144 45 -84 -96 -94 -54 -86 -133 hvcurveto
            -196 hlineto
            return
          </CharString>
          <CharString index="78">
            904 -92 callsubr
            -216 -918 rmoveto
            -81 callsubr
            return
          </CharString>
          <CharString index="79">
            32 -435 678 -35 -710 vlineto
            return
          </CharString>
          <CharString index="80">
            146 -5 33 -7 -21 311 30 341 33 return
          </CharString>
          <CharString index="81">
            -21 496 30 callgsubr
            return
          </CharString>
          <CharString index="82">
            -90 callgsubr
            endchar
          </CharString>
          <CharString index="83">
            -71 callgsubr
            -9 callsubr
            35 return
          </CharString>
          <CharString index="84">
            rmoveto
            -34 -710 34 353 139 hlineto
            260 -353 rlineto
            42 hlineto
            -274 370 243 340 rlineto
            -42 hlineto
            -230 -325 rlineto
            -138 hlineto
            endchar
          </CharString>
          <CharString index="85">
            24 158 25 hstemhm
            301 28 -15 27 hintmask 11101000
            190 return
          </CharString>
          <CharString index="86">
            -95 callgsubr
            endchar
          </CharString>
          <CharString index="87">
            413 -7 rmoveto
            208 155 155 207 206 -155 154 -208 -208 -155 -154 -206 -207 155 -155 208 hvcurveto
            return
          </CharString>
          <CharString index="88">
            -346 -77 callsubr
            return
          </CharString>
          <CharString index="89">
            -227 310 221 208 rlineto
            -41 hlineto
            -337 -311 rlineto
            523 -34 -730 34 167 vlineto
            133 121 212 -288 rlineto
            endchar
          </CharString>
          <CharString index="90">
            -24 callsubr
            433 34 vstem
            return
          </CharString>
          <CharString index="91">
            -216 267 rmoveto
            130 99 109 117 118 98 -108 -129 -129 -98 -108 -119 -118 -97 106 129 vhcurveto
            endchar
          </CharString>
          <CharString index="92">
            hstem
            96 35 vstem
            -72 callsubr
            return
          </CharString>
          <CharString index="93">
            hstemhm
            76 34 354 34 return
          </CharString>
          <CharString index="94">
            -173 -93 callsubr
            return
          </CharString>
          <CharString index="95">
            rmoveto
            -97 237 -33 -520 33 254 98 hlineto
            192 -254 rlineto
            40 hlineto
            -207 270 185 250 rlineto
            -40 hlineto
            endchar
          </CharString>
          <CharString index="96">
            -44 callsubr
            203 -20 hstem
            38 callsubr
            vstem
            return
          </CharString>
          <CharString index="97">
            rmoveto
            -52 callsubr
            return
          </CharString>
          <CharString index="98">
            -3 callgsubr
            44 return
          </CharString>
          <CharString index="99">
            35 callgsubr
            44 35 413 34 hintmask 11011100
            284 -10 rmoveto
            80 72 44 82 56 hvcurveto
            return
          </CharString>
          <CharString index="100">
            -97 -10 29 480 29 202 -20 54 callgsubr
            return
          </CharString>
          <CharString index="101">
            30 -5 30 658 32 223 -20 54 callsubr
            return
          </CharString>
          <CharString index="102">
            37 callsubr
            208 -20 hstem
            return
          </CharString>
          <CharString index="103">
            659 -21 92 -20 hstem
            return
          </CharString>
          <CharString index="104">
            35 -50 -59 21 -67 hhcurveto
            -188 -144 -171 -189 -108 47 -107 80 -68 hvcurveto
            -46 -72 rlineto
            40 hlineto
            33 51 rlineto
            return
          </CharString>
          <CharString index="105">
            rmoveto
            368 -27 vlineto
            -3 -2 -53 -52 -44 hhcurveto
            -26 vlineto
            33 51 30 17 15 hvcurveto
            -334 -85 -26 191 26 vlineto
            endchar
          </CharString>
          <CharString index="106">
            32 678 -20 hstem
            return
          </CharString>
          <CharString index="107">
            -21 520 -20 return
          </CharString>
          <CharString index="108">
            rmoveto
            51 -42 37 -55 15 vhcurveto
            return
          </CharString>
          <CharString index="109">
            -138 rmoveto
            83 -32 -83 vlineto
            return
          </CharString>
          <CharString index="110">
            rmoveto
            -33 -519 34 hlineto
            351 464 rlineto
            -464 33 return
          </CharString>
          <CharString index="111">
            -59 callsubr
            hstem
            return
          </CharString>
          <CharString index="112">
            vhcurveto
            -55 callgsubr
            return
          </CharString>
          <CharString index="113">
            -88 callgsubr
            endchar
          </CharString>
          <CharString index="114">
            -144 178 rmoveto
            85 66 68 78 80 66 -67 -84 -84 -66 -69 -80 -79 -65 67 84 vhcurveto
            endchar
          </CharString>
          <CharString index="115">
            33 682 -20 return
          </CharString>
          <CharString index="116">
            -38 callgsubr
            230 14 callsubr
            hintmask 11011110
            return
          </CharString>
          <CharString index="117">
            26 341 26 hstem
            302 29 vstem
            return
          </CharString>
          <CharString index="118">
            hstem
            41 27 307 27 vstem
            222 return
          </CharString>
          <CharString index="119">
            -50 49 callgsubr
            return
          </CharString>
          <CharString index="120">
            171 hlineto
            104 62 70 95 97 -61 63 -106 hvcurveto
            return
          </CharString>
          <CharString index="121">
            40 callgsubr
            413 34 return
          </CharString>
          <CharString index="122">
            hmoveto
            205 130 141 215 196 -111 158 -224 hvcurveto
            -232 return
          </CharString>
          <CharString index="123">
            -17 -92 rlineto
            -82 38 82 -13 vlineto
            12 92 rlineto
            return
          </CharString>
          <CharString index="124">
            -77 callsubr
            hstem
            96 35 return
          </CharString>
          <CharString index="125">
            -37 -1 -47 -25 -64 hhcurveto
            -66 -46 31 31 hvcurveto
            -26 hlineto
            -48 46 -37 92 return
          </CharString>
          <CharString index="126">
            vlineto
            110 40 60 72 30 31 -10 -15 17 vhcurveto
            17 22 rlineto
            20 -21 return
          </CharString>
          <CharString index="127">
            -24 255 33 hstem
            481 255 rmoveto
            33 -413 -33 vlineto
            endchar
          </CharString>
          <CharString index="128">
            -84 0 29 462 29 210 -20 hstem
            return
          </CharString>
          <CharString index="129">
            -75 -86 -88 -52 -81 -129 hvcurveto
            endchar
          </CharString>
          <CharString index="130">
            -99 203 rlineto
            -34 -280 28 233 hlineto
            94 -191 rlineto
            return
          </CharString>
          <CharString index="131">
            hhcurveto
            -25 -24 7 14 -20 hvcurveto
            -33 vlineto
            -16 21 24 -4 27 hhcurveto
            return
          </CharString>
          <CharString index="132">
            232 -108 vlineto
            345 vmoveto
            -211 -198 vlineto
            endchar
          </CharString>
          <CharString index="133">
            -21 490 30 149 31 8 32 return
          </CharString>
          <CharString index="134">
            -20 -14 callsubr
            return
          </CharString>
          <CharString index="135">
            121 -6 33 654 33 return
          </CharString>
          <CharString index="136">
            29 480 29 hstem
            59 33 return
          </CharString>
          <CharString index="137">
            31 704 -20 hstem
            87 33 return
          </CharString>
          <CharString index="138">
            -117 -21 159 -21 return
          </CharString>
          <CharString index="139">
            -166 23 74 20 return
          </CharString>
          <CharString index="140">
            hintmask 10100000
            -53 -217 rlineto
            31 hlineto
            hintmask 01100000
            52 217 rlineto
            return
          </CharString>
          <CharString index="141">
            333 rmoveto
            83 68 42 62 50 -40 40 -61 10 hvcurveto
            return
          </CharString>
          <CharString index="142">
            rmoveto
            -294 -520 33 491 261 hlineto
            endchar
          </CharString>
          <CharString index="143">
            -20 hstem
            85 35 517 34 vstem
            return
          </CharString>
          <CharString index="144">
            0 32 646 32 return
          </CharString>
          <CharString index="145">
            46 35 593 35 return
          </CharString>
          <CharString index="146">
            -20 230 -20 return
          </CharString>
          <CharString index="147">
            98 -77 82 -101 -100 -76 -82 -98 -96 75 -83 101 return
          </CharString>
          <CharString index="148">
            -191 -21 202 -40 callgsubr
            hstemhm
            return
          </CharString>
          <CharString index="149">
            34 53 callgsubr
            202 -20 hstemhm
            return
          </CharString>
          <CharString index="150">
            389 0 32 213 32 70 32 299 32 return
          </CharString>
          <CharString index="151">
            -10 26 228 25 172 25 228 26 hstem
            return
          </CharString>
          <CharString index="152">
            rmoveto
            108 56 26 -56 254 -19 vlineto
            -240 return
          </CharString>
          <CharString index="153">
            -489 -244 489 return
          </CharString>
          <CharString index="154">
            hstem
            92 32 vstem
            124 return
          </CharString>
          <CharString index="155">
            -20 callgsubr
            hstem
            96 35 return
          </CharString>
          <CharString index="156">
            125 -6 33 320 32 302 33 hstem
            return
          </CharString>
          <CharString index="157">
            26 368 -20 hstem
            134 27 vstem
            161 return
          </CharString>
          <CharString index="158">
            -242 21 -21 488 242 -210 -20 return
          </CharString>
          <CharString index="159">
            -1 callsubr
            97 34 return
          </CharString>
          <CharString index="160">
            33 47 callgsubr
            return
          </CharString>
          <CharString index="161">
            hstem
            62 35 435 35 vstem
            return
          </CharString>
          <CharString index="162">
            474 32 -8 -20 return
          </CharString>
          <CharString index="163">
            -21 678 32 return
          </CharString>
          <CharString index="164">
            -336 -19 -21 52 -21 749 -20 hstemhm
            return
          </CharString>
          <CharString index="165">
            -173 32 661 33 callgsubr
            return
          </CharString>
          <CharString index="166">
            29 226 29 224 30 hstem
            44 35 return
          </CharString>
          <CharString index="167">
            -35 -710 vlineto
            endchar
          </CharString>
        <CharString name=".notdef">
          -573 endchar
        </CharString>
        <CharString name="A">
          -58 callsubr
          hstem
          -103 callgsubr
          endchar
        </CharString>
        <CharString name="A.sc">
          9 21 -21 183 29 330 -20 hstem
          60 hmoveto
          86 183 rlineto
          290 hlineto
          85 -183 rlineto
          35 hlineto
          -251 542 rlineto
          -28 hlineto
          -252 -542 rlineto
          400 212 rmoveto
          -270 hlineto
          136 288 rlineto
          endchar
        </CharString>
        <CharString name="AE">
          43 callsubr
          hstem
          444 36 vstem
          -28 hmoveto
          -32 callsubr
        </CharString>
        <CharString name="AEacute">
          43 callsubr
          208 -20 hstem
          444 36 vstem
          553 918 -95 callgsubr
          -498 -826 rmoveto
          -32 callsubr
        </CharString>
        <CharString name="Aacute">
          -58 callsubr
          228 -20 hstem
          -103 callgsubr
          -92 643 -21 callsubr
        </CharString>
        <CharString name="Abreve">
          -58 callsubr
          144 22 62 -20 hstem
          256 162 vstem
          -103 callgsubr
          -167 581 -94 callsubr
        </CharString>
        <CharString name="Acircumflex">
          -58 callsubr
          228 -20 hstem
          -103 callgsubr
          -252 551 -45 callgsubr
        </CharString>
        <CharString name="Adblgrave">
          -58 callsubr
          228 -20 hstem
          -103 callgsubr
          -119 551 16 callgsubr
        </CharString>
        <CharString name="Adieresis">
          -58 callsubr
          145 82 hstem
          259 31 95 31 vstem
          -103 callgsubr
          -214 560 6 callsubr
        </CharString>
        <CharString name="Agrave">
          -58 callsubr
          228 -20 hstem
          -103 callgsubr
          -159 551 -78 callgsubr
        </CharString>
        <CharString name="Ainvertedbreve">
          -58 callsubr
          206 22 hstem
          256 162 vstem
          -103 callgsubr
          -167 621 1 callgsubr
        </CharString>
        <CharString name="Amacron">
          -58 callsubr
          177 28 hstem
          -103 callgsubr
          -25 592 -33 callgsubr
        </CharString>
        <CharString name="Aogonek">
          101 -143 -21 185 -45 callsubr
          hstem
          548 26 vstem
          607 -36 callsubr
          -305 710 rlineto
          -30 hlineto
          -306 -710 rlineto
          38 hlineto
          105 245 rlineto
          356 hlineto
          105 -245 rlineto
          12 callsubr
          -439 439 rmoveto
          168 391 167 -391 rlineto
          endchar
        </CharString>
        <CharString name="Aring">
          -58 callsubr
          109 119 hstem
          276 21 81 21 vstem
          -103 callgsubr
          -228 584 -65 callgsubr
          61 40 -69 callgsubr
          endchar
        </CharString>
        <CharString name="Aringacute">
          -58 callsubr
          228 -20 hstem
          276 21 81 21 vstem
          276 751 rmoveto
          -27 15 -22 24 -8 vhcurveto
          -299 -694 rlineto
          38 hlineto
          105 245 rlineto
          356 hlineto
          105 -245 rlineto
          37 hlineto
          -298 694 rlineto
          24 8 16 21 28 vvcurveto
          34 -26 25 -36 -35 -26 -25 -34 vhcurveto
          -107 -476 rmoveto
          168 391 167 -391 rlineto
          -167 516 -69 callgsubr
          76 127 rmoveto
          -45 hlineto
          -62 -78 24 -13 rlineto
          endchar
        </CharString>
        <CharString name="Atilde">
          -58 callsubr
          154 -25 callgsubr
          hintmask 11110100
          -103 callgsubr
          -106 569 -85 callgsubr
          hintmask 11111000
          -98 callgsubr
        </CharString>
        <CharString name="B">
          85 0 32 311 31 304 32 hstemhm
          96 35 415 34 -4 34 hintmask 11110100
          610 -62 callgsubr
        </CharString>
        <CharString name="B.sc">
          -3 0 29 231 28 224 30 hstemhm
          92 32 337 32 -7 32 hintmask 11110100
          518 140 rmoveto
          64 -42 55 -66 19 vhcurveto
          hintmask 11111000
          51 21 32 50 55 vvcurveto
          68 -50 70 -83 vhcurveto
          -268 -542 273 hlineto
          hintmask 11110100
          84 69 62 78 hvcurveto
          -32 4 rmoveto
          -58 -54 -57 -67 vhcurveto
          -241 231 247 hlineto
          65 50 -56 -60 hvcurveto
          -133 368 rmoveto
          hintmask 11111000
          64 44 -52 -60 -57 -47 -55 -66 hvcurveto
          -224 224 hlineto
          endchar
        </CharString>
        <CharString name="C">
          121 -6 53 callsubr
          vstem
          46 360 -102 callsubr
          endchar
        </CharString>
        <CharString name="C.sc">
          23 -5 31 489 30 hstem
          50 32 vstem
          50 275 rmoveto
          -138 113 -142 160 89 103 45 81 40 vhcurveto
          -28 13 rlineto
          -76 -43 -85 -32 -73 hhcurveto
          -137 -107 116 130 118 87 125 155 71 77 -26 -77 43 hvcurveto
          28 15 rlineto
          68 -37 -75 50 -104 hhcurveto
          -176 -101 -140 -130 hvcurveto
          endchar
        </CharString>
        <CharString name="CR">
          -573 endchar
        </CharString>
        <CharString name="Cacute">
          -15 callgsubr
          vstem
          455 918 -95 callgsubr
          -326 -466 -102 callsubr
          endchar
        </CharString>
        <CharString name="Ccaron">
          -15 callgsubr
          vstem
          273 904 -92 callsubr
          -249 -558 -102 callsubr
          endchar
        </CharString>
        <CharString name="Ccedilla">
          117 32 callsubr
          44 32 654 33 hstem
          42 35 367 25 vstem
          287 -81 callgsubr
          30 50 104 5 116 57 46 102 rlinecurve
          -31 12 rlineto
          -100 -52 -104 -44 -90 hhcurveto
          -168 -132 156 174 158 107 166 190 87 95 -35 -101 52 hvcurveto
          30 14 rlineto
          90 -43 -91 65 -126 hhcurveto
          -213 -123 -184 -170 -176 130 -181 186 -8 hvcurveto
          -44 -79 -79 callgsubr
        </CharString>
        <CharString name="Ccircumflex">
          -15 callgsubr
          vstem
          295 826 -101 callsubr
          -227 -481 -102 callsubr
          endchar
        </CharString>
        <CharString name="Cdotaccent">
          -15 callgsubr
          283 32 vstem
          46 360 -102 callsubr
          350 475 -70 callgsubr
        </CharString>
        <CharString name="D">
          139 0 32 646 37 callgsubr
          328 hmoveto
          -95 callsubr
        </CharString>
        <CharString name="D.sc">
          42 0 30 482 30 hstem
          92 32 405 33 vstem
          284 hmoveto
          169 109 107 165 150 -92 120 -186 hvcurveto
          -192 -542 hlineto
          437 272 rmoveto
          -138 -84 -104 -161 vhcurveto
          -160 482 160 hlineto
          158 87 -100 -140 hvcurveto
          endchar
        </CharString>
        <CharString name="Dcaron">
          139 -5 callsubr
          96 35 497 35 vstem
          243 904 -92 callsubr
          63 -918 rmoveto
          -95 callsubr
        </CharString>
        <CharString name="Dcroat">
          -66 callsubr
        </CharString>
        <CharString name="Ddotbelow">
          139 -117 -21 138 32 646 32 hstem
          96 35 191 32 274 35 vstem
          354 2 callsubr
          6 138 rmoveto
          -95 callsubr
        </CharString>
        <CharString name="Delta">
          35 0 -1 callsubr
          319 9 callgsubr
          -29 hlineto
          -286 -680 1 -30 rlineto
          599 30 hlineto
          -562 2 rmoveto
          262 634 262 -634 rlineto
          endchar
        </CharString>
        <CharString name="E">
          -62 callsubr
          hstem
          96 35 -77 callgsubr
          endchar
        </CharString>
        <CharString name="E.sc">
          -41 0 30 232 29 221 30 47 callsubr
          30 rmoveto
          232 306 29 -306 221 349 30 -381 -542 389 30 vlineto
          endchar
        </CharString>
        <CharString name="Eacute">
          -5 callgsubr
          417 918 -95 callgsubr
          -203 -794 rmoveto
          315 372 32 -372 299 425 -39 callgsubr
          469 32 vlineto
          endchar
        </CharString>
        <CharString name="Ebreve">
          -62 callsubr
          124 22 62 -20 hstem
          96 35 130 162 -77 callgsubr
          -223 824 -94 callsubr
        </CharString>
        <CharString name="Ecaron">
          -5 callgsubr
          235 904 -92 callsubr
          -126 -886 rmoveto
          315 372 32 -372 299 425 -39 callgsubr
          469 32 vlineto
          endchar
        </CharString>
        <CharString name="Ecircumflex">
          -5 callgsubr
          257 826 -101 callsubr
          -104 -809 rmoveto
          315 372 32 -372 299 425 -39 callgsubr
          469 32 vlineto
          endchar
        </CharString>
        <CharString name="Edblgrave">
          -62 callsubr
          -32 240 hstemhm
          96 35 hintmask 11011000
          387 826 -90 callsubr
          -66 -886 rmoveto
          315 372 32 -372 299 425 vlineto
          hintmask 11101000
          -39 callgsubr
          469 32 vlineto
          endchar
        </CharString>
        <CharString name="Edieresis">
          -62 callsubr
          125 82 hstem
          96 35 132 31 95 31 vstem
          294 835 -88 callgsubr
          -258 -803 rmoveto
          315 372 32 -372 299 425 -39 callgsubr
          469 32 vlineto
          endchar
        </CharString>
        <CharString name="Edotaccent">
          -24 callgsubr
          195 32 -77 callgsubr
          -207 803 -70 callgsubr
        </CharString>
        <CharString name="Edotbelow">
          42 -117 -21 138 -59 callgsubr
          hstem
          96 35 188 32 -77 callgsubr
          -214 -170 -70 callgsubr
        </CharString>
        <CharString name="Egrave">
          42 0 32 315 32 299 32 208 -20 hstem
          96 35 -77 callgsubr
          -215 794 -78 callgsubr
        </CharString>
        <CharString name="Einvertedbreve">
          -62 callsubr
          186 22 hstem
          96 35 118 162 vstem
          330 896 -96 callgsubr
          -199 -864 rmoveto
          315 372 32 -372 299 425 -39 callgsubr
          469 32 vlineto
          endchar
        </CharString>
        <CharString name="Emacron">
          -62 callsubr
          157 28 hstem
          96 35 -77 callgsubr
          -81 835 -33 callgsubr
        </CharString>
        <CharString name="Eng">
          200 -173 32 162 -21 709 61 callgsubr
          96 35 512 34 hintmask 11101100
          643 hmoveto
          -33 vlineto
          -61 -55 -47 -53 -27 -30 5 20 -23 vhcurveto
          -21 -22 rlineto
          -26 27 37 -9 40 hhcurveto
          66 73 58 82 hvcurveto
          742 -34 -653 vlineto
          hintmask 11011100
          -521 654 rlineto
          -26 -710 35 644 hlineto
          endchar
        </CharString>
        <CharString name="Eogonek">
          42 -143 -21 164 -59 callgsubr
          hstem
          96 35 326 26 vstem
          131 32 rmoveto
          315 372 32 -372 299 425 -39 callgsubr
          433 vlineto
          -51 -37 -21 -30 -32 19 callgsubr
          22 25 60 40 vhcurveto
          32 vlineto
          endchar
        </CharString>
        <CharString name="Eth">
          -66 callsubr
        </CharString>
        <CharString name="Etilde">
          -62 callsubr
          134 -25 callgsubr
          96 35 hintmask 11110110
          -83 callsubr
          -162 812 -85 callgsubr
          hintmask 11111010
          -98 callgsubr
        </CharString>
        <CharString name="Euro">
          239 -6 33 257 27 68 26 276 33 hstem
          82 405 rmoveto
          -12 -26 rlineto
          75 -19 hlineto
          -17 1 -16 2 -16 vhcurveto
          -103 hlineto
          -12 -27 rlineto
          120 hlineto
          -153 32 124 -137 167 hhcurveto
          108 125 58 107 48 hvcurveto
          -31 12 rlineto
          -100 -52 -104 -44 -90 hhcurveto
          -144 -118 114 143 -30 hvcurveto
          322 hlineto
          12 27 rlineto
          -339 hlineto
          -2 15 -1 15 16 vvcurveto
          7 0 7 1 8 vhcurveto
          368 hlineto
          12 26 rlineto
          -378 hlineto
          142 19 104 134 171 hhcurveto
          87 95 -35 -101 52 hvcurveto
          30 14 rlineto
          90 -43 -91 65 -126 hhcurveto
          -194 -120 -153 -156 -19 hvcurveto
          endchar
        </CharString>
        <CharString name="F">
          25 21 -21 347 31 300 32 hstem
          96 35 vstem
          131 hmoveto
          347 361 31 -361 300 425 -39 callgsubr
          vlineto
          endchar
        </CharString>
        <CharString name="F.sc">
          -56 21 -21 261 30 221 30 47 callsubr
          hmoveto
          261 296 30 -296 221 348 30 -380 -542 vlineto
          endchar
        </CharString>
        <CharString name="G">
          -27 callsubr
          hstemhm
          46 35 547 32 hintmask 01111100
          628 hmoveto
          -32 callgsubr
          hintmask 10111100
          -99 callsubr
          endchar
        </CharString>
        <CharString name="G.alt">
          162 -5 33 274 33 347 33 hstem
          46 35 vstem
          378 -5 rmoveto
          176 131 148 165 20 hvcurveto
          1 8 1 13 6 vvcurveto
          -272 -33 235 hlineto
          -141 -20 -113 -133 -159 hhcurveto
          -174 -123 159 166 164 119 165 177 108 88 -63 -83 50 hvcurveto
          26 23 rlineto
          91 -57 -96 65 -117 hhcurveto
          -190 -143 -171 -188 -184 139 -177 193 hvcurveto
          endchar
        </CharString>
        <CharString name="G.sc">
          45 -4 31 -6 -21 234 28 254 29 hstemhm
          50 32 445 30 hintmask 01111100
          527 hmoveto
          30 262 -165 -28 135 -111 hlineto
          hintmask 10111100
          -66 -62 -66 -30 -72 hhcurveto
          -137 -108 114 130 122 91 123 144 86 70 -31 -73 41 hvcurveto
          28 16 rlineto
          68 -37 -68 49 -119 hhcurveto
          -157 -111 -131 -142 -136 114 -140 161 76 67 29 61 59 hvcurveto
          endchar
        </CharString>
        <CharString name="Gacute">
          -27 callsubr
          203 -20 hstemhm
          46 35 547 32 hintmask 01111110
          445 918 -95 callgsubr
          266 -826 rmoveto
          -32 callgsubr
          hintmask 10111110
          -99 callsubr
          endchar
        </CharString>
        <CharString name="Gbreve">
          -27 callsubr
          119 22 62 -20 hstemhm
          46 35 208 162 177 32 hintmask 0111111110000000
          628 hmoveto
          -32 callgsubr
          hintmask 1011111110000000
          -99 callsubr
          hintmask 0111111110000000
          -258 740 -94 callsubr
        </CharString>
        <CharString name="Gcircumflex">
          -27 callsubr
          203 -20 hstemhm
          46 35 547 32 hintmask 01111110
          285 826 -101 callsubr
          365 -841 rmoveto
          -32 callgsubr
          hintmask 10111110
          -99 callsubr
          endchar
        </CharString>
        <CharString name="Gcommaaccent">
          146 -155 -21 171 33 -7 -21 311 30 341 33 hstemhm
          46 35 278 37 232 32 hintmask 10111111
          379 -87 callsubr
          269 176 rmoveto
          -32 callgsubr
          hintmask 11011111
          -99 callsubr
          endchar
        </CharString>
        <CharString name="Gdotaccent">
          -27 callsubr
          203 -20 hstemhm
          46 35 273 32 242 32 hintmask 01111111
          628 hmoveto
          -32 callgsubr
          hintmask 10111111
          -99 callsubr
          hintmask 01111111
          -242 719 -70 callgsubr
        </CharString>
        <CharString name="H">
          160 21 -21 347 32 331 -20 hstem
          96 35 472 34 vstem
          603 710 -46 callsubr
          endchar
        </CharString>
        <CharString name="H.sc">
          59 21 -21 262 31 249 -20 hstem
          92 32 384 33 vstem
          508 542 rmoveto
          -249 -384 249 -32 -542 32 262 384 -262 33 542 vlineto
          endchar
        </CharString>
        <CharString name="Hbar">
          170 21 -21 347 32 174 25 132 -20 hstem
          101 35 472 34 vstem
          608 9 callgsubr
          -132 -472 132 -35 -132 -50 -25 50 -553 35 347 472 -347 34 553 50 25 -50 132 vlineto
          -506 -331 rmoveto
          174 472 -174 vlineto
          endchar
        </CharString>
        <CharString name="Hcircumflex">
          160 21 -21 347 32 331 -20 228 -20 hstem
          96 35 472 34 vstem
          283 826 -101 callsubr
          342 -131 -46 callsubr
          endchar
        </CharString>
        <CharString name="Hdotbelow">
          160 31 callsubr
          347 32 331 -20 hstem
          96 35 224 32 216 34 vstem
          603 710 -46 callsubr
          -250 -848 -70 callgsubr
        </CharString>
        <CharString name="I">
          -346 21 -21 710 -20 -15 callsubr
          endchar
        </CharString>
        <CharString name="I.sc">
          -357 21 -21 541 -20 47 callsubr
          hmoveto
          541 -32 -541 vlineto
          endchar
        </CharString>
        <CharString name="IJ">
          129 -11 33 -1 -35 callgsubr
          hstemhm
          96 35 450 34 hintmask 01111000
          -72 callsubr
          149 33 rmoveto
          hintmask 10111000
          -86 callgsubr
          endchar
        </CharString>
        <CharString name="Iacute">
          -67 callgsubr
          92 918 -21 callsubr
        </CharString>
        <CharString name="Ibreve">
          -19 callsubr
          144 22 62 -20 hstemhm
          32 162 -98 35 hintmask 11110100
          -72 callsubr
          17 856 rmoveto
          -28 -27 31 31 hvcurveto
          hintmask 11111000
          -26 hlineto
          -46 37 -38 44 43 38 38 46 vhcurveto
          -25 hlineto
          -34 -4 -25 -28 -27 hhcurveto
          endchar
        </CharString>
        <CharString name="Icircumflex">
          -67 callgsubr
          -68 826 -45 callgsubr
        </CharString>
        <CharString name="Idblgrave">
          -67 callgsubr
          74 826 16 callgsubr
        </CharString>
        <CharString name="Idieresis">
          -19 callsubr
          145 82 hstem
          35 31 30 35 30 31 cntrmask 00011100
          -72 callsubr
          -30 835 6 callsubr
        </CharString>
        <CharString name="Idotaccent">
          -67 callgsubr
          33 835 -70 callgsubr
        </CharString>
        <CharString name="Idotbelow">
          -346 31 callsubr
          710 -20 -15 callsubr
          33 2 callsubr
          endchar
        </CharString>
        <CharString name="Igrave">
          -67 callgsubr
          25 826 -78 callgsubr
        </CharString>
        <CharString name="Iinvertedbreve">
          -19 callsubr
          206 22 hstemhm
          32 162 -98 35 hintmask 11101000
          -72 callsubr
          17 896 -44 callgsubr
          hintmask 11110000
          25 hlineto
          46 -38 38 -43 -44 -37 -38 -46 vhcurveto
          26 hlineto
          31 27 31 28 vhcurveto
          endchar
        </CharString>
        <CharString name="Imacron">
          -19 callsubr
          177 28 -15 callsubr
          159 867 -33 callgsubr
        </CharString>
        <CharString name="Iogonek">
          -346 -143 -21 874 -20 hstem
          23 26 47 35 vstem
          82 -36 callsubr
          710 -35 -710 vlineto
          -52 -38 -21 -29 17 callgsubr
          endchar
        </CharString>
        <CharString name="Itilde">
          -19 callsubr
          154 -25 callgsubr
          96 35 hintmask 11101100
          -72 callsubr
          78 844 -85 callgsubr
          hintmask 11110100
          -98 callgsubr
        </CharString>
        <CharString name="J">
          -98 -11 33 688 -20 hstem
          354 34 vstem
          18 33 rmoveto
          -86 callgsubr
          endchar
        </CharString>
        <CharString name="J.sc">
          -156 -8 30 519 -20 hstem
          301 32 vstem
          25 25 rmoveto
          -22 35 42 -11 50 hhcurveto
          162 19 109 165 hvcurveto
          275 -32 -275 vlineto
          -154 -16 -90 -133 -46 -40 12 17 -29 vhcurveto
          endchar
        </CharString>
        <CharString name="Jcircumflex">
          -98 -11 33 688 -20 228 -20 hstem
          354 34 vstem
          286 826 -101 callsubr
          -246 -808 rmoveto
          -86 callgsubr
          endchar
        </CharString>
        <CharString name="K">
          54 17 callsubr
          vstem
          131 hmoveto
          -22 callgsubr
        </CharString>
        <CharString name="K.sc">
          -27 21 -21 541 61 callgsubr
          92 32 hintmask 10110000
          124 hmoveto
          168 vlineto
          126 116 242 -284 rlineto
          37 hlineto
          -258 305 247 237 rlineto
          -40 hlineto
          -354 -335 rlineto
          hintmask 11010000
          334 -32 -541 vlineto
          endchar
        </CharString>
        <CharString name="Kcommaaccent">
          54 5 callgsubr
          710 -20 hstem
          96 35 167 37 vstem
          318 -87 callsubr
          -167 176 rmoveto
          -22 callgsubr
        </CharString>
        <CharString name="L">
          7 0 -1 callsubr
          96 35 vstem
          566 hmoveto
          -28 callsubr
          endchar
        </CharString>
        <CharString name="L.sc">
          -73 0 30 512 -20 hstem
          92 32 vstem
          478 hmoveto
          30 -354 512 -32 -542 vlineto
          endchar
        </CharString>
        <CharString name="Lacute">
          7 0 32 678 -20 228 -20 hstem
          96 35 vstem
          409 918 -95 callgsubr
          240 -826 rmoveto
          -28 callsubr
          endchar
        </CharString>
        <CharString name="Lcaron">
          7 0 32 698 -20 hstem
          96 35 vstem
          446 730 -95 callgsubr
          203 -638 rmoveto
          -28 callsubr
          endchar
        </CharString>
        <CharString name="Lcommaaccent">
          7 -155 -21 176 -1 callsubr
          96 35 179 37 vstem
          330 -87 callsubr
          256 176 rmoveto
          -28 callsubr
          endchar
        </CharString>
        <CharString name="Ldot">
          7 0 -1 callsubr
          96 35 235 31 vstem
          566 hmoveto
          -28 callsubr
          301 357 rmoveto
          91 -31 -91 vlineto
          endchar
        </CharString>
        <CharString name="Lslash">
          14 0 -1 callsubr
          103 35 vstem
          573 hmoveto
          32 -435 282 vlineto
          194 185 -16 22 -178 -169 rlineto
          358 -35 -391 vlineto
          -78 -73 17 -23 61 58 rlineto
          -281 vlineto
          endchar
        </CharString>
        <CharString name="M">
          309 -39 callsubr
        </CharString>
        <CharString name="M.sc">
          181 32 callgsubr
          92 32 506 33 vstem
          663 hmoveto
          542 -31 vlineto
          -254 -396 -255 396 rlineto
          -31 -542 32 480 hlineto
          243 -376 rlineto
          21 hlineto
          242 376 rlineto
          -480 vlineto
          endchar
        </CharString>
        <CharString name="N">
          202 17 callsubr
          513 35 vstem
          645 hmoveto
          -78 callsubr
          endchar
        </CharString>
        <CharString name="N.sc">
          93 21 -21 541 61 callgsubr
          92 32 418 32 hintmask 11011000
          543 hmoveto
          31 541 -32 -487 hlineto
          hintmask 10111000
          -426 488 rlineto
          -24 -542 32 481 hlineto
          endchar
        </CharString>
        <CharString name="NULL">
          -573 endchar
        </CharString>
        <CharString name="Nacute">
          202 -77 callsubr
          228 -20 hstem
          96 35 513 35 vstem
          467 918 -95 callgsubr
          261 -826 rmoveto
          -78 callsubr
          endchar
        </CharString>
        <CharString name="Ncaron">
          202 -77 callsubr
          228 -20 hstem
          96 35 513 35 vstem
          285 904 -92 callsubr
          338 -918 rmoveto
          -78 callsubr
          endchar
        </CharString>
        <CharString name="Ncommaaccent">
          202 5 callgsubr
          710 -20 hstem
          96 35 240 37 236 35 vstem
          391 -87 callsubr
          274 176 rmoveto
          -78 callsubr
          endchar
        </CharString>
        <CharString name="Ndotaccent">
          202 -77 callsubr
          228 -20 hstem
          96 35 245 32 236 35 vstem
          408 835 rmoveto
          83 -32 -83 vlineto
          269 -835 rmoveto
          -78 callsubr
          endchar
        </CharString>
        <CharString name="Ntilde">
          202 -77 callsubr
          154 -25 callgsubr
          96 35 513 35 hintmask 11101110
          645 hmoveto
          -78 callsubr
          322 200 -85 callgsubr
          hintmask 11110110
          -98 callgsubr
        </CharString>
        <CharString name="O">
          182 -5 53 callsubr
          593 35 vstem
          -85 callsubr
          endchar
        </CharString>
        <CharString name="O.sc">
          74 -4 31 488 30 hstem
          50 32 483 32 vstem
          324 -4 rmoveto
          155 118 130 145 22 callgsubr
          -139 111 -136 163 hvcurveto
          -242 275 rmoveto
          120 97 124 145 138 103 -117 -127 -120 -96 -124 -145 -141 -101 117 127 vhcurveto
          endchar
        </CharString>
        <CharString name="OE">
          618 -5 37 -11 -21 347 32 299 32 5 -20 hstemhm
          46 35 594 34 hintmask 10110110
          709 32 rmoveto
          315 370 32 -370 299 424 32 -458 -219 vlineto
          hintmask 10101110
          123 -44 -110 101 -143 hhcurveto
          -188 -144 -171 -189 -182 136 -178 198 136 113 98 125 46 hvcurveto
          hintmask 01110110
          -218 467 vlineto
          hintmask 10110110
          32 vlineto
          -764 -4 rmoveto
          -173 -124 157 170 162 119 165 178 169 127 -157 -169 -163 -118 -165 -178 hvcurveto
          endchar
        </CharString>
        <CharString name="Oacute">
          -11 callsubr
          453 918 -95 callgsubr
          8 -831 -107 callsubr
          endchar
        </CharString>
        <CharString name="Obreve">
          -44 callsubr
          119 22 62 -20 hstem
          46 35 216 162 215 35 vstem
          -85 callsubr
          297 501 -94 callsubr
        </CharString>
        <CharString name="Ocircumflex">
          -11 callsubr
          293 826 -101 callsubr
          107 -846 -107 callsubr
          endchar
        </CharString>
        <CharString name="Odblgrave">
          -44 callsubr
          -33 236 31 callgsubr
          hintmask 10111000
          432 826 -90 callsubr
          136 -923 -60 callsubr
        </CharString>
        <CharString name="Odieresis">
          -44 callsubr
          120 82 hstem
          46 35 219 31 95 31 217 35 vstem
          331 835 -88 callgsubr
          -48 -840 -107 callsubr
          endchar
        </CharString>
        <CharString name="Odotbelow">
          182 -117 -21 133 53 callsubr
          280 32 281 35 vstem
          393 2 callsubr
          17 133 -107 callsubr
          endchar
        </CharString>
        <CharString name="Ograve">
          -11 callsubr
          -85 callsubr
          305 471 -78 callgsubr
        </CharString>
        <CharString name="Ohungarumlaut">
          -44 callsubr
          -33 236 31 callgsubr
          hintmask 10111000
          397 918 -56 callsubr
          -44 -831 -60 callsubr
        </CharString>
        <CharString name="Oinvertedbreve">
          -44 callsubr
          181 22 hstem
          46 35 214 162 217 35 vstem
          376 896 -96 callgsubr
          2 -901 -107 callsubr
          endchar
        </CharString>
        <CharString name="Omacron">
          -44 callsubr
          152 28 hstem
          38 callsubr
          vstem
          520 867 rmoveto
          28 -283 -28 vlineto
          141 -872 -107 callsubr
          endchar
        </CharString>
        <CharString name="Omega">
          -73 callsubr
        </CharString>
        <CharString name="Oogonek">
          182 -147 -21 164 32 47 callgsubr
          205 26 362 35 vstem
          345 -168 -53 callgsubr
          59 40 vhcurveto
          180 8 136 165 186 vvcurveto
          177 -134 183 -197 -188 -144 -171 -189 -176 126 -170 185 -13 vhcurveto
          12 callsubr
          -264 523 rmoveto
          162 119 165 178 169 127 -157 -170 -161 -118 -166 -178 -173 -124 157 170 vhcurveto
          endchar
        </CharString>
        <CharString name="Oslash">
          26 callgsubr
          -5 -20 31 callgsubr
          hintmask 10011100
          587 9 callgsubr
          -33 -51 rlineto
          hintmask 01101100
          -3 callsubr
          hintmask 10011100
          -43 callgsubr
          hintmask 10101100
          6 callgsubr
          endchar
        </CharString>
        <CharString name="Oslashacute">
          26 callgsubr
          -5 -20 228 -20 31 callgsubr
          hintmask 10011110
          587 9 callgsubr
          -33 -51 rlineto
          hintmask 01101110
          -3 callsubr
          hintmask 10011110
          -43 callgsubr
          hintmask 10101110
          6 callgsubr
          372 563 -21 callsubr
        </CharString>
        <CharString name="Otilde">
          -44 callsubr
          129 26 12 27 9 -20 31 callgsubr
          hintmask 11101110
          -85 callsubr
          358 489 -85 callgsubr
          hintmask 11110110
          -98 callgsubr
        </CharString>
        <CharString name="P">
          -48 callgsubr
        </CharString>
        <CharString name="P.sc">
          -35 21 -21 207 30 275 30 hstem
          92 32 344 33 vstem
          124 hmoveto
          207 214 vlineto
          97 66 82 86 82 -71 85 -98 hvcurveto
          -240 -542 hlineto
          32 512 rmoveto
          207 hlineto
          76 61 -65 -72 -70 -49 -68 -82 hvcurveto
          -213 hlineto
          endchar
        </CharString>
        <CharString name="Q">
          26 callgsubr
          31 callgsubr
          hintmask 01111000
          640 hmoveto
          38 hlineto
          -75 92 rlineto
          65 67 41 95 101 vvcurveto
          177 -134 183 -197 -188 -144 -171 -189 vhcurveto
          hintmask 10111000
          -182 135 -177 197 -1 vhcurveto
          77 71 29 48 55 hvcurveto
          hintmask 01111000
          hintmask 10111000
          -203 -44 rmoveto
          -173 -124 157 170 162 119 165 178 169 127 -157 -170 -86 -34 -88 -59 -63 hvcurveto
          -62 77 rlineto
          -37 hlineto
          78 -97 rlineto
          -43 -48 -62 -27 -72 hhcurveto
          endchar
        </CharString>
        <CharString name="Q.sc">
          74 -4 31 -6 -21 516 29 hstemhm
          50 32 483 32 hintmask 01111000
          539 hmoveto
          35 hlineto
          -63 72 rlineto
          53 51 33 72 76 vvcurveto
          22 callgsubr
          vhcurveto
          hintmask 10111000
          -139 111 -136 163 64 58 22 36 45 vhcurveto
          hintmask 01111000
          hintmask 10111000
          -167 -27 rmoveto
          -141 -101 117 127 120 97 125 145 138 103 -118 -127 -64 -27 -65 -47 -47 hvcurveto
          -51 59 rlineto
          -35 hlineto
          66 -76 rlineto
          -31 -39 -51 -20 -57 hhcurveto
          endchar
        </CharString>
        <CharString name="R">
          72 48 callsubr
          426 34 vstem
          131 hmoveto
          -98 callsubr
          endchar
        </CharString>
        <CharString name="R.sc">
          -14 0 237 -30 30 275 30 hstemhm
          92 32 346 33 hintmask 10111000
          124 hmoveto
          hintmask 01111000
          207 202 vlineto
          hintmask 10111000
          143 -207 rlineto
          38 hlineto
          -146 212 rlineto
          84 9 58 73 81 vvcurveto
          82 -71 85 -98 vhcurveto
          -242 -542 hlineto
          32 512 rmoveto
          208 hlineto
          78 60 -66 -71 -70 -52 -68 -80 hvcurveto
          -214 hlineto
          endchar
        </CharString>
        <CharString name="Racute">
          72 -20 callgsubr
          210 -20 hstem
          96 35 426 34 vstem
          391 920 -95 callgsubr
          -177 -828 rmoveto
          -98 callsubr
          endchar
        </CharString>
        <CharString name="Rcaron">
          72 -20 callgsubr
          210 -20 hstem
          96 35 426 34 vstem
          209 906 -92 callsubr
          -100 -920 rmoveto
          -98 callsubr
          endchar
        </CharString>
        <CharString name="Rcommaaccent">
          72 -155 -21 197 -9 callgsubr
          hstem
          96 35 167 37 222 34 vstem
          318 -87 callsubr
          -167 176 rmoveto
          -98 callsubr
          endchar
        </CharString>
        <CharString name="Rdblgrave">
          72 -20 callgsubr
          -32 240 hstemhm
          96 35 426 34 hintmask 11011100
          379 826 -90 callsubr
          -58 -918 rmoveto
          274 248 vlineto
          176 -274 rlineto
          40 hlineto
          -178 278 rlineto
          103 11 71 96 108 vvcurveto
          hintmask 11101100
          107 -85 110 -118 vhcurveto
          -292 -710 hlineto
          35 678 rmoveto
          256 hlineto
          94 76 -89 -96 -94 -63 -93 -100 hvcurveto
          -263 hlineto
          endchar
        </CharString>
        <CharString name="Rdotbelow">
          72 -117 -21 159 -9 callgsubr
          hstem
          96 35 178 32 216 34 vstem
          131 hmoveto
          -98 callsubr
          210 -444 -70 callgsubr
        </CharString>
        <CharString name="Rinvertedbreve">
          72 -20 callgsubr
          186 22 hstem
          96 35 109 162 155 34 vstem
          321 896 -96 callgsubr
          -190 -896 rmoveto
          -98 callsubr
          endchar
        </CharString>
        <CharString name="S">
          30 -5 30 658 32 54 callsubr
          527 631 -105 callsubr
          endchar
        </CharString>
        <CharString name="S.sc">
          -49 -4 28 493 28 hstem
          64 33 351 33 vstem
          449 482 rmoveto
          44 -47 -56 19 -76 hhcurveto
          -122 -84 -52 -95 -91 68 -26 128 -24 hvcurveto
          128 -24 60 -26 -74 vvcurveto
          -74 -69 -35 -104 -89 -70 28 50 -53 vhcurveto
          -19 -25 rlineto
          -54 64 73 -27 93 hhcurveto
          126 81 47 94 97 -80 27 -127 24 hvcurveto
          -124 24 -53 20 70 vvcurveto
          72 52 46 122 69 50 -18 -43 42 vhcurveto
          endchar
        </CharString>
        <CharString name="Sacute">
          -6 callsubr
          384 938 -95 callgsubr
          226 -215 -105 callsubr
          endchar
        </CharString>
        <CharString name="Scaron">
          -6 callsubr
          203 924 -92 callsubr
          302 -307 -105 callsubr
          endchar
        </CharString>
        <CharString name="Schwa">
          165 -9 34 310 33 313 34 hstem
          32 38 584 38 vstem
          366 -9 rmoveto
          181 145 159 197 202 -149 166 -182 -121 -117 -72 -97 -40 hvcurveto
          34 -15 rlineto
          90 35 102 60 103 hhcurveto
          156 128 -134 -179 13 hvcurveto
          -622 -17 hlineto
          -199 145 -161 189 vhcurveto
          -2 34 rmoveto
          -159 -123 130 180 -12 hvcurveto
          585 hlineto
          -178 -9 -124 -132 -158 hhcurveto
          endchar
        </CharString>
        <CharString name="Scircumflex">
          -6 callsubr
          225 846 -101 callsubr
          324 -230 -105 callsubr
          endchar
        </CharString>
        <CharString name="Sdotbelow">
          30 -117 -21 133 30 658 32 hstem
          62 35 199 32 204 35 vstem
          527 631 -105 callsubr
          -180 -743 -70 callgsubr
        </CharString>
        <CharString name="T">
          30 56 callgsubr
          hstem
          284 35 vstem
          585 710 -41 callgsubr
        </CharString>
        <CharString name="T.sc">
          -53 21 -21 512 30 hstem
          244 32 vstem
          495 542 rmoveto
          -470 -30 219 -512 32 512 219 hlineto
          endchar
        </CharString>
        <CharString name="Tbar">
          67 21 -21 393 25 260 32 hstem
          303 35 vstem
          604 9 callgsubr
          -567 -32 266 -260 -236 -25 236 -393 35 393 235 25 -235 260 266 hlineto
          endchar
        </CharString>
        <CharString name="Tcaron">
          30 56 callgsubr
          208 -20 hstem
          284 35 vstem
          195 904 -92 callsubr
          368 -208 -41 callgsubr
        </CharString>
        <CharString name="Tdotbelow">
          30 31 callsubr
          678 32 hstem
          284 35 vstem
          317 2 callsubr
          300 848 -41 callgsubr
        </CharString>
        <CharString name="Thorn">
          27 21 -21 127 32 371 33 147 -20 hstem
          96 35 405 34 vstem
          367 563 rmoveto
          -236 147 -35 -710 35 127 243 hlineto
          117 79 106 112 107 -85 111 -118 hvcurveto
          6 -404 rmoveto
          -242 371 235 hlineto
          94 76 -88 -97 -92 -62 -94 -101 hvcurveto
          endchar
        </CharString>
        <CharString name="U">
          183 -5 33 682 -42 callgsubr
          endchar
        </CharString>
        <CharString name="U.sc">
          76 -4 31 515 -20 hstem
          82 32 421 32 vstem
          324 27 rmoveto
          -162 -48 120 123 hvcurveto
          272 -32 -272 vlineto
          -137 57 -137 186 180 62 129 145 vhcurveto
          272 -32 -272 vlineto
          -120 -46 -123 -165 vhcurveto
          endchar
        </CharString>
        <CharString name="Uacute">
          -11 callgsubr
          454 918 -95 callgsubr
          7 -798 rmoveto
          -28 callgsubr
        </CharString>
        <CharString name="Ubreve">
          -37 callgsubr
          144 22 62 -20 hstem
          85 35 178 162 177 34 vstem
          -92 callgsubr
          1 828 -94 callsubr
        </CharString>
        <CharString name="Ucircumflex">
          -11 callgsubr
          294 826 -101 callsubr
          106 -813 rmoveto
          -28 callgsubr
        </CharString>
        <CharString name="Udblgrave">
          -11 callgsubr
          440 826 -90 callsubr
          128 -890 rmoveto
          -28 callgsubr
        </CharString>
        <CharString name="Udieresis">
          -37 callgsubr
          145 82 hstem
          85 35 180 31 95 31 180 34 vstem
          331 835 -88 callgsubr
          -48 -807 rmoveto
          -28 callgsubr
        </CharString>
        <CharString name="Udotbelow">
          183 -117 -21 133 8 callsubr
          hstem
          85 35 246 32 239 34 vstem
          -92 callgsubr
          20 -166 -70 callgsubr
        </CharString>
        <CharString name="Ugrave">
          -49 callgsubr
          9 798 -78 callgsubr
        </CharString>
        <CharString name="Uhungarumlaut">
          -49 callgsubr
          20 890 -56 callsubr
          endchar
        </CharString>
        <CharString name="Uinvertedbreve">
          -37 callgsubr
          206 22 hstem
          85 35 177 162 178 34 vstem
          378 896 -96 callgsubr
          -868 -31 callgsubr
        </CharString>
        <CharString name="Umacron">
          -37 callgsubr
          177 28 -74 callgsubr
          142 839 -33 callgsubr
        </CharString>
        <CharString name="Uogonek">
          184 -147 -21 164 32 682 -20 hstem
          85 35 166 26 325 34 vstem
          378 28 rmoveto
          -200 -58 162 164 hvcurveto
          356 -35 -356 vlineto
          -173 64 -174 208 -11 vhcurveto
          -50 -37 -21 -30 -32 19 callgsubr
          21 25 60 40 vhcurveto
          207 6 71 167 185 vvcurveto
          356 -34 -356 vlineto
          -160 -55 -166 -204 vhcurveto
          endchar
        </CharString>
        <CharString name="Uring">
          -37 callgsubr
          109 119 hstem
          85 35 197 21 81 21 197 34 vstem
          317 859 -65 callgsubr
          61 40 -69 callgsubr
          -871 -31 callgsubr
        </CharString>
        <CharString name="Utilde">
          -37 callgsubr
          154 -25 callgsubr
          85 35 517 34 hintmask 11101110
          -92 callgsubr
          62 816 -85 callgsubr
          hintmask 11110110
          -98 callgsubr
        </CharString>
        <CharString name="V">
          105 -77 callsubr
          hstem
          17 9 callgsubr
          305 -710 rlineto
          34 hlineto
          305 710 rlineto
          -37 hlineto
          -285 -667 -286 667 rlineto
          endchar
        </CharString>
        <CharString name="V.sc">
          10 32 callgsubr
          25 542 rmoveto
          251 -542 rlineto
          31 hlineto
          252 542 rlineto
          -35 hlineto
          -232 -498 -233 498 rlineto
          endchar
        </CharString>
        <CharString name="W">
          467 -77 callsubr
          hstem
          500 411 -94 callgsubr
          endchar
        </CharString>
        <CharString name="W.alt">
          464 -77 callsubr
          hstem
          972 9 callgsubr
          -210 -663 -230 663 rlineto
          -37 hlineto
          -220 -663 -211 663 rlineto
          -37 hlineto
          228 -710 rlineto
          37 hlineto
          223 654 231 -654 rlineto
          36 hlineto
          229 710 rlineto
          endchar
        </CharString>
        <CharString name="W.sc">
          313 32 callgsubr
          423 311 rmoveto
          -127 -271 -235 502 rlineto
          -35 hlineto
          253 -542 rlineto
          31 hlineto
          133 284 133 -284 rlineto
          31 hlineto
          253 542 rlineto
          -36 hlineto
          -234 -502 -129 271 104 227 rlineto
          -32 hlineto
          -91 -199 -90 199 rlineto
          -32 hlineto
          endchar
        </CharString>
        <CharString name="Wacute">
          467 -77 callsubr
          228 -20 hstem
          594 918 -95 callgsubr
          -11 -415 -94 callgsubr
          endchar
        </CharString>
        <CharString name="Wcircumflex">
          467 -77 callsubr
          228 -20 hstem
          434 826 -101 callsubr
          88 -430 -94 callgsubr
          endchar
        </CharString>
        <CharString name="Wdieresis">
          467 -77 callsubr
          145 82 hstem
          441 31 95 31 vstem
          472 835 -88 callgsubr
          -67 -424 -94 callgsubr
          endchar
        </CharString>
        <CharString name="Wgrave">
          467 -77 callsubr
          228 -20 hstem
          500 411 -94 callgsubr
          153 122 -78 callgsubr
        </CharString>
        <CharString name="X">
          -42 callsubr
        </CharString>
        <CharString name="X.sc">
          -33 32 callgsubr
          19 542 rmoveto
          232 -275 -225 -267 rlineto
          38 hlineto
          206 243 207 -243 rlineto
          37 hlineto
          -225 267 232 275 rlineto
          -38 hlineto
          -213 -250 -213 250 rlineto
          endchar
        </CharString>
        <CharString name="Y">
          71 -77 callsubr
          hstem
          304 35 vstem
          -84 callgsubr
          endchar
        </CharString>
        <CharString name="Y.sc">
          -19 32 callgsubr
          260 33 vstem
          28 542 rmoveto
          232 -335 rlineto
          -207 33 206 vlineto
          235 336 rlineto
          -37 hlineto
          -214 -305 -213 305 rlineto
          endchar
        </CharString>
        <CharString name="Yacute">
          71 -77 callsubr
          228 -20 hstem
          304 35 vstem
          -84 callgsubr
          336 208 -21 callsubr
        </CharString>
        <CharString name="Ycircumflex">
          71 -77 callsubr
          228 -20 hstem
          304 35 vstem
          -84 callgsubr
          176 116 -45 callgsubr
        </CharString>
        <CharString name="Ydieresis">
          71 -77 callsubr
          145 82 hstem
          243 31 30 35 30 31 cntrmask 00011100
          -84 callgsubr
          214 125 6 callsubr
        </CharString>
        <CharString name="Ygrave">
          71 -77 callsubr
          228 -20 hstem
          304 35 vstem
          -84 callgsubr
          269 116 -78 callgsubr
        </CharString>
        <CharString name="Ytilde">
          71 -77 callsubr
          154 -25 callgsubr
          304 35 hintmask 11101100
          -84 callgsubr
          322 134 -85 callgsubr
          hintmask 11110100
          -98 callgsubr
        </CharString>
        <CharString name="Z">
          52 37 callsubr
          hstem
          29 hmoveto
          -81 callsubr
          endchar
        </CharString>
        <CharString name="Z.sc">
          -29 0 30 482 30 hstem
          38 hmoveto
          465 30 -425 hlineto
          428 484 rlineto
          28 -464 -30 424 vlineto
          -428 -484 rlineto
          endchar
        </CharString>
        <CharString name="Zacute">
          52 -5 callsubr
          405 918 -95 callgsubr
          -293 -826 rmoveto
          -81 callsubr
          endchar
        </CharString>
        <CharString name="Zcaron">
          52 -5 callsubr
          223 -29 callsubr
          endchar
        </CharString>
        <CharString name="Zdotaccent">
          52 -5 callsubr
          314 32 vstem
          29 hmoveto
          -81 callsubr
          317 805 -70 callgsubr
        </CharString>
        <CharString name="Zdotbelow">
          52 -117 -21 138 32 646 32 hstem
          303 32 vstem
          29 hmoveto
          -81 callsubr
          306 -168 -70 callgsubr
        </CharString>
        <CharString name="a">
          -75 callgsubr
          4 callgsubr
          hintmask 10111100
          -79 callsubr
          hintmask 01111100
          -24 18 -19 22 2 4 0 1 4 5 callsubr
          7 15 hvcurveto
          272 vlineto
          124 -76 78 -120 -57 -62 -23 -45 -66 vhcurveto
          16 -25 rlineto
          41 57 59 23 51 hhcurveto
          99 65 -68 -103 hvcurveto
          -56 vlineto
          18 -48 -63 10 -58 hhcurveto
          -126 -89 -62 -88 hvcurveto
          hintmask 10111100
          -103 callsubr
          endchar
        </CharString>
        <CharString name="a.alt">
          38 53 callgsubr
          hstemhm
          44 35 417 34 hintmask 10111000
          291 -10 rmoveto
          89 74 52 73 42 hvcurveto
          hintmask 01111000
          -115 34 517 -34 -116 vlineto
          73 -41 -73 54 -92 hhcurveto
          -136 -110 -124 -146 hvcurveto
          hintmask 10111000
          -137 101 -131 146 vhcurveto
          205 180 rmoveto
          -81 -32 -72 -67 -97 hhcurveto
          -126 -90 112 124 114 86 124 130 91 77 -65 -84 33 hvcurveto
          endchar
        </CharString>
        <CharString name="a.alt2">
          -42 -10 29 2 -21 274 26 199 29 hstemhm
          38 33 350 34 hintmask 01111100
          455 hmoveto
          326 vlineto
          115 -67 87 -128 -67 -63 -31 -37 -55 vhcurveto
          15 -25 rlineto
          41 58 59 23 51 hhcurveto
          100 63 -70 -101 hvcurveto
          -56 vlineto
          11 -27 -60 17 -81 hhcurveto
          -94 -121 -39 -111 hvcurveto
          hintmask 10111100
          -90 74 -70 95 80 84 30 66 51 vhcurveto
          hintmask 01111100
          -86 vlineto
          -16 106 rmoveto
          hintmask 10111100
          -60 -39 -83 -27 -72 hhcurveto
          -74 -67 53 79 92 103 31 82 55 56 -9 -21 54 hvcurveto
          -98 vlineto
          -12 -5 -14 -10 -14 vhcurveto
          endchar
        </CharString>
        <CharString name="aacute">
          -75 callgsubr
          202 -20 4 callgsubr
          hintmask 10111110
          -79 callsubr
          hintmask 01111110
          -24 18 -19 22 2 4 0 1 4 5 callsubr
          7 15 hvcurveto
          272 vlineto
          124 -76 78 -120 -57 -62 -23 -45 -66 vhcurveto
          16 -25 rlineto
          41 57 59 23 51 hhcurveto
          99 65 -68 -103 hvcurveto
          -56 vlineto
          18 -48 -63 10 -58 hhcurveto
          -126 -89 -62 -88 hvcurveto
          hintmask 10111110
          -103 callsubr
          123 711 -21 callsubr
        </CharString>
        <CharString name="abreve">
          -75 callgsubr
          118 22 62 -20 hstemhm
          37 33 108 162 81 34 hintmask 1011111110000000
          -79 callsubr
          hintmask 0111111110000000
          -24 18 -19 22 2 4 0 1 4 5 callsubr
          7 15 hvcurveto
          272 vlineto
          124 -76 78 -120 -57 -62 -23 -45 -66 vhcurveto
          16 -25 rlineto
          41 57 59 23 51 hhcurveto
          99 65 -68 -103 hvcurveto
          -56 vlineto
          18 -48 -63 10 -58 hhcurveto
          -126 -89 -62 -88 hvcurveto
          hintmask 1011111110000000
          -103 callsubr
          48 649 -94 callsubr
        </CharString>
        <CharString name="acircumflex">
          -75 callgsubr
          202 -20 4 callgsubr
          hintmask 10111110
          -79 callsubr
          hintmask 01111110
          -24 18 -19 22 2 4 0 1 4 5 callsubr
          7 15 hvcurveto
          272 vlineto
          124 -76 78 -120 -57 -62 -23 -45 -66 vhcurveto
          16 -25 rlineto
          41 57 59 23 51 hhcurveto
          99 65 -68 -103 hvcurveto
          -56 vlineto
          18 -48 -63 10 -58 hhcurveto
          -126 -89 -62 -88 hvcurveto
          hintmask 10111110
          -103 callsubr
          -37 619 -45 callgsubr
        </CharString>
        <CharString name="acute">
          -368 -4 callsubr
          157 730 -21 callsubr
        </CharString>
        <CharString name="adblgrave">
          -75 callgsubr
          -29 231 4 callgsubr
          hintmask 10110110
          -79 callsubr
          hintmask 01110110
          -24 18 -19 22 2 4 0 1 4 5 callsubr
          7 15 hvcurveto
          272 vlineto
          124 -76 78 -120 -57 -62 -23 -45 -66 vhcurveto
          16 -25 rlineto
          41 57 59 23 51 hhcurveto
          99 65 -68 -103 hvcurveto
          -56 vlineto
          18 -48 -63 10 -58 hhcurveto
          -126 -89 -62 -88 hvcurveto
          hintmask 10101110
          -103 callsubr
          104 619 16 callgsubr
        </CharString>
        <CharString name="adieresis">
          -75 callgsubr
          119 82 hstemhm
          37 33 110 31 95 31 84 34 hintmask 1011111110000000
          -79 callsubr
          hintmask 0111111110000000
          -24 18 -19 22 2 4 0 1 4 5 callsubr
          7 15 hvcurveto
          272 vlineto
          124 -76 78 -120 -57 -62 -23 -45 -66 vhcurveto
          16 -25 rlineto
          41 57 59 23 51 hhcurveto
          99 65 -68 -103 hvcurveto
          -56 vlineto
          18 -48 -63 10 -58 hhcurveto
          -126 -89 -62 -88 hvcurveto
          hintmask 1011111110000000
          -103 callsubr
          628 vmoveto
          82 -31 -82 vlineto
          157 hmoveto
          82 -31 -82 vlineto
          endchar
        </CharString>
        <CharString name="ae">
          44 callgsubr
          58 callgsubr
          206 -10 rmoveto
          84 105 35 84 43 hvcurveto
          -72 45 77 -47 87 hhcurveto
          93 88 53 73 30 hvcurveto
          -31 8 rlineto
          -62 -28 -74 -43 -76 hhcurveto
          -116 -97 98 128 -9 hvcurveto
          468 hlineto
          1 1 12 1 vvcurveto
          149 -1 -110 120 -142 hhcurveto
          -87 -76 -48 -70 -43 hvcurveto
          74 -26 -64 44 -88 hhcurveto
          -57 -62 -23 -45 -66 hvcurveto
          15 -25 rlineto
          41 58 59 23 51 hhcurveto
          83 59 -49 -77 16 hvcurveto
          -12 -29 -7 -31 -2 -33 rrcurveto
          12 -43 -51 8 -48 hhcurveto
          -126 -89 -62 -88 -90 75 -70 94 hvcurveto
          5 50 callgsubr
          48 47 -7 -14 44 hvcurveto
          1 -39 9 -40 17 -33 -2 -11 -6 -13 -8 -11 rrcurveto
          -53 -35 -75 -34 -84 hhcurveto
          216 253 rmoveto
          130 6 92 96 118 hhcurveto
          118 92 -94 -132 9 hvcurveto
          endchar
        </CharString>
        <CharString name="aeacute">
          44 callgsubr
          202 -20 58 callgsubr
          513 730 -95 callgsubr
          -224 -648 rmoveto
          84 105 35 84 43 hvcurveto
          -72 45 77 -47 87 hhcurveto
          93 88 53 73 30 hvcurveto
          -31 8 rlineto
          -62 -28 -74 -43 -76 hhcurveto
          -116 -97 98 128 -9 hvcurveto
          468 hlineto
          1 1 12 1 vvcurveto
          149 -1 -110 120 -142 hhcurveto
          -87 -76 -48 -70 -43 hvcurveto
          74 -26 -64 44 -88 hhcurveto
          -57 -62 -23 -45 -66 hvcurveto
          15 -25 rlineto
          41 58 59 23 51 hhcurveto
          83 59 -49 -77 16 hvcurveto
          -12 -29 -7 -31 -2 -33 rrcurveto
          12 -43 -51 8 -48 hhcurveto
          -126 -89 -62 -88 -90 75 -70 94 hvcurveto
          5 50 callgsubr
          48 47 -7 -14 44 hvcurveto
          1 -39 9 -40 17 -33 -2 -11 -6 -13 -8 -11 rrcurveto
          -53 -35 -75 -34 -84 hhcurveto
          216 253 rmoveto
          130 6 92 96 118 hhcurveto
          118 92 -94 -132 9 hvcurveto
          endchar
        </CharString>
        <CharString name="afii61352">
          537 21 -21 355 27 304 28 -4 -20 hstemhm
          96 35 513 35 58 32 290 32 hintmask 11011111
          645 hmoveto
          34 709 -35 -654 hlineto
          -522 655 rlineto
          -26 -710 35 644 hlineto
          782 -289 rmoveto
          102 76 83 96 hvcurveto
          hintmask 11101111
          40 callsubr
          vhcurveto
          7 callsubr
        </CharString>
        <CharString name="agrave">
          -75 callgsubr
          202 -20 4 callgsubr
          hintmask 10111110
          -79 callsubr
          hintmask 01111110
          -24 18 -19 22 2 4 0 1 4 5 callsubr
          7 15 hvcurveto
          272 vlineto
          124 -76 78 -120 -57 -62 -23 -45 -66 vhcurveto
          16 -25 rlineto
          41 57 59 23 51 hhcurveto
          99 65 -68 -103 hvcurveto
          -56 vlineto
          18 -48 -63 10 -58 hhcurveto
          -126 -89 -62 -88 hvcurveto
          hintmask 10111110
          -103 callsubr
          56 619 -78 callgsubr
        </CharString>
        <CharString name="ainvertedbreve">
          -75 callgsubr
          180 22 hstemhm
          37 33 108 162 81 34 hintmask 10111111
          -79 callsubr
          hintmask 01111111
          -24 18 -19 22 2 4 0 1 4 5 callsubr
          7 15 hvcurveto
          272 vlineto
          124 -76 78 -120 -57 -62 -23 -45 -66 vhcurveto
          16 -25 rlineto
          41 57 59 23 51 hhcurveto
          99 65 -68 -103 hvcurveto
          -56 vlineto
          18 -48 -63 10 -58 hhcurveto
          -126 -89 -62 -88 hvcurveto
          hintmask 10111111
          -103 callsubr
          48 689 1 callgsubr
        </CharString>
        <CharString name="amacron">
          -75 callgsubr
          151 28 4 callgsubr
          hintmask 10111110
          -79 callsubr
          hintmask 01111110
          -24 18 -19 22 2 4 0 1 4 5 callsubr
          7 15 hvcurveto
          272 vlineto
          124 -76 78 -120 -57 -62 -23 -45 -66 vhcurveto
          16 -25 rlineto
          41 57 59 23 51 hhcurveto
          99 65 -68 -103 hvcurveto
          -56 vlineto
          18 -48 -63 10 -58 hhcurveto
          -126 -89 -62 -88 hvcurveto
          hintmask 10111110
          -103 callsubr
          189 660 -33 callgsubr
        </CharString>
        <CharString name="ampersand">
          71 -10 29 2 -21 689 30 hstemhm
          51 34 22 33 259 32 108 31 hintmask 01111110
          635 hmoveto
          -125 129 rlineto
          38 61 22 74 76 vvcurveto
          -31 hlineto
          -68 -18 -66 -32 -55 vhcurveto
          -227 237 rlineto
          88 60 81 58 82 vvcurveto
          73 -65 58 -89 -96 -74 -69 -79 -49 28 -45 81 -85 vhcurveto
          -89 -60 -76 -60 -98 vvcurveto
          hintmask 10111110
          -117 107 -67 113 92 76 45 68 52 vhcurveto
          hintmask 01111110
          99 -103 rlineto
          hintmask 10111110
          -315 19 rmoveto
          -89 -101 50 103 86 69 57 82 56 hvcurveto
          235 -247 rlineto
          -64 -46 -68 -41 -82 hhcurveto
          -135 552 rmoveto
          65 59 53 78 70 52 -44 -59 -67 -62 -45 -96 -65 vhcurveto
          -84 89 -17 38 35 vvcurveto
          endchar
        </CharString>
        <CharString name="aogonek">
          -43 -143 -21 154 29 255 26 199 29 hstem
          37 33 295 26 30 34 vstem
          424 -36 callsubr
          32 vlineto
          -12 -6 7 15 hvcurveto
          272 vlineto
          124 -76 78 -120 -57 -62 -23 -45 -66 vhcurveto
          16 -25 rlineto
          41 57 59 23 51 hhcurveto
          99 65 -68 -103 hvcurveto
          -56 vlineto
          18 -48 -63 10 -58 hhcurveto
          -126 -89 -62 -88 -90 75 -70 95 88 80 36 62 48 hvcurveto
          -46 vlineto
          -16 8 -14 12 -8 vhcurveto
          -55 -39 -23 -31 -33 -38 callsubr
          -213 183 rmoveto
          -79 -62 58 74 74 75 49 110 59 55 -10 -20 52 hvcurveto
          -98 vlineto
          -69 -112 -58 -98 vhcurveto
          endchar
        </CharString>
        <CharString name="apostrophe">
          -26 -4 callsubr
          337 43 callgsubr
          endchar
        </CharString>
        <CharString name="approxequal">
          -146 201 30 12 29 11 29 13 29 hstem
          341 326 rmoveto
          -11 -12 -15 -3 -22 -58 -42 42 10 callgsubr
          10 12 16 hvcurveto
          -17 -61 rmoveto
          -11 -12 -15 -2 -22 -58 -42 41 10 callgsubr
          9 12 16 hvcurveto
          endchar
        </CharString>
        <CharString name="aring">
          -75 callgsubr
          -29 131 -19 119 -19 -20 hstemhm
          37 33 127 21 81 21 101 34 hintmask 1011010111100000
          -79 callsubr
          hintmask 0111010111100000
          -24 18 -19 22 2 4 0 1 4 5 callsubr
          7 15 hvcurveto
          272 vlineto
          124 -76 78 -120 -57 -62 -23 -45 -66 vhcurveto
          16 -25 rlineto
          41 57 59 23 51 hhcurveto
          99 65 -68 -103 hvcurveto
          -56 vlineto
          18 -48 -63 10 -58 hhcurveto
          -126 -89 -62 -88 hvcurveto
          hintmask 1011010111100000
          -103 callsubr
          -14 652 -65 callgsubr
          hintmask 1010101111100000
          61 40 -69 callgsubr
          endchar
        </CharString>
        <CharString name="aringacute">
          -75 callgsubr
          -29 131 -19 119 -19 -20 178 -20 hstemhm
          37 33 127 21 81 21 101 34 hintmask 1011010111110000
          -79 callsubr
          hintmask 0111010111110000
          -24 18 -19 22 2 4 0 1 4 5 callsubr
          7 15 hvcurveto
          272 vlineto
          124 -76 78 -120 -57 -62 -23 -45 -66 vhcurveto
          16 -25 rlineto
          41 57 59 23 51 hhcurveto
          99 65 -68 -103 hvcurveto
          -56 vlineto
          18 -48 -63 10 -58 hhcurveto
          -126 -89 -62 -88 hvcurveto
          hintmask 1011010111110000
          -103 callsubr
          123 850 -95 callgsubr
          -54 -106 -65 callgsubr
          hintmask 1010101111110000
          61 40 -69 callgsubr
          endchar
        </CharString>
        <CharString name="asciicircum">
          -58 324 -21 407 -20 hstem
          77 303 rmoveto
          181 368 178 -368 rlineto
          34 hlineto
          -197 407 rlineto
          -30 hlineto
          -198 -407 rlineto
          endchar
        </CharString>
        <CharString name="asciitilde">
          -97 248 27 33 27 hstem
          69 248 rmoveto
          27 hlineto
          2 21 58 43 vhcurveto
          43 45 -60 64 hhcurveto
          73 23 78 2 hvcurveto
          -26 1 rlineto
          -5 -21 -49 -49 vhcurveto
          -54 -42 60 -56 hhcurveto
          -66 -25 -80 -7 hvcurveto
          endchar
        </CharString>
        <CharString name="asterisk">
          -265 565 -21 167 -20 hstem
          141 25 vstem
          112 544 rmoveto
          42 59 41 -59 22 15 -43 58 67 22 -7 24 -68 -23 rlineto
          71 -25 -71 vlineto
          -67 23 -8 -24 68 -22 -42 -58 rlineto
          endchar
        </CharString>
        <CharString name="at">
          259 -146 24 106 25 1 27 205 25 157 27 128 24 hstem
          49 25 164 28 288 26 168 24 vstem
          414 603 rmoveto
          -189 -176 -153 -220 -213 164 -163 198 56 55 13 27 53 hvcurveto
          -11 22 rlineto
          -25 -48 -51 -13 -53 hhcurveto
          -188 -150 156 196 203 161 146 179 185 149 -158 -198 -81 -25 -133 -90 -45 -8 35 59 hvcurveto
          146 vlineto
          98 -17 104 -136 -60 -53 -21 -31 -46 vhcurveto
          13 -23 rlineto
          30 42 51 18 50 hhcurveto
          103 27 -74 -106 hvcurveto
          8 -23 -51 15 -59 hhcurveto
          -87 -96 -30 -97 -76 58 -54 90 69 63 33 39 35 hvcurveto
          -54 5 9 -44 64 hhcurveto
          130 11 180 58 216 -161 165 -197 hvcurveto
          68 -544 rmoveto
          -12 -25 -36 -10 -35 hhcurveto
          -64 -56 38 65 78 76 24 74 72 49 -23 -1 16 hvcurveto
          -45 vlineto
          -39 -8 -45 -63 -30 vhcurveto
          endchar
        </CharString>
        <CharString name="atilde">
          -75 callgsubr
          128 26 12 27 9 -20 4 callgsubr
          hintmask 1011110110000000
          -79 callsubr
          hintmask 0111110110000000
          -24 18 -19 22 2 4 0 1 4 5 callsubr
          7 15 hvcurveto
          272 vlineto
          124 -76 78 -120 -57 -62 -23 -45 -66 vhcurveto
          16 -25 rlineto
          41 57 59 23 51 hhcurveto
          99 65 -68 -103 hvcurveto
          -56 vlineto
          18 -48 -63 10 -58 hhcurveto
          -126 -89 -62 -88 hvcurveto
          hintmask 1011101110000000
          -103 callsubr
          109 637 -85 callgsubr
          hintmask 1011110110000000
          -98 callgsubr
        </CharString>
        <CharString name="b">
          42 callsubr
          81 34 414 34 hintmask 10111100
          314 -10 rmoveto
          140 109 126 142 131 -89 139 -151 -89 -68 -52 -74 -51 hvcurveto
          328 -34 vlineto
          hintmask 01111100
          -730 32 106 vlineto
          hintmask 10111100
          -66 41 78 -50 82 hhcurveto
          -5 32 rmoveto
          -77 -110 67 81 -7 hvcurveto
          181 vlineto
          77 38 71 68 94 hhcurveto
          125 86 -115 -123 -118 -92 -118 -128 hvcurveto
          endchar
        </CharString>
        <CharString name="backslash">
          -43 -77 callsubr
          hstem
          27 9 callgsubr
          436 -710 rlineto
          40 hlineto
          -435 710 rlineto
          endchar
        </CharString>
        <CharString name="bar">
          -357 -109 -21 905 -20 47 callsubr
          -130 rmoveto
          905 -32 -905 vlineto
          endchar
        </CharString>
        <CharString name="braceleft">
          60 callgsubr
          96 32 -32 87 hintmask 11101000
          183 709 rmoveto
          31 -64 vlineto
          -5 -18 -4 -26 hvcurveto
          -287 vlineto
          -11 -4 -36 -28 vhcurveto
          -30 vlineto
          24 -3 8 -24 -22 vvcurveto
          -298 vlineto
          -22 12 -8 11 vhcurveto
          64 31 hlineto
          hintmask 11110000
          -55 302 hlineto
          9 -1 31 -21 18 vhcurveto
          21 19 1 29 10 vvcurveto
          291 vlineto
          endchar
        </CharString>
        <CharString name="braceright">
          60 callgsubr
          54 87 -32 32 hintmask 11101000
          109 709 rmoveto
          -291 vlineto
          -10 2 -29 21 -19 vhcurveto
          -21 -18 -2 -31 -9 vvcurveto
          -302 vlineto
          hintmask 11110000
          -55 -31 64 hlineto
          11 12 8 22 hvcurveto
          298 vlineto
          22 9 24 24 3 vhcurveto
          30 vlineto
          -28 -5 36 11 hvcurveto
          287 vlineto
          26 -17 4 -6 vhcurveto
          -64 -31 hlineto
          endchar
        </CharString>
        <CharString name="bracketleft">
          57 callsubr
          94 33 -33 85 hintmask 11101000
          179 -40 rmoveto
          31 vlineto
          hintmask 11110000
          -52 718 hlineto
          hintmask 11101000
          52 31 -85 -780 hlineto
          endchar
        </CharString>
        <CharString name="bracketright">
          57 callsubr
          58 84 -32 32 hintmask 11110000
          142 -40 rmoveto
          780 -84 -31 vlineto
          hintmask 11101000
          52 -718 hlineto
          hintmask 11110000
          -52 -31 hlineto
          endchar
        </CharString>
        <CharString name="breve">
          -315 646 22 62 -20 hstem
          48 162 vstem
          129 668 -94 callsubr
        </CharString>
        <CharString name="brokenbar">
          -353 -109 -21 905 -20 hstem
          94 32 vstem
          94 283 rmoveto
          -413 32 413 vlineto
          -32 492 rmoveto
          -413 32 413 vlineto
          endchar
        </CharString>
        <CharString name="bullet">
          -230 262 163 hstem
          90 163 vstem
          253 344 rmoveto
          44 -36 37 -45 -45 -37 -37 -44 -46 37 -36 45 45 36 36 46 vhcurveto
          endchar
        </CharString>
        <CharString name="c">
          -32 -40 callsubr
          hstem
          44 34 vstem
          44 262 -99 callgsubr
          endchar
        </CharString>
        <CharString name="c_t">
          270 -10 37 -11 -21 501 32 -8 -20 226 25 hstemhm
          44 34 308 25 225 34 hintmask 10011111
          821 52 rmoveto
          -3 -6 -33 -22 -44 hhcurveto
          -34 -31 20 39 -3 hvcurveto
          404 124 30 -124 vlineto
          140 -1 2 91 -148 hhcurveto
          -89 -48 -60 -75 -54 29 -45 23 -35 hvcurveto
          hintmask 10101111
          29 -36 -47 17 -66 hhcurveto
          -146 -99 -130 -140 -134 105 -134 148 80 98 43 82 29 hvcurveto
          -34 10 rlineto
          -63 -17 -94 -40 -62 hhcurveto
          -52 callsubr
          115 78 123 133 74 63 -29 -69 38 hvcurveto
          32 12 rlineto
          -15 34 -70 101 70 vvcurveto
          60 34 51 73 vhcurveto
          hintmask 01011111
          118 0 -55 -151 hvcurveto
          -74 -30 74 -409 hlineto
          -54 45 -32 51 55 41 27 2 6 vhcurveto
          endchar
        </CharString>
        <CharString name="cacute">
          -32 -40 callsubr
          -9 callsubr
          34 vstem
          369 730 -95 callgsubr
          -242 -376 -99 callgsubr
          endchar
        </CharString>
        <CharString name="caron">
          -263 -4 callsubr
          48 716 -92 callsubr
          endchar
        </CharString>
        <CharString name="caron.alt">
          -368 -4 callsubr
          157 730 -21 callsubr
        </CharString>
        <CharString name="ccaron">
          -32 -40 callsubr
          -9 callsubr
          34 vstem
          187 716 -92 callsubr
          -165 -468 -99 callgsubr
          endchar
        </CharString>
        <CharString name="ccedilla">
          -32 32 callsubr
          40 31 474 32 hstem
          44 34 289 25 vstem
          210 -81 callgsubr
          27 45 89 4 83 51 24 70 rlinecurve
          -34 10 rlineto
          -55 -16 -82 -48 -77 hhcurveto
          -118 -99 109 131 132 95 102 121 73 64 -37 -61 33 hvcurveto
          33 12 rlineto
          73 -35 -75 45 -90 hhcurveto
          -145 -108 -117 -149 -143 103 -118 132 -10 hvcurveto
          -42 -75 -79 callgsubr
        </CharString>
        <CharString name="ccircumflex">
          -32 -40 callsubr
          -9 callsubr
          34 vstem
          209 638 -101 callsubr
          -143 -391 -99 callgsubr
          endchar
        </CharString>
        <CharString name="cdotaccent">
          -32 -40 callsubr
          -9 callsubr
          34 200 32 vstem
          44 262 -99 callgsubr
          266 385 -70 callgsubr
        </CharString>
        <CharString name="cedilla">
          -312 32 callsubr
          62 -20 hstem
          180 25 vstem
          23 -81 callgsubr
          34 56 -23 12 -55 -97 -79 callgsubr
        </CharString>
        <CharString name="cent">
          -26 -99 -21 110 32 473 33 117 -20 hstem
          45 35 196 25 vstem
          301 -120 rmoveto
          110 vlineto
          75 101 42 83 28 hvcurveto
          -34 10 -16 -62 -93 -40 -61 -1 rlinecurve
          474 vlineto
          69 -3 59 -30 36 -65 33 12 rcurveline
          -35 68 -60 47 -102 3 rrcurveto
          117 -25 -117 vlineto
          -138 -9 -93 -126 -135 vvcurveto
          -127 96 -129 135 -11 vhcurveto
          -111 vlineto
          -196 378 rmoveto
          110 71 119 125 8 vhcurveto
          -471 vlineto
          -112 12 -84 106 116 vvcurveto
          endchar
        </CharString>
        <CharString name="circumflex">
          -263 -4 callsubr
          70 638 -45 callgsubr
        </CharString>
        <CharString name="colon">
          -406 21 -21 517 -20 hstem
          68 31 vstem
          99 443 rmoveto
          74 -31 -74 vlineto
          31 -443 rmoveto
          74 -31 -74 vlineto
          endchar
        </CharString>
        <CharString name="colonmonetary">
          -32 -99 -21 131 -21 538 -20 137 -20 hstem
          43 34 154 25 68 25 vstem
          231 -120 rmoveto
          25 114 hlineto
          -3 13 14 -1 14 hhcurveto
          9 9 1 1 9 hvcurveto
          -112 25 116 vlineto
          72 15 61 45 20 59 -33 10 rcurveline
          -55 -16 -82 -48 -77 hhcurveto
          -118 -99 109 131 132 95 102 121 72 65 -37 -61 32 hvcurveto
          34 12 -29 58 -53 40 -65 14 rlinecurve
          123 -25 -119 vlineto
          1 -9 -10 1 -9 hhcurveto
          -14 -13 -1 -2 -13 hvcurveto
          120 -25 -126 vlineto
          -111 -29 -77 -103 -125 vvcurveto
          -125 79 -107 109 -30 vhcurveto
          endchar
        </CharString>
        <CharString name="comma">
          -323 -60 -21 96 -21 80 -20 hstem
          106 38 vstem
          127 -81 rmoveto
          17 75 rlineto
          80 -38 -80 13 vlineto
          -12 -75 rlineto
          endchar
        </CharString>
        <CharString name="commaaccent">
          -443 -155 -21 126 -20 hstem
          55 37 vstem
          75 -87 callsubr
          endchar
        </CharString>
        <CharString name="copyright">
          253 -7 24 109 31 398 32 104 24 hstem
          50 25 122 34 520 25 vstem
          -20 callsubr
          1 24 rmoveto
          -196 -143 144 193 194 144 143 195 194 143 -143 -196 -199 -147 -136 -190 hvcurveto
          6 109 rmoveto
          95 71 70 39 12 hvcurveto
          -32 9 rlineto
          -54 -24 -70 -33 -56 hhcurveto
          -81 -104 72 126 93 57 107 125 42 72 -13 -69 29 hvcurveto
          33 11 rlineto
          69 -27 -71 34 -78 hhcurveto
          -150 -66 -124 -108 -144 116 -85 107 hvcurveto
          endchar
        </CharString>
        <CharString name="currency">
          -39 152 -21 25 27 305 28 23 -20 hstem
          89 32 291 32 vstem
          81 539 rmoveto
          -20 -20 68 -68 rlineto
          -25 -32 -15 -40 -44 vvcurveto
          -44 16 -40 26 -32 vhcurveto
          -70 -69 19 -19 70 69 rlineto
          -27 31 39 -17 46 hhcurveto
          46 41 18 28 31 hvcurveto
          72 -71 20 19 -73 71 rlineto
          26 32 15 40 42 vvcurveto
          43 -15 39 -25 32 vhcurveto
          72 70 -21 20 -70 -70 rlineto
          29 -31 -41 18 -47 hhcurveto
          -46 -41 -17 -28 -30 hvcurveto
          -28 -137 rmoveto
          86 66 68 79 80 66 -67 -85 -83 -66 -70 -80 -79 -66 68 83 vhcurveto
          endchar
        </CharString>
        <CharString name="d">
          36 -10 14 callgsubr
          413 34 hintmask 10111100
          294 -10 -19 callgsubr
          hintmask 01111100
          -22 18 -22 24 38 callgsubr
          vhcurveto
          -74 callsubr
          hintmask 10111100
          -91 callsubr
        </CharString>
        <CharString name="d.alt">
          42 callsubr
          44 35 413 34 hintmask 01111100
          526 hmoveto
          730 -34 -328 vlineto
          68 -47 -68 58 -93 hhcurveto
          -138 -102 -126 -144 hvcurveto
          hintmask 10111100
          -135 105 -133 145 78 77 47 68 43 vhcurveto
          hintmask 01111100
          -105 vlineto
          172 vmoveto
          hintmask 10111100
          -81 -4 -112 -69 -78 hhcurveto
          -52 callsubr
          119 82 119 128 81 95 -65 -80 27 hvcurveto
          endchar
        </CharString>
        <CharString name="dagger">
          -192 -109 -21 385 32 488 -20 hstem
          175 33 vstem
          208 -130 rmoveto
          385 131 32 -131 488 -33 -488 -132 -32 132 -385 vlineto
          endchar
        </CharString>
        <CharString name="daggerdbl">
          -185 -109 -21 319 32 110 33 411 -20 hstem
          178 33 vstem
          211 -130 rmoveto
          319 131 32 -131 110 131 33 -131 411 -33 -411 -132 -33 132 -110 -132 -32 132 -319 vlineto
          endchar
        </CharString>
        <CharString name="dcaron">
          36 -10 14 callgsubr
          413 34 hintmask 10111100
          674 730 -95 callgsubr
          -297 -648 -19 callgsubr
          hintmask 01111100
          -22 18 -22 24 38 callgsubr
          vhcurveto
          -74 callsubr
          hintmask 10111100
          -91 callsubr
        </CharString>
        <CharString name="dcroat">
          36 -10 32 -2 -21 497 32 100 28 74 14 callsubr
          hintmask 10111110
          294 -10 -19 callgsubr
          hintmask 01111110
          -22 18 -22 24 38 callgsubr
          vhcurveto
          -75 callsubr
          574 74 28 -74 74 -34 -74 -121 -28 121 -226 vlineto
          68 -41 -74 58 -93 hhcurveto
          -138 -102 -126 -144 hvcurveto
          hintmask 10111110
          -91 callsubr
        </CharString>
        <CharString name="ddotbelow">
          36 -117 -21 128 14 callgsubr
          199 32 182 34 hintmask 11011111
          310 2 callsubr
          16 128 -19 callgsubr
          hintmask 10111111
          -22 18 -22 24 38 callgsubr
          vhcurveto
          -74 callsubr
          hintmask 11011111
          -91 callsubr
        </CharString>
        <CharString name="degree">
          -317 578 25 95 26 hstem
          55 25 96 25 vstem
          55 651 rmoveto
          -41 33 -32 40 41 32 32 41 41 -32 32 -41 -40 -33 -32 -41 vhcurveto
          39 34 rmoveto
          9 9 11 4 14 hhcurveto
          13 12 -4 -9 9 hvcurveto
          8 -9 6 -12 -13 vvcurveto
          -13 -6 -12 -8 -8 vhcurveto
          -9 -9 -12 -6 -13 hhcurveto
          -14 -11 6 9 -9 hvcurveto
          -9 8 -5 12 13 vvcurveto
          13 5 12 9 9 vhcurveto
          endchar
        </CharString>
        <CharString name="dieresis">
          -310 647 82 hstem
          53 31 95 31 vstem
          84 647 6 callsubr
        </CharString>
        <CharString name="divide">
          -30 108 -21 172 31 171 -20 hstem
          256 31 vstem
          287 389 rmoveto
          72 -31 -72 vlineto
          31 -302 rmoveto
          71 -31 -71 vlineto
          218 172 rmoveto
          31 -403 -31 vlineto
          endchar
        </CharString>
        <CharString name="dollar">
          42 -75 -21 91 30 657 32 101 -20 hstem
          69 35 195 23 217 35 vstem
          534 631 rmoveto
          -56 57 -67 26 -88 1 rrcurveto
          100 -25 -101 vlineto
          -139 -6 -90 -68 -120 vvcurveto
          -115 82 -33 148 -30 vhcurveto
          -317 vlineto
          -97 5 -76 35 -61 63 -21 -25 rcurveline
          71 -68 81 -35 102 -4 rrcurveto
          -92 25 91 vlineto
          153 98 63 119 125 -97 36 -155 32 hvcurveto
          313 vlineto
          82 -1 59 -21 52 -56 rrcurveto
          24 -432 rmoveto
          -99 -82 -49 -135 vhcurveto
          312 vlineto
          148 -31 69 -35 -98 vvcurveto
          -435 352 rmoveto
          91 58 61 137 5 vhcurveto
          -307 vlineto
          -137 29 -58 28 93 vvcurveto
          endchar
        </CharString>
        <CharString name="dotaccent">
          -441 668 -21 83 -20 hstem
          50 32 vstem
          82 647 -70 callgsubr
        </CharString>
        <CharString name="dotbelow">
          -441 -117 -21 83 -20 hstem
          50 32 vstem
          82 2 callsubr
          endchar
        </CharString>
        <CharString name="dotlessi">
          4 callsubr
          81 34 vstem
          115 hmoveto
          -46 callgsubr
          endchar
        </CharString>
        <CharString name="dotlessj">
          -173 32 661 -20 hstem
          81 34 vstem
          -24 -13 callsubr
          endchar
        </CharString>
        <CharString name="e">
          6 -10 29 226 29 224 30 -89 callgsubr
          endchar
        </CharString>
        <CharString name="eacute">
          -17 callsubr
          368 730 -95 callgsubr
          12 -648 -107 callgsubr
          endchar
        </CharString>
        <CharString name="ebreve">
          -71 callgsubr
          118 22 62 -20 hstem
          44 35 134 162 137 -104 callsubr
          -218 394 -94 callsubr
        </CharString>
        <CharString name="ecaron">
          -17 callsubr
          186 716 -92 callsubr
          89 -740 -107 callgsubr
          endchar
        </CharString>
        <CharString name="ecircumflex">
          -17 callsubr
          208 638 -101 callsubr
          111 -663 -107 callgsubr
          endchar
        </CharString>
        <CharString name="edblgrave">
          -71 callgsubr
          -30 232 hstemhm
          44 35 433 34 hintmask 11011100
          346 638 -90 callsubr
          141 -740 rmoveto
          93 89 53 73 29 hvcurveto
          -31 8 rlineto
          -102 callgsubr
          hintmask 11101100
          -93 callgsubr
          -149 112 -124 141 hvcurveto
          -218 284 rmoveto
          129 7 91 95 117 hhcurveto
          117 92 -93 -131 9 hvcurveto
          endchar
        </CharString>
        <CharString name="edieresis">
          -71 callgsubr
          119 82 hstem
          44 35 136 31 95 31 140 34 vstem
          246 647 -88 callgsubr
          -44 -657 -107 callgsubr
          endchar
        </CharString>
        <CharString name="edotaccent">
          -24 callsubr
          198 32 203 -104 callsubr
          -203 373 -70 callgsubr
        </CharString>
        <CharString name="edotbelow">
          6 -117 -21 128 59 callsubr
          201 32 200 -104 callsubr
          -200 -412 -70 callgsubr
        </CharString>
        <CharString name="egrave">
          6 -10 29 226 29 224 30 202 -20 -89 callgsubr
          -211 364 -78 callgsubr
        </CharString>
        <CharString name="eight">
          -82 callgsubr
        </CharString>
        <CharString name="eight.denominator">
          -186 -4 25 175 -36 callgsubr
          105 1 callsubr
          hintmask 11101100
          -68 callsubr
          hintmask 11110010
          -87 callgsubr
          hintmask 11101100
          -73 callgsubr
          endchar
        </CharString>
        <CharString name="eight.lnum">
          -82 callgsubr
        </CharString>
        <CharString name="eight.numerator">
          -186 338 26 174 -36 callgsubr
          448 -68 callgsubr
        </CharString>
        <CharString name="eightinferior">
          -186 -84 25 175 -36 callgsubr
          25 1 callsubr
          hintmask 11101100
          -68 callsubr
          hintmask 11110010
          -87 callgsubr
          hintmask 11101100
          -73 callgsubr
          endchar
        </CharString>
        <CharString name="eightsuperior">
          -186 418 26 174 -36 callgsubr
          528 -68 callgsubr
        </CharString>
        <CharString name="einvertedbreve">
          -71 callgsubr
          180 22 hstem
          44 35 133 162 138 34 vstem
          293 708 -96 callgsubr
          4 -718 -107 callgsubr
          endchar
        </CharString>
        <CharString name="ellipsis">
          -193 0 74 hstem
          68 31 75 31 76 31 vstem
          99 hmoveto
          74 -31 -74 vlineto
          137 hmoveto
          74 -31 -74 vlineto
          138 hmoveto
          74 -31 -74 vlineto
          endchar
        </CharString>
        <CharString name="emacron">
          -71 callgsubr
          151 28 -89 callgsubr
          -77 405 -33 callgsubr
        </CharString>
        <CharString name="emdash">
          311 255 33 hstem
          816 255 rmoveto
          33 -748 -33 vlineto
          endchar
        </CharString>
        <CharString name="emspace">
          336 endchar
        </CharString>
        <CharString name="endash">
          20 callsubr
        </CharString>
        <CharString name="eng">
          -3 -173 32 162 41 callgsubr
          hintmask 11101100
          356 -173 rmoveto
          66 73 59 82 hvcurveto
          326 vlineto
          -65 callsubr
          hintmask 11011100
          -50 callsubr
          hintmask 11101100
          98 28 97 73 94 hhcurveto
          88 39 -64 -142 hvcurveto
          -323 vlineto
          -61 -56 -47 -52 -27 -30 5 20 -23 vhcurveto
          -21 -22 rlineto
          -26 27 36 -9 41 hhcurveto
          endchar
        </CharString>
        <CharString name="enspace">
          -5 endchar
        </CharString>
        <CharString name="eogonek">
          6 -151 -21 162 59 callsubr
          136 26 271 34 vstem
          274 -172 rmoveto
          -64 callgsubr
          21 25 60 40 vhcurveto
          83 8 76 49 27 67 -31 8 rcurveline
          -102 callgsubr
          -93 callgsubr
          -145 105 -121 135 -7 hvcurveto
          -48 -36 -21 -29 17 callgsubr
          -195 446 rmoveto
          129 7 91 95 117 hhcurveto
          117 92 -93 -131 9 hvcurveto
          endchar
        </CharString>
        <CharString name="equal">
          -137 220 29 54 29 hstem
          366 220 rmoveto
          29 -296 -29 vlineto
          296 83 rmoveto
          29 -296 -29 vlineto
          endchar
        </CharString>
        <CharString name="estimated">
          36 -10 23 242 24 229 23 hstem
          46 79 370 78 vstem
          309 13 rmoveto
          -75 -66 36 56 -43 hvcurveto
          150 448 vlineto
          152 -108 124 -156 -155 -108 -125 -146 -145 106 -125 157 100 68 36 47 47 vhcurveto
          -16 18 rlineto
          -44 -38 -69 -34 -92 hhcurveto
          495 vmoveto
          73 69 -37 -58 44 hvcurveto
          -134 -370 135 vlineto
          57 43 66 37 75 hhcurveto
          endchar
        </CharString>
        <CharString name="eth">
          23 -10 32 422 31 255 -20 hstem
          46 35 432 34 vstem
          464 713 rmoveto
          -93 -61 -32 27 -36 25 -43 26 rlinecurve
          -49 hlineto
          54 -31 44 -31 37 -31 -117 -74 rcurveline
          14 -19 121 77 106 -96 32 -95 11 -92 rlinecurve
          80 -36 -85 57 -99 hhcurveto
          -135 -112 -111 -132 -132 112 -110 137 138 114 117 148 131 -25 129 -134 121 hvcurveto
          90 58 rlineto
          -397 -463 rmoveto
          116 98 97 118 117 99 -90 -109 -120 -99 -103 -119 -118 -96 94 115 vhcurveto
          endchar
        </CharString>
        <CharString name="etilde">
          -71 callgsubr
          128 -25 callgsubr
          44 35 433 34 hintmask 11110111
          -106 callsubr
          -158 382 -85 callgsubr
          hintmask 11111011
          -98 callgsubr
        </CharString>
        <CharString name="exclam">
          -338 21 -21 717 -20 hstem
          101 33 vstem
          134 208 rmoveto
          509 -33 -509 vlineto
          33 -208 rmoveto
          92 -33 -92 vlineto
          endchar
        </CharString>
        <CharString name="exclamdown">
          -338 20 -21 717 -20 hstem
          100 34 vstem
          100 508 rmoveto
          -509 34 509 vlineto
          -34 208 rmoveto
          -92 34 92 vlineto
          endchar
        </CharString>
        <CharString name="f">
          -265 21 -21 490 30 189 31 hstem
          102 34 vstem
          136 hmoveto
          490 152 30 -152 19 19 callsubr
          -39 14 -39 hhcurveto
          -89 -53 -75 -126 hvcurveto
          -19 -74 -30 74 -490 vlineto
          endchar
        </CharString>
        <CharString name="f_f">
          -23 21 26 callsubr
          hstem
          102 34 180 34 vstem
          488 708 rmoveto
          46 17 -17 -7 7 hvcurveto
          17 22 rlineto
          5 -4 -22 29 -67 hhcurveto
          -62 -39 -26 -40 -27 hvcurveto
          12 -17 -40 14 -45 hhcurveto
          -108 -41 -88 -83 -1 hvcurveto
          -9 -74 -30 74 39 callgsubr
          180 39 callgsubr
          179 30 -179 19 vlineto
          77 35 92 103 vhcurveto
          -172 -188 rmoveto
          -180 9 hlineto
          58 25 82 59 callgsubr
          -42 -51 vvcurveto
          endchar
        </CharString>
        <CharString name="f_f_i">
          108 21 26 callsubr
          hstem
          102 34 180 34 215 34 vstem
          102 hmoveto
          34 490 180 39 callgsubr
          215 -490 34 520 -249 19 hlineto
          78 35 91 105 43 46 -15 -14 14 vhcurveto
          20 23 rlineto
          7 -7 -52 31 -68 hhcurveto
          -64 -40 -26 -40 -28 hvcurveto
          12 -17 -40 14 -44 hhcurveto
          -109 -42 -90 -82 hvcurveto
          -8 -74 -30 74 vlineto
          34 30 rmoveto
          9 vlineto
          57 25 83 59 callgsubr
          -43 -50 vvcurveto
          endchar
        </CharString>
        <CharString name="f_f_l">
          189 -5 31 -5 26 callsubr
          hstemhm
          102 34 185 34 245 34 hintmask 10111111
          691 -5 rmoveto
          31 41 9 2 1 hvcurveto
          -10 30 rlineto
          -2 -34 -10 -23 hhcurveto
          -42 -19 35 28 hvcurveto
          516 vlineto
          76 -55 59 -97 -62 -41 -25 -40 -26 vhcurveto
          11 -17 -29 14 -47 hhcurveto
          -105 -53 -76 -96 hvcurveto
          -8 -74 -30 74 vlineto
          hintmask 01111111
          39 callgsubr
          185 39 callgsubr
          120 30 -120 17 vlineto
          84 33 87 98 77 37 -52 -55 vhcurveto
          -521 vlineto
          hintmask 10111111
          -46 30 -39 61 vhcurveto
          -555 525 rmoveto
          8 vlineto
          68 35 73 93 23 30 -4 -18 23 vhcurveto
          -14 -30 -5 -41 -56 vvcurveto
          endchar
        </CharString>
        <CharString name="f_i">
          -106 21 -21 490 30 188 32 hstem
          102 34 216 34 vstem
          102 hmoveto
          34 490 216 -490 34 520 -250 19 hlineto
          78 38 91 98 50 42 -14 -15 15 vhcurveto
          21 23 rlineto
          7 -7 -50 31 -72 hhcurveto
          -125 -44 -114 -87 hvcurveto
          -19 -74 -30 74 vlineto
          endchar
        </CharString>
        <CharString name="f_l">
          -29 -5 31 -5 -21 490 30 188 32 hstemhm
          102 34 246 34 hintmask 10111100
          535 36 rmoveto
          -1 -33 -10 -26 hhcurveto
          -39 -20 34 29 hvcurveto
          516 vlineto
          76 -54 59 -100 -114 -46 -89 -111 vhcurveto
          -20 -74 -30 74 vlineto
          hintmask 01111100
          39 callgsubr
          121 30 -121 18 vlineto
          84 1 35 86 91 hhcurveto
          87 32 -55 -52 hvcurveto
          -521 vlineto
          hintmask 10111100
          -46 32 -39 54 38 38 9 2 1 vhcurveto
          endchar
        </CharString>
        <CharString name="five">
          -34 -149 32 393 32 230 33 hstem
          467 34 vstem
          271 308 rmoveto
          -67 -64 -27 -47 -44 hvcurveto
          61 304 rlineto
          311 33 -338 hlineto
          0 -69 -344 -10 -44 vhcurveto
          36 hlineto
          60 41 69 33 71 hhcurveto
          111 88 -80 -113 -118 -91 -82 -113 -86 -74 49 72 -36 hvcurveto
          -29 -10 rlineto
          -85 39 86 -58 100 hhcurveto
          128 110 93 139 132 -103 93 -127 hvcurveto
          endchar
        </CharString>
        <CharString name="five.denominator">
          -208 -5 25 201 24 116 27 29 callgsubr
          245 -52 callgsubr
        </CharString>
        <CharString name="five.lnum">
          -21 -10 32 393 32 230 33 hstem
          473 35 vstem
          277 447 rmoveto
          -67 -63 -26 -48 -44 hvcurveto
          60 304 rlineto
          312 33 -339 hlineto
          0 -69 -344 -9 -44 vhcurveto
          35 hlineto
          60 42 69 33 71 hhcurveto
          111 87 -80 -113 -118 -90 -82 -113 -86 -75 49 72 -36 hvcurveto
          -29 -10 rlineto
          -85 40 85 -58 100 hhcurveto
          129 110 93 139 132 -104 93 -127 hvcurveto
          endchar
        </CharString>
        <CharString name="five.numerator">
          -208 337 25 201 24 117 26 29 callgsubr
          587 -82 callsubr
          endchar
        </CharString>
        <CharString name="fiveeighths">
          238 -4 25 175 23 118 25 1 25 175 24 117 26 hstemhm
          306 27 138 -27 callgsubr
          hintmask 1111111100100000
          187 587 -82 callsubr
          -58 -589 -90 callgsubr
          667 89 1 callsubr
          hintmask 1111111011000000
          -68 callsubr
          hintmask 1111111100100000
          -87 callgsubr
          hintmask 1111111011000000
          -73 callgsubr
          endchar
        </CharString>
        <CharString name="fiveinferior">
          -208 -85 25 201 24 116 27 29 callgsubr
          165 -52 callgsubr
        </CharString>
        <CharString name="fivesuperior">
          -208 417 25 201 24 117 26 29 callgsubr
          667 -82 callsubr
          endchar
        </CharString>
        <CharString name="florin">
          -60 -173 32 570 30 250 31 hstem
          239 34 vstem
          134 -173 rmoveto
          67 72 58 82 hvcurveto
          462 152 30 -152 80 19 callsubr
          -40 14 -38 hhcurveto
          -89 -53 -75 -126 hvcurveto
          -80 -74 -30 74 -462 vlineto
          -61 -55 -47 -53 -27 -30 5 20 -23 vhcurveto
          -21 -22 rlineto
          -26 27 37 -9 40 hhcurveto
          endchar
        </CharString>
        <CharString name="four">
          -47 -106 -21 193 32 473 -20 hstem
          378 32 vstem
          410 -127 rmoveto
          193 88 32 -88 473 -23 vlineto
          -367 -476 rlineto
          -29 356 -193 vlineto
          2 641 rmoveto
          -416 -317 vlineto
          endchar
        </CharString>
        <CharString name="four.denominator">
          -202 21 -21 callgsubr
          hmoveto
          -63 callsubr
          endchar
        </CharString>
        <CharString name="four.lnum">
          -17 21 -21 205 32 473 -20 hstem
          401 32 vstem
          433 hmoveto
          205 88 32 -88 473 -24 vlineto
          -384 -475 rlineto
          -30 374 -205 vlineto
          2 653 rmoveto
          -416 -335 vlineto
          endchar
        </CharString>
        <CharString name="four.numerator">
          -202 363 -21 callgsubr
          342 -8 callgsubr
        </CharString>
        <CharString name="fourinferior">
          -202 -59 -21 callgsubr
          -80 rmoveto
          -63 callsubr
          endchar
        </CharString>
        <CharString name="foursuperior">
          -202 443 -21 callgsubr
          422 -8 callgsubr
        </CharString>
        <CharString name="fraction">
          -443 19 -21 714 -20 hstem
          -203 -2 -25 callsubr
        </CharString>
        <CharString name="franc">
          40 21 -21 146 30 171 31 300 32 hstem
          122 34 vstem
          156 hmoveto
          146 158 30 -158 171 362 31 -362 300 425 32 -459 -534 -94 -30 94 -146 vlineto
          endchar
        </CharString>
        <CharString name="g">
          -38 callgsubr
          hstemhm
          44 35 413 34 hintmask 11011100
          -35 callsubr
          hintmask 11101100
          -97 callgsubr
          endchar
        </CharString>
        <CharString name="gacute">
          9 callsubr
          372 730 -95 callgsubr
          4 -647 -91 callgsubr
          hintmask 11101110
          -97 callgsubr
          endchar
        </CharString>
        <CharString name="gbreve">
          -38 callgsubr
          146 22 62 40 callgsubr
          157 162 94 34 hintmask 1101111110000000
          -35 callsubr
          hintmask 1110111110000000
          -97 callgsubr
          19 646 -94 callsubr
        </CharString>
        <CharString name="gcircumflex">
          9 callsubr
          232 638 -101 callsubr
          83 -662 -91 callgsubr
          hintmask 11101110
          -97 callgsubr
          endchar
        </CharString>
        <CharString name="gcommaaccent">
          -38 callgsubr
          233 40 callgsubr
          196 37 180 34 hintmask 11011111
          292 733 rmoveto
          -17 -62 rlineto
          -64 37 64 -12 vlineto
          12 62 rlineto
          -19 -742 -91 callgsubr
          hintmask 11101111
          -97 callgsubr
          endchar
        </CharString>
        <CharString name="gdotaccent">
          -38 callgsubr
          230 40 callgsubr
          222 32 159 34 hintmask 11011111
          -35 callsubr
          hintmask 11101111
          -97 callgsubr
          35 625 -70 callgsubr
        </CharString>
        <CharString name="germandbls">
          -26 -6 32 -5 -21 386 32 264 32 hstemhm
          81 33 305 33 17 35 hintmask 10111110
          232 -6 rmoveto
          172 6 100 73 131 vvcurveto
          103 -61 74 -107 23 vhcurveto
          65 13 51 67 72 vvcurveto
          91 -79 67 -103 -111 -78 -82 -121 vhcurveto
          hintmask 01111110
          -511 33 508 vlineto
          103 59 71 96 84 66 -54 -78 -76 -62 -56 -83 vhcurveto
          -16 -32 17 hlineto
          116 78 -73 -108 hvcurveto
          hintmask 10111110
          -114 -87 -62 -150 -3 vhcurveto
          endchar
        </CharString>
        <CharString name="grave">
          -368 -4 callsubr
          133 638 -78 callgsubr
        </CharString>
        <CharString name="greater">
          -69 18 -21 523 -20 hstem
          470 270 rmoveto
          -418 250 rlineto
          -37 vlineto
          368 -224 -368 -225 rlineto
          -37 vlineto
          418 250 rlineto
          endchar
        </CharString>
        <CharString name="greaterequal">
          -124 78 31 413 -20 hstem
          377 78 rmoveto
          31 -306 -31 vlineto
          307 292 rmoveto
          -299 152 rlineto
          -35 vlineto
          249 -128 -249 -129 rlineto
          -36 vlineto
          299 152 rlineto
          endchar
        </CharString>
        <CharString name="guillemotleft">
          -39 -12 callgsubr
          184 -23 rmoveto
          241 -171 rlineto
          33 vlineto
          -211 150 211 150 rlineto
          33 vlineto
          -241 -172 rlineto
          endchar
        </CharString>
        <CharString name="guillemotright">
          -39 97 -21 366 -20 hstem
          492 270 rmoveto
          -240 -6 callgsubr
          240 171 rlineto
          -184 23 rmoveto
          -241 -6 callgsubr
          241 171 rlineto
          endchar
        </CharString>
        <CharString name="guilsinglleft">
          -224 -12 callgsubr
          endchar
        </CharString>
        <CharString name="guilsinglright">
          -224 97 -21 366 -20 hstem
          308 270 rmoveto
          -241 -6 callgsubr
          241 171 rlineto
          endchar
        </CharString>
        <CharString name="h">
          -3 21 -21 496 32 -3 callgsubr
          81 34 346 -16 callgsubr
          340 -34 -730 -43 callsubr
          endchar
        </CharString>
        <CharString name="hbar">
          -3 21 -21 496 32 100 28 74 -20 hstem
          81 34 346 -16 callgsubr
          238 125 28 -125 74 -34 -74 -70 -28 70 -628 -43 callsubr
          endchar
        </CharString>
        <CharString name="hcircumflex">
          -3 21 -21 496 32 201 61 callgsubr
          81 34 346 34 hintmask 11101100
          228 637 rmoveto
          84 63 83 -63 23 15 -94 77 rlineto
          -25 hlineto
          -93 -77 rlineto
          289 -358 rmoveto
          149 -54 85 -111 -88 -84 -54 -84 -43 vhcurveto
          hintmask 11011100
          340 -34 -730 -43 callsubr
          endchar
        </CharString>
        <CharString name="hdotbelow">
          -3 31 callsubr
          496 32 -3 callgsubr
          81 34 160 32 154 -16 callgsubr
          340 -34 -730 -43 callsubr
          -188 2 callsubr
          endchar
        </CharString>
        <CharString name="hungarumlaut">
          -267 -4 callsubr
          153 730 -56 callsubr
          endchar
        </CharString>
        <CharString name="hyphen">
          -152 255 33 hstem
          353 255 rmoveto
          33 -285 -33 vlineto
          endchar
        </CharString>
        <CharString name="i">
          21 -41 callsubr
          endchar
        </CharString>
        <CharString name="iacute">
          -50 callgsubr
          81 34 vstem
          173 730 -95 callgsubr
          25 -638 rmoveto
          -46 callgsubr
          endchar
        </CharString>
        <CharString name="ibreve">
          -59 callsubr
          146 22 62 -20 hstemhm
          17 162 -98 34 hintmask 11110100
          115 hmoveto
          -46 callgsubr
          17 668 rmoveto
          -28 -27 31 31 hvcurveto
          hintmask 11111000
          -26 hlineto
          -46 37 -38 44 43 38 38 46 vhcurveto
          -25 hlineto
          -34 -4 -25 -28 -27 hhcurveto
          endchar
        </CharString>
        <CharString name="icircumflex">
          -50 callgsubr
          81 34 vstem
          13 638 -101 callsubr
          124 -653 rmoveto
          -46 callgsubr
          endchar
        </CharString>
        <CharString name="idblgrave">
          -50 callgsubr
          81 34 vstem
          154 638 -90 callsubr
          151 -730 rmoveto
          -46 callgsubr
          endchar
        </CharString>
        <CharString name="idieresis">
          -59 callsubr
          147 82 hstem
          20 31 30 34 31 31 vstem
          51 647 -88 callgsubr
          -31 -647 rmoveto
          -46 callgsubr
          endchar
        </CharString>
        <CharString name="idotbelow">
          -117 -21 159 -41 callsubr
          33 -784 -70 callgsubr
        </CharString>
        <CharString name="igrave">
          -50 callgsubr
          81 34 vstem
          115 hmoveto
          -46 callgsubr
          25 638 -78 callgsubr
        </CharString>
        <CharString name="iinvertedbreve">
          -59 callsubr
          208 22 hstemhm
          17 162 -98 34 hintmask 11110000
          98 708 -96 callgsubr
          hintmask 11101000
          17 -708 rmoveto
          -46 callgsubr
          endchar
        </CharString>
        <CharString name="ij">
          -172 -173 32 162 0 callsubr
          146 84 hstem
          81 34 171 34 vstem
          115 hmoveto
          -46 callgsubr
          34 646 -14 callgsubr
          100 -819 -93 callsubr
          139 819 -14 callgsubr
          endchar
        </CharString>
        <CharString name="imacron">
          -59 callsubr
          179 28 hstem
          81 34 vstem
          115 hmoveto
          -46 callgsubr
          159 679 -33 callgsubr
        </CharString>
        <CharString name="infinity">
          126 186 30 271 30 hstem
          49 31 538 30 vstem
          201 517 rmoveto
          -86 -66 -74 -91 -91 68 -75 84 82 40 58 65 28 hvcurveto
          -65 30 39 -58 76 hhcurveto
          87 65 74 91 91 -58 75 -93 -80 -37 -58 -66 -31 hvcurveto
          66 -30 -39 58 -79 hhcurveto
          -301 vmoveto
          -58 -63 47 89 91 63 44 58 70 35 -63 -74 30 hvcurveto
          -72 -30 -36 -62 -69 hhcurveto
          296 hmoveto
          -68 -35 60 70 -30 hvcurveto
          75 29 32 65 72 hhcurveto
          58 63 -43 -91 -89 -63 -47 -58 hvcurveto
          endchar
        </CharString>
        <CharString name="integral">
          -301 -167 29 929 29 hstem
          99 31 -10 31 -10 31 cntrmask 00111000
          141 -48 rmoveto
          -61 4 -24 -29 -37 hhcurveto
          -18 -27 9 9 -20 hvcurveto
          -9 -26 rlineto
          -12 23 34 -9 24 hhcurveto
          53 32 40 70 -4 hvcurveto
          -42 760 rlineto
          57 -3 24 31 37 hhcurveto
          15 32 -9 -9 18 hvcurveto
          10 26 rlineto
          12 -24 -34 9 -24 hhcurveto
          -54 -32 -47 -63 4 hvcurveto
          endchar
        </CharString>
        <CharString name="iogonek">
          -143 -21 684 33 callgsubr
          8 26 48 34 vstem
          67 -36 callsubr
          -46 callgsubr
          -52 -38 -22 -28 -33 -38 callsubr
          49 810 -14 callgsubr
          endchar
        </CharString>
        <CharString name="itilde">
          -59 callsubr
          156 -25 callgsubr
          81 34 hintmask 11101100
          115 hmoveto
          -46 callgsubr
          78 24 callgsubr
          hintmask 11110100
          -98 callgsubr
        </CharString>
        <CharString name="j">
          -369 58 callsubr
          89 34 vstem
          -16 -13 callsubr
          139 819 -14 callgsubr
          endchar
        </CharString>
        <CharString name="j.alt">
          -192 -21 931 -20 hstem
          81 34 vstem
          81 -213 rmoveto
          34 730 -34 hlineto
          129 vmoveto
          34 72 -34 hlineto
          endchar
        </CharString>
        <CharString name="jcircumflex">
          58 callsubr
          81 34 vstem
          -24 -13 callsubr
          37 811 -45 callgsubr
        </CharString>
        <CharString name="k">
          -59 21 -21 730 -20 hstem
          81 34 vstem
          499 hmoveto
          -18 callsubr
        </CharString>
        <CharString name="kcommaaccent">
          -59 5 callgsubr
          730 -20 hstem
          81 34 132 37 vstem
          267 -87 callsubr
          252 176 rmoveto
          -18 callsubr
        </CharString>
        <CharString name="kgreenlandic">
          -59 4 callsubr
          81 34 vstem
          499 hmoveto
          -227 310 221 208 rlineto
          -41 hlineto
          -337 -311 rlineto
          313 -34 -520 34 167 vlineto
          133 121 212 -288 rlineto
          endchar
        </CharString>
        <CharString name="l">
          -325 -5 30 callsubr
          vstem
          87 82 -84 callsubr
          641 -33 vlineto
          endchar
        </CharString>
        <CharString name="l.alt">
          -362 21 -21 730 -20 hstem
          89 34 vstem
          89 hmoveto
          34 730 -34 hlineto
          endchar
        </CharString>
        <CharString name="lacute">
          -325 -5 31 704 -20 160 -20 hstem
          87 33 vstem
          169 870 -95 callgsubr
          1 -696 -84 callsubr
          641 -33 vlineto
          endchar
        </CharString>
        <CharString name="lcaron">
          -325 -5 30 callsubr
          vstem
          277 730 -95 callgsubr
          -107 -556 -84 callsubr
          641 -33 vlineto
          endchar
        </CharString>
        <CharString name="lcommaaccent">
          -325 -155 -21 171 30 callsubr
          24 37 vstem
          164 -87 callsubr
          -57 258 -84 callsubr
          641 -33 vlineto
          endchar
        </CharString>
        <CharString name="ldot">
          -301 -5 30 callsubr
          103 31 vstem
          87 82 -84 callsubr
          641 -33 vlineto
          167 -476 rmoveto
          91 -31 -91 vlineto
          endchar
        </CharString>
        <CharString name="less">
          -69 18 -21 523 -20 hstem
          34 247 rmoveto
          417 -250 rlineto
          37 vlineto
          -368 225 368 224 rlineto
          37 vlineto
          -417 -250 rlineto
          endchar
        </CharString>
        <CharString name="lessequal">
          -124 78 31 413 -20 hstem
          379 78 rmoveto
          31 -307 -31 vlineto
          268 vmoveto
          298 -152 rlineto
          36 vlineto
          -249 129 249 128 rlineto
          35 vlineto
          -298 -152 rlineto
          endchar
        </CharString>
        <CharString name="lira">
          -105 -15 32 -11 30 221 26 64 27 310 31 hstemhm
          75 34 75 33 hintmask 01111110
          45 347 rmoveto
          115 hlineto
          9 -20 8 -21 4 -23 rrcurveto
          -101 -26 104 -12 hlineto
          -67 -29 -51 -103 -108 vhcurveto
          12 -26 rlineto
          8 30 39 5 29 hhcurveto
          hintmask 10111110
          61 38 -21 58 hhcurveto
          36 35 51 callgsubr
          -27 hhcurveto
          hintmask 01111110
          -50 -36 19 -60 hhcurveto
          -24 -25 -3 -5 -23 hvcurveto
          85 92 29 57 70 vvcurveto
          10 159 26 -162 vlineto
          -3 23 -7 21 -8 20 rrcurveto
          164 27 -177 hlineto
          -31 62 -43 50 63 vvcurveto
          75 60 60 72 58 56 -36 -59 32 vhcurveto
          24 21 rlineto
          64 -36 -64 41 -68 hhcurveto
          -92 -76 -75 -92 -66 40 -50 32 -58 hvcurveto
          -102 hlineto
          endchar
        </CharString>
        <CharString name="logicalnot">
          -6 157 -21 177 33 hstem
          465 31 vstem
          83 346 rmoveto
          -33 382 -177 31 210 vlineto
          endchar
        </CharString>
        <CharString name="lozenge">
          -95 21 -21 730 -20 hstem
          220 730 rmoveto
          -186 -364 186 -366 rlineto
          38 hlineto
          186 366 -186 364 rlineto
          -14 -697 rmoveto
          -170 342 161 325 170 -346 rlineto
          endchar
        </CharString>
        <CharString name="lslash">
          -309 -5 31 704 -20 hstem
          102 33 vstem
          102 82 -84 callsubr
          306 vlineto
          110 103 -18 21 -92 -86 rlineto
          297 -33 -327 vlineto
          -88 -82 18 -21 70 65 rlineto
          endchar
        </CharString>
        <CharString name="m">
          338 21 -21 496 32 -8 -20 hstemhm
          81 34 326 34 327 34 hintmask 11011100
          836 294 rmoveto
          153 -49 81 -110 -87 -68 -49 -97 -51 vhcurveto
          88 -11 -59 58 -87 hhcurveto
          -83 -73 -51 -87 -44 hvcurveto
          hintmask 10111100
          -50 callsubr
          hintmask 11011100
          102 29 75 69 91 hhcurveto
          90 41 -64 -142 hvcurveto
          -290 34 324 vlineto
          100 28 74 72 93 hhcurveto
          89 43 -66 -140 55 callgsubr
          endchar
        </CharString>
        <CharString name="macron">
          -188 679 28 hstem
          334 679 -33 callgsubr
        </CharString>
        <CharString name="minus">
          -30 263 30 hstem
          473 263 rmoveto
          30 -403 -30 vlineto
          endchar
        </CharString>
        <CharString name="mu">
          34 41 callsubr
          88 34 355 34 hintmask 11011100
          88 -51 callgsubr
        </CharString>
        <CharString name="multiply">
          -128 138 -21 309 -20 hstem
          245 271 rmoveto
          131 131 -22 24 -132 -132 -130 131 -23 -23 130 -131 -130 -130 22 -24 131 131 132 -131 23 23 rlineto
          endchar
        </CharString>
        <CharString name="n">
          -3 21 41 callgsubr
          hintmask 11011000
          495 294 rmoveto
          -65 callsubr
          hintmask 10111000
          -50 callsubr
          hintmask 11011000
          -72 callgsubr
          endchar
        </CharString>
        <CharString name="nacute">
          -3 21 -26 callsubr
          81 34 346 34 hintmask 11011100
          359 730 -95 callgsubr
          219 -344 -66 callgsubr
        </CharString>
        <CharString name="napostrophe">
          -3 21 -26 callsubr
          81 34 346 34 hintmask 11011100
          114 43 callgsubr
          464 -344 -66 callgsubr
        </CharString>
        <CharString name="ncaron">
          -3 21 -26 callsubr
          81 34 346 34 hintmask 11011100
          178 716 -92 callsubr
          295 -436 -66 callgsubr
        </CharString>
        <CharString name="ncommaaccent">
          -3 5 callgsubr
          496 32 -8 -20 hstemhm
          81 34 147 37 162 34 hintmask 11101110
          282 -87 callsubr
          233 470 rmoveto
          -65 callsubr
          hintmask 11011110
          -50 callsubr
          hintmask 11101110
          -72 callgsubr
          endchar
        </CharString>
        <CharString name="ndotaccent">
          -3 21 -26 callsubr
          81 34 154 32 160 34 hintmask 11011110
          301 647 rmoveto
          83 -32 -83 vlineto
          226 -353 rmoveto
          -65 callsubr
          hintmask 10111110
          -50 callsubr
          hintmask 11011110
          -72 callgsubr
          endchar
        </CharString>
        <CharString name="nine">
          8 -154 32 208 31 422 32 hstem
          37 33 431 35 vstem
          37 328 rmoveto
          -134 108 -108 134 102 90 63 93 30 vhcurveto
          -231 -89 -133 -132 -82 -73 51 76 -25 vhcurveto
          -27 -16 rlineto
          -88 32 80 -55 96 hhcurveto
          150 105 138 305 175 -108 107 -144 -138 -109 -108 -135 hvcurveto
          246 211 rmoveto
          116 98 -96 -115 -115 -97 -96 -117 -115 -98 96 116 115 96 95 117 hvcurveto
          endchar
        </CharString>
        <CharString name="nine.denominator">
          -179 -5 -1 callgsubr
          27 vstem
          35 258 -54 callgsubr
        </CharString>
        <CharString name="nine.lnum">
          24 -10 32 208 31 423 31 hstem
          43 34 431 34 vstem
          43 472 rmoveto
          -133 108 -109 135 101 90 63 93 31 vhcurveto
          -231 -89 -133 -132 -83 -72 51 76 -26 vhcurveto
          -26 -16 rlineto
          -88 32 79 -55 96 hhcurveto
          151 104 138 305 175 -108 107 -143 -138 -110 -108 -135 hvcurveto
          246 212 rmoveto
          117 98 -97 -115 -114 -97 -97 -117 -116 -97 97 115 115 95 96 117 hvcurveto
          endchar
        </CharString>
        <CharString name="nine.numerator">
          -180 334 -1 callgsubr
          26 vstem
          35 597 -55 callsubr
        </CharString>
        <CharString name="nineinferior">
          -179 -85 -1 callgsubr
          27 vstem
          35 178 -54 callgsubr
        </CharString>
        <CharString name="ninesuperior">
          -180 414 -1 callgsubr
          26 vstem
          35 677 -55 callsubr
        </CharString>
        <CharString name="notequal">
          -129 134 -21 107 29 54 29 106 -20 hstem
          74 303 rmoveto
          145 hlineto
          -33 -54 rlineto
          -112 -29 95 hlineto
          -62 -102 28 -5 65 107 rlineto
          169 29 -151 hlineto
          33 54 rlineto
          118 29 -100 hlineto
          62 101 -29 5 -65 -106 rlineto
          -163 hlineto
          endchar
        </CharString>
        <CharString name="ntilde">
          -3 21 -21 496 32 -8 -20 156 -25 callgsubr
          81 34 346 34 hintmask 11011011
          495 294 rmoveto
          -65 callsubr
          hintmask 10111011
          -50 callsubr
          hintmask 11010111
          -72 callgsubr
          -149 24 callgsubr
          hintmask 11011011
          -98 callgsubr
        </CharString>
        <CharString name="numbersign">
          86 0 247 -30 30 227 29 -29 236 hstemhm
          hintmask 10100000
          621 503 rmoveto
          -114 23 callgsubr
          -225 23 callgsubr
          -141 -29 134 hlineto
          -55 -227 rlineto
          -120 hlineto
          hintmask 01100000
          -30 113 vlineto
          33 callsubr
          226 hlineto
          33 callsubr
          143 30 -135 hlineto
          55 227 rlineto
          121 hlineto
          -432 -227 rmoveto
          55 227 rlineto
          225 hlineto
          -55 -227 rlineto
          endchar
        </CharString>
        <CharString name="o">
          -13 callgsubr
          hstem
          44 34 432 35 vstem
          -83 callgsubr
          endchar
        </CharString>
        <CharString name="oacute">
          -13 callgsubr
          -9 callsubr
          34 432 35 vstem
          369 730 -95 callgsubr
          8 -648 -106 callgsubr
          endchar
        </CharString>
        <CharString name="obreve">
          -13 callgsubr
          118 22 62 -20 hstem
          44 34 135 162 135 35 vstem
          -83 callgsubr
          216 411 -94 callsubr
        </CharString>
        <CharString name="ocircumflex">
          -13 callgsubr
          -9 callsubr
          34 432 35 vstem
          209 638 -101 callsubr
          107 -663 -106 callgsubr
          endchar
        </CharString>
        <CharString name="odblgrave">
          -13 callgsubr
          -32 234 hstemhm
          44 34 432 35 hintmask 10111000
          352 638 -90 callsubr
          132 -740 -58 callgsubr
        </CharString>
        <CharString name="odieresis">
          -13 callgsubr
          119 82 hstem
          44 34 138 31 95 31 137 35 vstem
          247 647 -88 callgsubr
          -48 -657 -106 callgsubr
          endchar
        </CharString>
        <CharString name="odotbelow">
          16 -117 -21 128 -30 callgsubr
          hstem
          44 34 197 32 203 35 vstem
          307 2 callsubr
          19 128 -106 callgsubr
          endchar
        </CharString>
        <CharString name="oe">
          472 -10 29 226 27 224 32 hstem
          44 34 432 35 vstem
          292 -10 rmoveto
          108 92 73 113 36 hvcurveto
          -109 35 101 -77 108 hhcurveto
          91 89 52 74 31 hvcurveto
          -30 8 rlineto
          -62 -25 -74 -43 -80 hhcurveto
          -119 -100 99 127 -10 hvcurveto
          467 hlineto
          1 -1 12 1 vvcurveto
          165 -14 -96 104 -141 hhcurveto
          -114 -90 -71 -115 -30 hvcurveto
          112 -31 -92 74 -107 hhcurveto
          -140 -112 -121 -150 -148 110 -119 138 hvcurveto
          1 32 rmoveto
          -119 -96 103 131 132 98 108 119 119 96 -106 -132 -131 -96 -105 -121 hvcurveto
          252 250 rmoveto
          130 7 91 96 117 hhcurveto
          117 92 -94 -132 9 hvcurveto
          endchar
        </CharString>
        <CharString name="ogonek">
          -359 -143 -21 179 -20 hstem
          50 26 vstem
          109 -36 callsubr
          -15 15 rlineto
          -66 -45 -27 -33 -36 -38 callsubr
          endchar
        </CharString>
        <CharString name="ograve">
          -13 callgsubr
          -9 callsubr
          34 432 35 vstem
          -83 callgsubr
          224 381 -78 callgsubr
        </CharString>
        <CharString name="ohungarumlaut">
          -13 callgsubr
          -32 234 hstemhm
          44 34 432 35 hintmask 10111000
          313 730 -56 callsubr
          -44 -648 -58 callgsubr
        </CharString>
        <CharString name="oinvertedbreve">
          -13 callgsubr
          180 22 hstem
          44 34 132 162 138 35 vstem
          291 708 -96 callgsubr
          3 -718 -106 callgsubr
          endchar
        </CharString>
        <CharString name="omacron">
          -13 callgsubr
          151 28 hstem
          44 34 432 35 vstem
          436 679 rmoveto
          28 -283 -28 vlineto
          141 -689 -106 callgsubr
          endchar
        </CharString>
        <CharString name="one">
          -183 0 32 408 36 95 -20 hstem
          210 34 vstem
          244 32 rmoveto
          539 -34 vlineto
          -6 -3 -93 -89 -69 hhcurveto
          -36 vlineto
          54 89 53 31 22 hvcurveto
          -492 -142 -32 303 32 vlineto
          endchar
        </CharString>
        <CharString name="one.denominator">
          -311 0 50 callsubr
          26 -2 callsubr
        </CharString>
        <CharString name="one.lnum">
          -199 0 32 556 33 99 -20 hstem
          196 34 vstem
          230 32 rmoveto
          688 -34 vlineto
          -4 -2 -85 -95 -69 hhcurveto
          -33 vlineto
          54 80 55 31 22 hvcurveto
          -642 -133 -32 294 32 vlineto
          endchar
        </CharString>
        <CharString name="one.numerator">
          -315 337 27 367 -20 hstem
          131 28 vstem
          159 364 -2 callgsubr
        </CharString>
        <CharString name="oneeighth">
          235 -4 25 175 23 118 27 -1 25 343 -20 hstemhm
          143 28 298 -27 callgsubr
          hintmask 1101111010000000
          116 -2 -90 callgsubr
          hintmask 1110111001000000
          76 348 -80 callgsubr
          525 -259 1 callsubr
          hintmask 1101110110000000
          -68 callsubr
          hintmask 1110111001000000
          -87 callgsubr
          hintmask 1101110110000000
          -73 callgsubr
          endchar
        </CharString>
        <CharString name="onehalf">
          243 0 26 -7 -21 339 27 3 26 338 -20 hstemhm
          145 28 570 29 hintmask 10111110
          773 hmoveto
          26 -254 vlineto
          39 12 63 100 31 vhcurveto
          55 17 86 24 81 12 callgsubr
          -41 -44 -67 -79 -17 -59 -22 hvcurveto
          -79 -29 -44 -47 -100 vvcurveto
          hintmask 01111110
          -382 -2 -90 callgsubr
          94 348 -2 callgsubr
        </CharString>
        <CharString name="oneinferior">
          -311 -80 50 callsubr
          -54 -2 callsubr
        </CharString>
        <CharString name="onequarter">
          195 19 -21 23 -21 108 26 203 27 367 -20 hstemhm
          142 28 479 27 hintmask 01111110
          676 hmoveto
          -63 callsubr
          hintmask 10111110
          -322 -136 -90 callgsubr
          62 348 -2 callgsubr
        </CharString>
        <CharString name="onesuperior">
          -315 417 27 286 -20 101 -20 hstem
          131 28 vstem
          159 444 -2 callgsubr
        </CharString>
        <CharString name="onethird">
          236 -5 26 165 24 127 27 4 25 338 -20 hstemhm
          145 28 560 28 -15 27 hintmask 11111101
          105 -2 -90 callgsubr
          89 348 -80 callgsubr
          372 -369 -60 callgsubr
        </CharString>
        <CharString name="oogonek">
          16 -151 -21 162 -30 callgsubr
          hstem
          44 34 136 26 270 35 vstem
          273 -172 -53 callgsubr
          59 40 vhcurveto
          128 14 96 116 136 vvcurveto
          146 -112 124 -139 -138 -112 -124 -146 -141 103 -121 136 -6 vhcurveto
          -49 -36 -20 -30 -31 -38 callsubr
          -195 429 rmoveto
          130 99 109 117 118 98 -108 -129 -129 -98 -108 -119 -118 -97 106 129 vhcurveto
          endchar
        </CharString>
        <CharString name="ordfeminine">
          -145 350 31 153 27 118 30 hstem
          51 37 223 39 vstem
          169 350 rmoveto
          59 55 23 42 33 hvcurveto
          1 -28 rlineto
          -21 1 14 -11 22 hhcurveto
          3 4 0 1 5 hvcurveto
          35 vlineto
          -11 1 -5 6 11 vvcurveto
          163 vlineto
          86 -55 51 -88 -42 -44 -15 -31 -47 vhcurveto
          15 -25 rlineto
          27 41 39 14 35 hhcurveto
          66 41 -41 -62 hvcurveto
          -33 vlineto
          12 -31 -41 6 -39 hhcurveto
          -87 -62 -42 -62 -60 52 -47 66 hvcurveto
          9 31 rmoveto
          -51 -39 34 44 46 48 29 69 37 37 -4 -14 32 hvcurveto
          -58 vlineto
          -40 -69 -37 -64 vhcurveto
          endchar
        </CharString>
        <CharString name="ordmasculine">
          -123 350 27 304 28 hstem
          48 32 290 32 vstem
          224 350 rmoveto
          102 76 83 96 40 callsubr
          hvcurveto
          7 callsubr
        </CharString>
        <CharString name="oslash">
          16 53 callgsubr
          -8 -20 hstemhm
          44 34 432 35 hintmask 01101100
          145 hmoveto
          19 29 rlineto
          hintmask 10011100
          0 callgsubr
          hintmask 01101100
          -37 callsubr
          hintmask 10101100
          -7 callgsubr
          endchar
        </CharString>
        <CharString name="oslashacute">
          16 -10 32 -1 -26 callsubr
          44 34 432 35 hintmask 01101110
          145 hmoveto
          19 29 rlineto
          hintmask 10011110
          0 callgsubr
          hintmask 01101110
          -37 callsubr
          hintmask 10101110
          -7 callgsubr
          76 708 -21 callsubr
        </CharString>
        <CharString name="otilde">
          -13 callgsubr
          128 -25 callgsubr
          44 34 432 35 hintmask 11101110
          -83 callgsubr
          277 399 -85 callgsubr
          hintmask 11110110
          -98 callgsubr
        </CharString>
        <CharString name="p">
          34 -70 callsubr
        </CharString>
        <CharString name="paragraph">
          3 -59 -21 323 30 407 30 hstem
          33 31 244 32 86 31 vstem
          33 476 rmoveto
          -144 105 -86 170 -3 vhcurveto
          -323 32 323 86 -323 31 760 70 30 -212 vlineto
          -178 -104 -89 -145 hvcurveto
          31 1 rmoveto
          127 86 76 158 vhcurveto
          -407 vlineto
          -132 6 -112 57 141 vvcurveto
          362 -204 rmoveto
          -86 407 86 hlineto
          endchar
        </CharString>
        <CharString name="parenleft">
          -329 -8 -21 759 -20 hstem
          48 32 vstem
          48 345 rmoveto
          -122 50 -126 85 -126 vhcurveto
          26 16 rlineto
          -81 119 -48 134 102 vvcurveto
          123 69 159 61 90 vhcurveto
          -27 16 rlineto
          -74 -125 -61 -124 -136 vvcurveto
          endchar
        </CharString>
        <CharString name="parenright">
          -330 -8 -21 759 -20 hstem
          164 32 vstem
          196 345 rmoveto
          136 -61 124 -74 125 vhcurveto
          -27 -16 rlineto
          62 -90 68 -159 -123 vvcurveto
          -102 -48 -134 -81 -119 vhcurveto
          26 -16 rlineto
          85 126 50 126 122 vvcurveto
          endchar
        </CharString>
        <CharString name="partialdiff">
          -1 -10 32 382 30 249 32 hstemhm
          32 33 394 60 -33 33 hintmask 11110100
          251 -10 rmoveto
          159 109 140 269 224 -75 92 -145 -76 -74 -25 -53 -44 hvcurveto
          20 -21 rlineto
          39 32 67 28 73 hhcurveto
          114 75 -68 -200 -42 -4 -65 -7 -33 hvcurveto
          102 -21 -80 57 -95 hhcurveto
          -134 -113 -112 -127 -114 91 -91 128 hvcurveto
          -2 32 rmoveto
          -108 -76 78 96 112 101 96 112 hvcurveto
          hintmask 11111000
          102 79 -80 -91 -89 -74 -122 -136 hvcurveto
          endchar
        </CharString>
        <CharString name="percent">
          110 44 callsubr
          46 29 224 29 27 29 225 29 vstem
          187 -64 callsubr
          -423 -18 -25 callsubr
        </CharString>
        <CharString name="period">
          -406 21 -21 74 -20 hstem
          68 31 vstem
          99 hmoveto
          74 -31 -74 vlineto
          endchar
        </CharString>
        <CharString name="periodcentered">
          15 callgsubr
        </CharString>
        <CharString name="perthousand">
          442 44 callsubr
          52 29 224 29 27 29 225 29 55 29 224 29 vstem
          193 -64 callsubr
          337 -26 rmoveto
          78 63 62 78 77 -63 62 -78 -78 -63 -62 -77 -78 63 -62 78 hvcurveto
          26 vmoveto
          -62 -50 50 64 60 49 54 63 59 53 -52 -62 -61 -49 -53 -63 hvcurveto
          -760 -18 -25 callsubr
        </CharString>
        <CharString name="pi">
          -18 -5 31 -5 -21 487 33 hstemhm
          105 33 233 33 hintmask 10111000
          371 487 rmoveto
          -405 vlineto
          -53 34 -34 51 20 36 6 7 20 vhcurveto
          -8 28 rlineto
          -6 -17 -23 -4 -15 hhcurveto
          -39 -26 24 39 hvcurveto
          398 110 33 -489 -33 80 vlineto
          hintmask 01111000
          -487 33 487 vlineto
          endchar
        </CharString>
        <CharString name="plus">
          -160 215 -21 146 30 146 -20 hstem
          190 33 vstem
          223 370 rmoveto
          146 -33 -146 -135 -30 135 -146 33 146 135 30 vlineto
          endchar
        </CharString>
        <CharString name="plusminus">
          -104 78 31 233 31 147 -20 hstem
          218 33 vstem
          388 78 rmoveto
          31 -307 -31 vlineto
          170 295 rmoveto
          147 -33 -147 -137 -31 137 -147 33 147 137 31 vlineto
          endchar
        </CharString>
        <CharString name="product">
          61 -69 -21 768 32 hstem
          116 33 339 34 vstem
          488 -90 rmoveto
          34 768 80 32 -574 -32 88 -768 33 768 339 hlineto
          endchar
        </CharString>
        <CharString name="q">
          -8 callsubr
          -283 vlineto
          -25 19 -21 24 3 3 0 1 3 vhcurveto
          31 vlineto
          -13 1 -5 8 14 vvcurveto
          678 -48 callsubr
        </CharString>
        <CharString name="q.alt">
          -8 callsubr
          -329 34 733 -48 callsubr
        </CharString>
        <CharString name="question">
          -103 21 -21 688 31 hstem
          171 31 199 31 vstem
          202 186 rmoveto
          111 35 27 44 24 vhcurveto
          70 38 81 28 117 vvcurveto
          125 -92 63 -97 -84 -87 -46 -83 -37 vhcurveto
          26 -14 rlineto
          67 33 72 45 77 hhcurveto
          80 78 -48 -106 -110 -84 -24 -60 -32 hvcurveto
          -52 -28 -34 -38 -116 vvcurveto
          32 -186 rmoveto
          91 -32 -91 vlineto
          endchar
        </CharString>
        <CharString name="questiondown">
          -110 -213 31 688 -20 hstem
          34 31 199 31 vstem
          264 320 rmoveto
          -111 -35 -27 -44 -24 vhcurveto
          -70 -38 -81 -28 -117 vvcurveto
          -125 92 -63 97 84 87 46 83 37 vhcurveto
          -26 14 rlineto
          -67 -33 -72 -45 -77 hhcurveto
          -80 -78 48 106 110 84 24 60 32 hvcurveto
          52 28 34 38 116 vvcurveto
          -32 186 rmoveto
          -91 32 91 vlineto
          endchar
        </CharString>
        <CharString name="quotedbl">
          -335 556 156 hstem
          72 31 32 31 vstem
          103 556 rmoveto
          156 -31 -156 vlineto
          94 hmoveto
          156 -31 -156 vlineto
          endchar
        </CharString>
        <CharString name="quotedblbase">
          -239 -63 -21 105 -21 82 -20 hstem
          106 38 46 38 vstem
          127 -84 rmoveto
          17 84 2 callgsubr
          -84 rlineto
          104 hmoveto
          17 84 2 callgsubr
          -84 rlineto
          endchar
        </CharString>
        <CharString name="quotedblleft">
          -305 27 callgsubr
          68 38 54 38 vstem
          85 730 rmoveto
          16 callsubr
          72 hmoveto
          16 callsubr
          endchar
        </CharString>
        <CharString name="quotedblright">
          -309 27 callgsubr
          70 38 54 38 vstem
          91 556 rmoveto
          17 92 2 callgsubr
          -92 rlineto
          112 hmoveto
          17 92 2 callgsubr
          -92 rlineto
          endchar
        </CharString>
        <CharString name="quoteleft">
          -397 27 callgsubr
          68 38 vstem
          85 730 rmoveto
          16 callsubr
          endchar
        </CharString>
        <CharString name="quoteright">
          -401 27 callgsubr
          70 38 vstem
          91 556 rmoveto
          17 92 2 callgsubr
          -92 rlineto
          endchar
        </CharString>
        <CharString name="quotesinglbase">
          -323 -63 -21 105 -21 82 -20 hstem
          106 38 vstem
          127 -84 rmoveto
          17 84 2 callgsubr
          -84 rlineto
          endchar
        </CharString>
        <CharString name="quotesingle">
          -398 576 -21 157 -20 hstem
          72 31 vstem
          103 555 rmoveto
          157 -31 -157 vlineto
          endchar
        </CharString>
        <CharString name="r">
          -242 4 callsubr
          81 34 vstem
          314 520 -76 callgsubr
          endchar
        </CharString>
        <CharString name="racute">
          -242 -50 callgsubr
          81 34 vstem
          258 730 -95 callgsubr
          139 -118 -76 callgsubr
          endchar
        </CharString>
        <CharString name="radical">
          -155 21 -21 336 29 425 -20 hstem
          13 336 rmoveto
          81 hlineto
          94 -336 rlineto
          44 hlineto
          139 790 rlineto
          -34 hlineto
          -128 -753 -86 328 rlineto
          -110 hlineto
          endchar
        </CharString>
        <CharString name="rcaron">
          -242 -50 callgsubr
          81 34 vstem
          76 716 -92 callsubr
          216 -210 -76 callgsubr
          endchar
        </CharString>
        <CharString name="rcommaaccent">
          -242 5 callgsubr
          520 -20 hstem
          81 34 vstem
          97 -87 callsubr
          237 696 -76 callgsubr
          endchar
        </CharString>
        <CharString name="rdblgrave">
          51 callsubr
          hstemhm
          81 34 hintmask 11010000
          248 638 -90 callsubr
          hintmask 10110000
          256 -210 rmoveto
          -7 -12 0 -1 -13 hvcurveto
          -67 -8 -65 -50 -36 -73 rrcurveto
          132 -33 -520 34 327 vlineto
          hintmask 11010000
          28 97 75 60 96 4 rrcurveto
          endchar
        </CharString>
        <CharString name="rdotbelow">
          -242 31 callsubr
          520 -20 hstem
          81 34 vstem
          314 520 -76 callgsubr
          -200 -626 -70 callgsubr
        </CharString>
        <CharString name="registered">
          253 -7 23 107 205 -27 27 225 29 109 24 hstemhm
          50 25 191 30 261 29 165 25 hintmask 1101111110000000
          -20 callsubr
          23 vmoveto
          -195 -143 145 194 192 144 144 194 195 143 -144 -192 -203 -147 -136 -191 hvcurveto
          -147 107 rmoveto
          30 hlineto
          hintmask 1011111110000000
          178 145 vlineto
          hintmask 1101111110000000
          113 -178 rlineto
          34 hlineto
          -115 180 rlineto
          67 7 46 61 70 vvcurveto
          70 -55 71 -76 vhcurveto
          -189 hlineto
          30 -254 rmoveto
          225 158 vlineto
          60 43 -50 -62 -61 -34 -52 -65 hvcurveto
          endchar
        </CharString>
        <CharString name="ring">
          -332 611 119 -19 -20 hstemhm
          59 21 81 21 hintmask 10110000
          59 671 -65 callgsubr
          hintmask 01110000
          61 40 -69 callgsubr
          endchar
        </CharString>
        <CharString name="rinvertedbreve">
          51 callsubr
          208 22 hstemhm
          81 34 -6 162 hintmask 10110100
          190 708 -96 callgsubr
          124 -188 rmoveto
          -7 -12 0 -1 -13 hvcurveto
          -67 -8 -65 -50 -36 -73 rrcurveto
          132 vlineto
          hintmask 10111000
          -33 -520 34 327 hlineto
          hintmask 11001000
          28 97 75 60 96 4 rrcurveto
          endchar
        </CharString>
        <CharString name="s">
          -97 -10 29 480 29 hstem
          59 33 309 -63 callgsubr
          endchar
        </CharString>
        <CharString name="s_t">
          208 -10 37 -11 -21 504 21 8 -20 218 25 hstemhm
          51 32 241 25 61 33 132 34 hintmask 1010111110000000
          759 52 rmoveto
          -3 -5 -36 -22 -39 hhcurveto
          -38 -32 20 39 hvcurveto
          404 123 30 -123 vlineto
          155 -5 76 -129 -114 -37 -61 -72 -52 19 -26 18 -42 vhcurveto
          hintmask 1001111110000000
          19 -30 -43 11 -48 hhcurveto
          -89 -100 -36 -112 -108 95 -22 92 -6 hvcurveto
          60 -4 112 -7 -97 vvcurveto
          -87 -90 -30 -74 -67 -62 25 49 -55 vhcurveto
          -19 -23 rlineto
          -44 46 70 -36 86 hhcurveto
          90 108 38 110 115 -121 13 -79 7 hvcurveto
          -59 5 -101 9 97 vvcurveto
          hintmask 0110111110000000
          87 81 28 77 50 58 -12 -50 36 vhcurveto
          22 17 rlineto
          1 3 -59 76 87 vvcurveto
          60 29 46 95 88 14 -40 -166 vhcurveto
          -75 -30 75 -409 hlineto
          -54 42 -32 56 49 44 25 4 6 vhcurveto
          endchar
        </CharString>
        <CharString name="sacute">
          -7 callsubr
          316 730 -95 callgsubr
          6 -648 -100 callgsubr
        </CharString>
        <CharString name="scaron">
          -7 callsubr
          135 716 -92 callsubr
          82 -740 -100 callgsubr
        </CharString>
        <CharString name="schwa">
          6 -10 29 227 27 225 30 hstem
          33 35 432 35 vstem
          286 -10 rmoveto
          141 108 119 146 149 -112 124 -141 -93 -88 -54 -72 -30 hvcurveto
          31 -8 rlineto
          61 28 74 43 76 hhcurveto
          115 96 -97 -128 9 hvcurveto
          -466 hlineto
          -1 -1 -12 -2 vvcurveto
          -148 1 111 -120 141 hhcurveto
          29 vmoveto
          -117 -93 95 132 -8 hvcurveto
          433 hlineto
          -130 -7 -91 -97 -117 hhcurveto
          endchar
        </CharString>
        <CharString name="scircumflex">
          -7 callsubr
          157 638 -101 callsubr
          104 -663 -100 callgsubr
        </CharString>
        <CharString name="sdotbelow">
          -97 -117 -21 128 29 callsubr
          129 32 148 -63 callgsubr
          14 -128 -70 callgsubr
        </CharString>
        <CharString name="section">
          -85 -88 33 242 244 -31 31 252 32 hstemhm
          46 34 -7 33 290 33 -18 35 hintmask 11011010
          394 185 rmoveto
          22 21 13 38 38 vvcurveto
          108 -98 41 -95 -91 -65 32 90 81 80 49 75 50 66 -12 -50 25 vhcurveto
          28 13 rlineto
          48 -33 -46 33 -92 hhcurveto
          -87 -100 -61 -101 -54 23 -45 34 -21 hvcurveto
          hintmask 11010101
          -18 -20 -12 -37 -35 vvcurveto
          -105 85 -45 103 -4 vhcurveto
          71 -2 79 -16 -91 vvcurveto
          -83 -81 -50 -75 -63 -51 24 49 -52 vhcurveto
          -24 -21 rlineto
          -45 44 58 -40 88 hhcurveto
          86 105 57 110 51 -16 35 -36 20 hvcurveto
          -288 154 rmoveto
          30 12 32 17 17 vhcurveto
          hintmask 10110110
          -12 29 36 -6 37 hhcurveto
          70 89 -27 -91 -33 -13 -34 -21 -18 hvcurveto
          -80 32 -176 -40 150 vvcurveto
          endchar
        </CharString>
        <CharString name="semicolon">
          -394 -60 -21 96 -21 523 -20 hstem
          71 37 vstem
          103 443 rmoveto
          74 -31 -74 vlineto
          20 -524 rmoveto
          16 75 rlineto
          80 -37 -80 13 vlineto
          -12 -75 rlineto
          endchar
        </CharString>
        <CharString name="servicemark">
          103 427 26 235 27 -5 -20 hstemhm
          67 29 149 29 61 28 211 28 hintmask 10111110
          468 507 rmoveto
          23 callsubr
          23 42 callgsubr
          -309 -29 rmoveto
          hintmask 11011110
          24 -23 -28 10 -37 hhcurveto
          -62 -41 -28 -50 -50 35 -16 63 -12 hvcurveto
          57 -11 23 -14 -35 vvcurveto
          -31 -27 -15 -46 -43 -31 13 27 -25 vhcurveto
          -15 -22 rlineto
          -30 31 36 -14 46 hhcurveto
          63 40 25 48 56 -40 17 -63 13 hvcurveto
          -55 12 -20 9 32 vvcurveto
          31 22 18 52 29 24 -8 -23 17 vhcurveto
          endchar
        </CharString>
        <CharString name="seven">
          -38 -106 -21 677 33 hstem
          113 -127 rmoveto
          39 hlineto
          362 710 rlineto
          -469 -33 415 hlineto
          endchar
        </CharString>
        <CharString name="seven.denominator">
          -236 21 -21 361 27 hstem
          67 hmoveto
          -4 callgsubr
          -27 256 hlineto
          endchar
        </CharString>
        <CharString name="seven.lnum">
          -73 21 -21 677 33 hstem
          97 hmoveto
          39 hlineto
          363 710 rlineto
          -469 -33 414 hlineto
          endchar
        </CharString>
        <CharString name="seven.numerator">
          -235 363 -21 362 26 hstem
          67 342 rmoveto
          -4 callgsubr
          -26 256 hlineto
          endchar
        </CharString>
        <CharString name="seveneighths">
          234 -4 25 175 23 144 25 316 26 hstemhm
          469 -27 callgsubr
          hintmask 11111001
          75 -2 -90 callgsubr
          719 89 1 callsubr
          hintmask 11110110
          -68 callsubr
          hintmask 11111001
          -87 callgsubr
          hintmask 11110110
          -73 callgsubr
          -427 52 rmoveto
          -4 callgsubr
          -26 256 hlineto
          endchar
        </CharString>
        <CharString name="seveninferior">
          -236 -59 -21 361 27 hstem
          67 -80 rmoveto
          -4 callgsubr
          -27 256 hlineto
          endchar
        </CharString>
        <CharString name="sevensuperior">
          -235 443 -21 362 26 hstem
          67 422 rmoveto
          -4 callgsubr
          -26 256 hlineto
          endchar
        </CharString>
        <CharString name="six">
          -76 callsubr
        </CharString>
        <CharString name="six.denominator">
          -180 -5 18 callgsubr
          27 262 26 vstem
          358 128 -57 callsubr
        </CharString>
        <CharString name="six.lnum">
          -76 callsubr
        </CharString>
        <CharString name="six.numerator">
          -180 334 18 callgsubr
          26 263 26 vstem
          358 467 -57 callgsubr
        </CharString>
        <CharString name="sixinferior">
          -180 -85 18 callgsubr
          27 262 26 vstem
          358 48 -57 callsubr
        </CharString>
        <CharString name="sixsuperior">
          -180 414 18 callgsubr
          26 263 26 vstem
          358 547 -57 callgsubr
        </CharString>
        <CharString name="slash">
          -17 -77 callsubr
          hstem
          487 9 callgsubr
          -460 -710 rlineto
          40 hlineto
          461 710 rlineto
          endchar
        </CharString>
        <CharString name="space">
          -314 endchar
        </CharString>
        <CharString name="sterling">
          -97 -15 32 -11 30 302 30 316 31 hstemhm
          79 34 75 32 hintmask 01111100
          49 338 rmoveto
          119 hlineto
          12 -28 8 -30 -35 vvcurveto
          -67 -29 -51 -104 -108 vhcurveto
          13 -26 rlineto
          8 29 39 5 30 hhcurveto
          hintmask 10111100
          60 38 -21 59 hhcurveto
          35 36 51 callgsubr
          -28 hhcurveto
          hintmask 01111100
          -50 -36 19 -60 hhcurveto
          -24 -25 -3 -5 -22 hvcurveto
          84 92 29 57 70 vvcurveto
          34 -7 30 -10 27 vhcurveto
          161 30 -175 hlineto
          -31 64 -45 52 65 vvcurveto
          75 59 60 73 58 56 -36 -59 32 vhcurveto
          23 21 rlineto
          64 -35 -64 41 -68 hhcurveto
          -92 -76 -75 -92 -68 43 -51 32 -61 hvcurveto
          -105 hlineto
          endchar
        </CharString>
        <CharString name="summation">
          -74 0 36 643 31 hstem
          449 9 callgsubr
          -413 -29 hlineto
          227 -313 -231 -337 rlineto
          -31 432 36 -389 4 vlineto
          227 329 -222 306 rlineto
          4 369 vlineto
          endchar
        </CharString>
        <CharString name="t">
          -266 -5 32 11 callgsubr
          vstem
          284 52 -80 callsubr
        </CharString>
        <CharString name="t.alt">
          -290 21 -21 487 33 180 -20 hstem
          103 35 vstem
          138 hmoveto
          487 124 33 -124 180 -35 -180 -75 -33 75 -487 vlineto
          endchar
        </CharString>
        <CharString name="tbar">
          -264 -5 32 303 27 133 30 179 -20 hstem
          101 34 vstem
          285 52 rmoveto
          -3 -3 -36 -22 -43 hhcurveto
          -34 -31 20 39 -3 hvcurveto
          244 123 27 -123 133 123 30 -123 179 -34 -179 -74 -30 74 -133 -74 -27 74 -249 vlineto
          -54 44 -32 52 55 41 27 2 5 vhcurveto
          endchar
        </CharString>
        <CharString name="tcaron">
          -266 -5 32 463 30 210 -20 hstem
          100 34 vstem
          316 730 -95 callgsubr
          51 -586 -80 callsubr
        </CharString>
        <CharString name="tdotbelow">
          -266 -117 -21 133 32 11 callgsubr
          39 32 vstem
          205 2 callsubr
          111 190 -80 callsubr
        </CharString>
        <CharString name="thorn">
          30 -192 -21 201 33 475 32 182 -20 hstem
          81 35 409 34 vstem
          559 258 rmoveto
          129 -90 141 -152 -89 -64 -51 -69 -48 vhcurveto
          302 -35 -923 35 311 vlineto
          -61 37 75 -49 80 hhcurveto
          141 107 128 142 3 hvcurveto
          -34 hmoveto
          -119 -91 -118 -127 -77 -114 70 79 vhcurveto
          184 vlineto
          74 37 69 68 94 hhcurveto
          124 85 -115 -123 hvcurveto
          endchar
        </CharString>
        <CharString name="three">
          -48 -147 32 336 31 292 32 hstemhm
          425 35 -22 34 hintmask 11110000
          318 236 rmoveto
          87 11 55 65 84 vvcurveto
          104 -86 76 -117 -93 -81 -49 -74 -28 vhcurveto
          25 -17 rlineto
          65 27 67 43 81 hhcurveto
          98 72 -60 -94 -85 -62 -53 -113 hvcurveto
          -24 -31 23 hlineto
          hintmask 11101000
          118 71 -65 -104 -102 -71 -65 -111 -91 -70 44 66 -24 hvcurveto
          -27 -18 rlineto
          -76 31 80 -48 100 hhcurveto
          128 89 80 117 98 -61 75 -93 13 hvcurveto
          endchar
        </CharString>
        <CharString name="three.denominator">
          -190 -5 26 165 -22 callsubr
          -5 -61 callgsubr
        </CharString>
        <CharString name="three.lnum">
          10 -9 33 321 31 311 32 hstemhm
          52 27 397 35 -15 34 hintmask 11110100
          292 -9 rmoveto
          133 105 79 110 89 -64 73 -98 19 hvcurveto
          hintmask 11111000
          94 24 49 54 82 vvcurveto
          113 -98 85 -133 -98 -87 -48 -76 -32 vhcurveto
          26 -19 rlineto
          66 27 74 45 91 hhcurveto
          111 84 -69 -97 -95 -79 -50 -141 hvcurveto
          -35 -31 35 hlineto
          hintmask 11110100
          144 96 -64 -98 -92 -87 -67 -116 -119 -91 71 86 -4 hvcurveto
          -27 -11 rlineto
          -103 7 101 -76 132 hhcurveto
          endchar
        </CharString>
        <CharString name="three.numerator">
          -190 333 27 164 -22 callsubr
          333 -61 callsubr
        </CharString>
        <CharString name="threeeighths">
          240 -4 25 175 23 114 27 3 25 136 24 158 25 hstemhm
          307 28 -15 27 126 -27 callgsubr
          hintmask 1111110110100000
          196 34 callsubr
          hintmask 1111111010100000
          59 12 30 30 45 vvcurveto
          61 -62 46 -84 -62 -54 -25 -40 -86 callsubr
          hintmask 1111110110010000
          -51 callsubr
          -57 -335 -90 callgsubr
          659 89 1 callsubr
          hintmask 1111111001100000
          -68 callsubr
          hintmask 1111111010010000
          -87 callgsubr
          hintmask 1111111001100000
          -73 callgsubr
          endchar
        </CharString>
        <CharString name="threeinferior">
          -190 -85 26 165 -22 callsubr
          -85 -61 callgsubr
        </CharString>
        <CharString name="threequarters">
          214 19 -21 23 -21 108 26 199 27 164 24 158 25 hstemhm
          306 28 -15 27 317 27 hintmask 0111110110000000
          195 34 callsubr
          hintmask 0111111010000000
          59 12 30 30 45 vvcurveto
          61 -62 46 -84 -62 -54 -25 -40 -86 callsubr
          hintmask 0111110110000000
          -51 callsubr
          495 -333 rmoveto
          -63 callsubr
          hintmask 1011111010000000
          -299 -136 -25 callsubr
        </CharString>
        <CharString name="threesuperior">
          -190 413 27 164 -22 callsubr
          413 -61 callsubr
        </CharString>
        <CharString name="tilde">
          -183 656 26 -15 -21 48 8 callgsubr
          hintmask 10010000
          253 24 callgsubr
          hintmask 01100000
          -50 -22 39 -53 hhcurveto
          -69 -10 -66 -9 hvcurveto
          27 hlineto
          6 7 42 43 vhcurveto
          hintmask 10100000
          42 25 -38 59 hhcurveto
          endchar
        </CharString>
        <CharString name="trademark">
          98 451 -21 254 28 -2 -20 hstemhm
          155 28 141 28 212 28 hintmask 11011100
          278 712 rmoveto
          -218 -28 95 -254 28 254 95 hlineto
          179 -177 rmoveto
          hintmask 10111100
          23 callsubr
          24 42 callgsubr
          endchar
        </CharString>
        <CharString name="two">
          -77 0 32 517 32 hstem
          401 35 vstem
          447 hmoveto
          32 -364 vlineto
          2 44 30 113 128 52 rrcurveto
          72 29 121 45 115 vvcurveto
          76 -64 75 -121 -118 -73 -89 -6 -4 vhcurveto
          24 -23 rlineto
          17 13 59 69 96 hhcurveto
          103 50 -63 -58 -98 -110 -34 -75 -33 hvcurveto
          -156 -69 -14 -133 -61 vvcurveto
          endchar
        </CharString>
        <CharString name="two.denominator">
          -198 0 10 callsubr
          332 hmoveto
          26 -255 vlineto
          39 12 63 100 31 vhcurveto
          56 17 86 24 81 -47 callgsubr
          -41 -44 -67 -79 -17 -60 -22 hvcurveto
          -79 -29 -45 -47 -100 vvcurveto
          endchar
        </CharString>
        <CharString name="two.lnum">
          -6 0 32 654 33 hstem
          50 39 385 36 vstem
          511 hmoveto
          32 -422 vlineto
          81 16 114 171 70 vhcurveto
          93 39 141 38 145 vvcurveto
          102 -69 98 -144 -157 -77 -117 -8 -4 vhcurveto
          25 -20 rlineto
          40 28 65 72 117 hhcurveto
          124 56 -81 -85 -130 -128 -29 -96 -40 hvcurveto
          -116 -49 -84 -79 -165 vvcurveto
          -9 0 -9 1 -10 vhcurveto
          endchar
        </CharString>
        <CharString name="two.numerator">
          -198 338 10 callsubr
          331 338 rmoveto
          26 -254 vlineto
          39 9 62 101 31 vhcurveto
          55 17 89 26 80 -47 callgsubr
          -40 -45 -67 -79 -16 -60 -23 hvcurveto
          -79 -29 -45 -46 -101 vvcurveto
          endchar
        </CharString>
        <CharString name="twoinferior">
          -198 -80 10 callsubr
          332 -80 rmoveto
          26 -255 vlineto
          39 8 62 100 29 vhcurveto
          56 16 90 28 81 -47 callgsubr
          -41 -44 -67 -79 -17 -60 -22 hvcurveto
          -79 -29 -45 -47 -100 vvcurveto
          endchar
        </CharString>
        <CharString name="twosuperior">
          -198 418 10 callsubr
          331 418 rmoveto
          26 -254 vlineto
          39 10 63 100 31 vhcurveto
          55 17 89 27 78 -47 callgsubr
          -40 -45 -67 -79 -17 -60 -22 hvcurveto
          -79 -30 -45 -45 -101 vvcurveto
          endchar
        </CharString>
        <CharString name="twothirds">
          251 -5 26 165 24 128 26 4 25 312 26 hstemhm
          308 29 408 28 -15 27 hintmask 11111101
          337 338 rmoveto
          26 -253 vlineto
          39 9 62 101 31 vhcurveto
          54 17 89 26 80 12 callgsubr
          -40 -45 -67 -79 -16 -59 -23 hvcurveto
          -79 -29 -44 -46 -101 vvcurveto
          111 -340 -90 callgsubr
          497 -21 -60 callgsubr
        </CharString>
        <CharString name="u">
          -53 callsubr
          hstemhm
          76 34 354 34 hintmask 10111000
          -26 callgsubr
          hintmask 01111000
          -96 callsubr
          hintmask 10111000
          -71 callsubr
        </CharString>
        <CharString name="u.alt">
          6 -10 32 -1 -21 520 27 callsubr
          hintmask 01111000
          498 hmoveto
          520 -34 -330 vlineto
          hintmask 10111000
          -88 -26 -86 -80 -100 hhcurveto
          -117 -25 94 112 hvcurveto
          292 -34 -296 vlineto
          -116 27 -118 143 89 87 55 82 43 vhcurveto
          hintmask 01111000
          -127 vlineto
          endchar
        </CharString>
        <CharString name="uacute">
          -17 callgsubr
          359 730 -95 callgsubr
          -34 -648 -100 callsubr
          endchar
        </CharString>
        <CharString name="ubreve">
          -53 callsubr
          146 22 62 -20 hstemhm
          76 34 94 162 98 34 hintmask 10111111
          -26 callgsubr
          hintmask 01111111
          -96 callsubr
          hintmask 10111111
          -101 callgsubr
          43 678 -94 callsubr
        </CharString>
        <CharString name="ucircumflex">
          -17 callgsubr
          199 638 -101 callsubr
          65 -663 -100 callsubr
          endchar
        </CharString>
        <CharString name="udblgrave">
          -17 callgsubr
          337 638 -90 callsubr
          95 -740 -100 callsubr
          endchar
        </CharString>
        <CharString name="udieresis">
          -53 callsubr
          147 82 hstemhm
          76 34 96 31 95 31 101 34 hintmask 10111111
          237 647 -88 callgsubr
          -90 -657 -69 callsubr
          hintmask 01111111
          -96 callsubr
          hintmask 10111111
          -71 callsubr
        </CharString>
        <CharString name="udotbelow">
          8 -117 -21 128 -40 callgsubr
          hstemhm
          76 34 155 32 167 34 hintmask 11011110
          -26 callgsubr
          hintmask 10111110
          -96 callsubr
          hintmask 11011110
          -101 callgsubr
          55 -128 -70 callgsubr
        </CharString>
        <CharString name="ugrave">
          -17 callgsubr
          242 -10 -100 callsubr
          51 648 -78 callgsubr
        </CharString>
        <CharString name="uhungarumlaut">
          -17 callgsubr
          242 -10 -100 callsubr
          62 740 -56 callsubr
          endchar
        </CharString>
        <CharString name="uinvertedbreve">
          -53 callsubr
          208 22 hstemhm
          76 34 92 162 100 34 hintmask 10111110
          283 708 -96 callgsubr
          -41 -718 -69 callsubr
          hintmask 01111110
          -96 callsubr
          hintmask 10111110
          -71 callsubr
        </CharString>
        <CharString name="umacron">
          -53 callsubr
          179 28 -14 callsubr
          hintmask 10111100
          242 -10 -100 callsubr
          184 689 -33 callgsubr
        </CharString>
        <CharString name="underscore">
          -48 -32 32 hstem
          457 -32 rmoveto
          32 -389 -32 vlineto
          endchar
        </CharString>
        <CharString name="uni00A0">
          -314 endchar
        </CharString>
        <CharString name="uni00AD">
          20 callsubr
        </CharString>
        <CharString name="uni015E">
          32 32 callsubr
          45 29 658 32 hstem
          63 35 295 25 115 35 vstem
          236 -81 callgsubr
          30 51 rlineto
          141 5 90 62 114 vvcurveto
          126 -98 36 -156 32 vhcurveto
          -152 31 -64 26 97 vvcurveto
          96 64 62 151 84 60 -21 -57 52 vhcurveto
          19 26 rlineto
          58 -57 -68 26 -91 hhcurveto
          -150 -99 -69 -126 -117 85 -32 154 -31 hvcurveto
          158 -32 73 -34 -101 vvcurveto
          -99 -82 -49 -133 -108 -85 35 68 -66 vhcurveto
          -21 -25 75 -71 86 -35 109 -2 rlinecurve
          -45 -79 -79 callgsubr
        </CharString>
        <CharString name="uni015F">
          -96 32 callsubr
          39 29 callsubr
          216 25 68 34 vstem
          151 -81 callgsubr
          27 45 rlineto
          112 4 74 57 90 vvcurveto
          90 -74 21 -127 30 vhcurveto
          -100 23 -42 13 65 vvcurveto
          81 68 35 82 64 62 -22 -40 29 vhcurveto
          23 17 rlineto
          43 -28 -64 31 -83 hhcurveto
          -100 -86 -47 -103 -83 54 -16 114 -27 hvcurveto
          113 -27 61 -18 -70 vvcurveto
          -74 -66 -44 -97 -72 -57 25 51 -55 vhcurveto
          -19 -23 49 -51 64 -26 72 -4 rlinecurve
          -42 -75 -79 callgsubr
        </CharString>
        <CharString name="uni0162">
          29 32 callsubr
          70 56 callsubr
          hstem
          283 35 50 25 vstem
          211 -81 callgsubr
          32 55 rlineto
          4 678 266 32 -567 -32 266 -678 4 hlineto
          -49 -84 -79 callgsubr
        </CharString>
        <CharString name="uni0163">
          -266 32 callsubr
          45 31 11 callgsubr
          130 25 vstem
          107 -81 callgsubr
          30 51 49 3 35 23 5 2 rlinecurve
          -13 28 rlineto
          -3 -3 -36 -22 -43 hhcurveto
          -34 -31 20 39 -3 hvcurveto
          404 123 30 -123 179 -34 -179 -74 -30 74 -409 vlineto
          -48 35 -31 44 -6 vhcurveto
          -45 -80 -79 callgsubr
        </CharString>
        <CharString name="uni01C4">
          764 -5 callsubr
          96 35 497 35 vstem
          935 -29 callsubr
          -413 -30 rmoveto
          -95 callsubr
        </CharString>
        <CharString name="uni01C5">
          628 0 29 462 29 158 32 20 -20 hstemhm
          96 35 497 35 hintmask 11011100
          863 -29 callgsubr
          -416 -28 rmoveto
          205 130 141 215 196 -111 158 -224 hvcurveto
          -232 -710 hlineto
          532 356 rmoveto
          -184 -103 -140 -197 vhcurveto
          -197 hlineto
          hintmask 11101100
          646 197 vlineto
          193 107 -135 -187 hvcurveto
          endchar
        </CharString>
        <CharString name="uni01C6">
          7 callgsubr
          760 -29 callgsubr
          hintmask 01010111
          -347 -38 -19 callgsubr
          hintmask 00110111
          -22 18 -22 24 vhcurveto
          hintmask 10001111
          38 callgsubr
          hvcurveto
          -74 callsubr
          hintmask 01010111
          -91 callsubr
        </CharString>
        <CharString name="uni01C7">
          482 -11 33 -1 -35 callgsubr
          hstemhm
          96 35 803 34 hintmask 10111000
          598 33 rmoveto
          -86 callgsubr
          hintmask 01111000
          -45 -61 rmoveto
          -28 callsubr
          endchar
        </CharString>
        <CharString name="uni01C8">
          211 -173 32 141 32 488 33 callgsubr
          96 35 538 34 vstem
          564 -13 callsubr
          139 819 -14 callgsubr
          -103 -646 rmoveto
          -28 callsubr
          endchar
        </CharString>
        <CharString name="uni01C9">
          -121 -173 32 136 31 494 33 callgsubr
          87 33 217 34 vstem
          232 -13 callsubr
          139 819 -14 callgsubr
          -250 -564 -84 callsubr
          641 -33 vlineto
          endchar
        </CharString>
        <CharString name="uni01CA">
          677 -11 33 -1 -35 callgsubr
          hstemhm
          96 35 513 35 450 34 hintmask 10111100
          793 33 rmoveto
          -86 callgsubr
          hintmask 01111100
          -161 -61 rmoveto
          -78 callsubr
          endchar
        </CharString>
        <CharString name="uni01CB">
          406 -173 32 162 -21 520 33 callgsubr
          96 35 513 35 185 34 vstem
          759 -13 callsubr
          139 819 -14 callgsubr
          -219 -646 rmoveto
          -78 callsubr
          endchar
        </CharString>
        <CharString name="uni01CC">
          202 -173 32 162 -26 callsubr
          81 34 346 34 164 34 hintmask 11011111
          554 -13 callsubr
          139 819 -14 callgsubr
          -164 -352 rmoveto
          hintmask 11101111
          -65 callsubr
          hintmask 11011111
          -50 callsubr
          hintmask 11101111
          -72 callgsubr
          endchar
        </CharString>
        <CharString name="uni01F1">
          747 0 32 646 37 callgsubr
          724 hmoveto
          -81 callsubr
          -396 -30 rmoveto
          -95 callsubr
        </CharString>
        <CharString name="uni01F2">
          628 0 29 462 29 158 37 callgsubr
          744 -54 callsubr
          -416 -28 rmoveto
          -95 callsubr
        </CharString>
        <CharString name="uni01F3">
          7 callgsubr
          641 -54 callsubr
          hintmask 01010111
          -347 -38 -19 callgsubr
          hintmask 00110111
          -22 18 -22 24 vhcurveto
          hintmask 10001111
          38 callgsubr
          hvcurveto
          -74 callsubr
          hintmask 01010111
          -91 callsubr
        </CharString>
        <CharString name="uni0218">
          30 -155 -21 171 30 658 32 hstem
          62 35 199 37 199 35 cntrmask 00011100
          316 -87 callsubr
          231 807 -105 callsubr
          endchar
        </CharString>
        <CharString name="uni0219">
          -97 -155 -21 166 29 callsubr
          126 37 146 34 vstem
          238 -87 callsubr
          21 166 -100 callgsubr
        </CharString>
        <CharString name="uni021A">
          30 5 callgsubr
          678 32 hstem
          284 35 vstem
          301 -87 callsubr
          304 886 -41 callgsubr
        </CharString>
        <CharString name="uni021B">
          -266 -155 -21 171 32 11 callgsubr
          40 37 vstem
          194 -87 callsubr
          110 228 -80 callsubr
        </CharString>
        <CharString name="uni02C9">
          -188 679 28 hstem
          334 679 -33 callgsubr
        </CharString>
        <CharString name="uni030F">
          -267 -4 callsubr
          236 638 16 callgsubr
        </CharString>
        <CharString name="uni0311">
          -315 667 -21 62 22 hstem
          48 162 vstem
          129 708 1 callgsubr
        </CharString>
        <CharString name="uni0394">
          74 0 -1 callsubr
          339 9 callgsubr
          -30 hlineto
          -285 -680 rlineto
          -30 599 30 vlineto
          -561 2 rmoveto
          262 634 261 -634 rlineto
          endchar
        </CharString>
        <CharString name="uni03A9">
          -73 callsubr
        </CharString>
        <CharString name="uni03BC">
          14 41 callsubr
          81 34 355 34 hintmask 11011100
          81 -51 callgsubr
        </CharString>
        <CharString name="uni0400">
          41 -67 callsubr
          208 -20 hstem
          96 35 -77 callgsubr
          -215 794 -78 callgsubr
        </CharString>
        <CharString name="uni0401">
          41 -67 callsubr
          125 82 hstem
          96 35 133 31 95 31 vstem
          295 835 -88 callgsubr
          -259 -803 rmoveto
          315 372 32 -372 299 425 -39 callgsubr
          469 32 vlineto
          endchar
        </CharString>
        <CharString name="uni0402">
          111 -10 32 -1 -21 407 34 237 32 hstemhm
          207 34 377 36 hintmask 01111100
          207 hmoveto
          34 333 hlineto
          51 51 58 23 71 hhcurveto
          127 70 -68 -123 hvcurveto
          hintmask 10111100
          -125 -66 -69 -118 -32 -19 5 18 -38 vhcurveto
          -12 -33 rlineto
          -17 35 27 -5 38 hhcurveto
          144 77 79 146 146 -83 80 -146 -77 -61 -23 -45 -46 hvcurveto
          305 278 32 -503 -32 191 vlineto
          endchar
        </CharString>
        <CharString name="uni0403">
          -45 56 callgsubr
          208 -20 hstem
          97 34 vstem
          368 918 -95 callgsubr
          221 -116 rmoveto
          -409 -710 34 678 375 hlineto
          endchar
        </CharString>
        <CharString name="uni0404">
          49 callsubr
          46 35 vstem
          632 171 rmoveto
          -100 -53 -105 -44 -91 hhcurveto
          -168 -130 149 171 -4 hvcurveto
          379 32 -378 hlineto
          150 8 105 152 185 hhcurveto
          88 96 -35 -101 52 hvcurveto
          30 14 rlineto
          90 -44 -89 65 -129 hhcurveto
          -216 -122 -184 -170 -180 136 -186 197 113 122 58 107 48 hvcurveto
          endchar
        </CharString>
        <CharString name="uni0405">
          30 -5 30 658 32 54 callsubr
          527 631 -105 callsubr
          endchar
        </CharString>
        <CharString name="uni0406">
          -346 21 -21 710 -20 -15 callsubr
          endchar
        </CharString>
        <CharString name="uni0407">
          -19 callsubr
          145 82 hstem
          35 31 30 35 30 31 cntrmask 00011100
          -72 callsubr
          -30 835 6 callsubr
        </CharString>
        <CharString name="uni0408">
          -97 -11 33 688 -20 hstem
          354 34 vstem
          18 33 rmoveto
          -86 callgsubr
          endchar
        </CharString>
        <CharString name="uni0409">
          418 0 32 -12 -21 363 32 284 32 hstemhm
          506 34 387 34 hintmask 01111100
          9 -1 rmoveto
          118 64 147 393 32 hvcurveto
          12 139 rlineto
          271 hlineto
          hintmask 10111100
          -678 240 vlineto
          140 75 21 callgsubr
          -204 316 -337 hlineto
          -13 -162 -37 -438 -74 -77 -74 -1 rlinecurve
          hintmask 01111100
          hintmask 10111100
          535 hmoveto
          330 204 vlineto
          140 43 22 callsubr
        </CharString>
        <CharString name="uni040A">
          465 0 32 330 32 316 -20 hstem
          97 34 406 34 403 34 vstem
          537 hmoveto
          256 hlineto
          140 75 21 callgsubr
          -220 316 -34 -316 -406 316 -34 -710 34 362 406 hlineto
          34 -330 rmoveto
          330 220 vlineto
          140 43 22 callsubr
        </CharString>
        <CharString name="uni040B">
          119 21 -21 398 33 247 32 hstem
          207 34 376 33 vstem
          617 hmoveto
          33 198 hlineto
          161 -70 72 -152 -67 -65 -17 -30 -55 vhcurveto
          294 278 32 -503 -32 191 -678 34 349 vlineto
          29 46 76 20 69 hhcurveto
          130 55 -60 -146 hvcurveto
          endchar
        </CharString>
        <CharString name="uni040C">
          0 36 callgsubr
          228 -20 hstem
          97 34 vstem
          385 918 -95 callgsubr
          -171 -116 -23 callsubr
        </CharString>
        <CharString name="uni040D">
          169 -77 callsubr
          228 -20 hstem
          97 34 485 35 vstem
          389 826 rmoveto
          24 13 -63 79 rlineto
          -44 hlineto
          -175 -208 -33 callsubr
        </CharString>
        <CharString name="uni040E">
          46 -8 32 686 -20 141 23 62 -20 hstem
          175 26 vstem
          -18 callgsubr
          -28 -33 -53 24 callsubr
          151 839 rmoveto
          91 46 37 48 hvcurveto
          -25 hlineto
          18 callsubr
          vhcurveto
          endchar
        </CharString>
        <CharString name="uni040F">
          116 -165 -21 186 52 callsubr
          196 34 197 34 vstem
          97 hmoveto
          230 -186 34 186 231 710 -34 -678 -427 678 -34 hlineto
          endchar
        </CharString>
        <CharString name="uni0410">
          -58 callsubr
          hstem
          -103 callgsubr
          endchar
        </CharString>
        <CharString name="uni0411">
          71 0 32 330 32 284 32 hstem
          97 34 443 34 vstem
          97 hmoveto
          296 hlineto
          141 74 21 callgsubr
          -260 284 425 32 -459 hlineto
          34 -678 rmoveto
          330 260 vlineto
          141 42 22 callsubr
        </CharString>
        <CharString name="uni0412">
          86 0 32 311 31 304 32 hstemhm
          92 35 415 34 -4 34 hintmask 11110100
          606 -62 callgsubr
        </CharString>
        <CharString name="uni0413">
          -45 56 callgsubr
          hstem
          97 34 vstem
          506 9 callgsubr
          -409 -710 34 678 375 hlineto
          endchar
        </CharString>
        <CharString name="uni0414">
          115 -185 217 -32 32 646 32 hstemhm
          16 33 493 34 54 32 hintmask 10111100
          16 -185 rmoveto
          33 hlineto
          hintmask 01111100
          185 581 vlineto
          hintmask 10111100
          -185 32 217 -86 678 -366 vlineto
          -14 -162 -38 -444 -43 -55 -73 -17 rlinecurve
          -26 hlineto
          88 hmoveto
          70 38 31 152 25 317 11 139 rcurveline
          301 -646 hlineto
          endchar
        </CharString>
        <CharString name="uni0415">
          -62 callsubr
          hstem
          96 35 -77 callgsubr
          endchar
        </CharString>
        <CharString name="uni0416">
          326 36 callgsubr
          hstem
          431 37 vstem
          5 hmoveto
          42 hlineto
          226 353 rlineto
          158 -353 37 353 158 hlineto
          226 -353 rlineto
          42 hlineto
          -243 370 212 340 rlineto
          -42 hlineto
          -197 -325 rlineto
          -156 325 -37 -325 -156 hlineto
          -197 325 rlineto
          -42 hlineto
          211 -340 rlineto
          endchar
        </CharString>
        <CharString name="uni0417">
          -42 -5 33 349 32 274 32 hstemhm
          418 34 -4 35 hintmask 11110000
          87 606 rmoveto
          41 28 65 36 76 hhcurveto
          100 62 -46 -86 -90 -69 -52 -127 hvcurveto
          -39 -32 39 hlineto
          hintmask 11101000
          142 84 -69 -111 -105 -76 -64 -114 -87 -80 44 62 -33 hvcurveto
          -28 -22 rlineto
          -69 39 86 -48 99 hhcurveto
          137 92 81 121 98 -56 79 -105 18 hvcurveto
          hintmask 11110000
          90 21 40 56 82 vvcurveto
          103 -73 61 -124 -86 -75 -40 -48 -32 vhcurveto
          endchar
        </CharString>
        <CharString name="uni0418">
          174 -77 callsubr
          hstem
          97 34 485 35 vstem
          131 710 -33 callsubr
        </CharString>
        <CharString name="uni0419">
          174 -77 callsubr
          141 23 62 -20 hstem
          97 34 101 26 358 35 vstem
          482 916 rmoveto
          18 callsubr
          91 46 37 48 vhcurveto
          -376 -206 -33 callsubr
        </CharString>
        <CharString name="uni041A">
          0 36 callgsubr
          hstem
          97 34 vstem
          131 710 -23 callsubr
        </CharString>
        <CharString name="uni041B">
          64 -1 33 -11 56 callsubr
          hstemhm
          506 34 hintmask 01110000
          235 678 rmoveto
          271 -678 34 710 -337 hlineto
          -13 -162 rlineto
          hintmask 10110000
          -37 -438 -74 -77 -74 -1 4 -33 rcurveline
          118 64 147 393 32 hvcurveto
          endchar
        </CharString>
        <CharString name="uni041C">
          310 -39 callsubr
        </CharString>
        <CharString name="uni041D">
          161 21 -21 347 32 331 -20 hstem
          96 35 472 34 vstem
          603 710 -46 callsubr
          endchar
        </CharString>
        <CharString name="uni041E">
          182 -5 53 callsubr
          593 35 vstem
          -85 callsubr
          endchar
        </CharString>
        <CharString name="uni041F">
          138 56 callgsubr
          hstem
          97 34 449 35 vstem
          97 hmoveto
          34 678 449 -678 35 710 -518 hlineto
          endchar
        </CharString>
        <CharString name="uni0420">
          -48 callgsubr
        </CharString>
        <CharString name="uni0421">
          122 -6 53 callsubr
          vstem
          46 360 -102 callsubr
          endchar
        </CharString>
        <CharString name="uni0422">
          28 56 callgsubr
          hstem
          283 35 vstem
          584 710 -41 callgsubr
        </CharString>
        <CharString name="uni0423">
          46 -8 32 686 -20 hstem
          -18 callgsubr
          -29 -33 -52 24 callsubr
          endchar
        </CharString>
        <CharString name="uni0424">
          160 -11 -21 112 34 535 35 108 -20 hstem
          32 36 281 35 281 35 vstem
          349 -32 rmoveto
          35 112 hlineto
          186 7 130 112 182 vvcurveto
          175 -125 121 -191 7 vhcurveto
          108 -35 -108 vlineto
          -191 -8 -126 -120 -175 vvcurveto
          -182 132 -113 185 -6 vhcurveto
          35 34 rmoveto
          535 vlineto
          169 -6 112 -102 -159 vvcurveto
          -161 -115 -101 -166 -6 vhcurveto
          -35 hmoveto
          -166 6 -115 101 161 vvcurveto
          160 112 101 169 6 vhcurveto
          endchar
        </CharString>
        <CharString name="uni0425">
          -42 callsubr
        </CharString>
        <CharString name="uni0426">
          131 45 callgsubr
          427 34 54 32 vstem
          646 -185 rmoveto
          32 217 -86 678 -34 -678 -427 678 -34 -710 549 hlineto
          endchar
        </CharString>
        <CharString name="uni0427">
          32 21 -21 282 32 396 -20 hstem
          48 34 392 34 vstem
          474 361 rmoveto
          -27 -42 -81 -20 -78 hhcurveto
          -137 -54 63 154 hvcurveto
          179 -34 -184 vlineto
          -164 66 -80 162 74 64 15 27 60 vhcurveto
          -324 34 710 -34 vlineto
          endchar
        </CharString>
</ttFont>
